<svg width="45" height="39" viewBox="0 0 45 39" fill="none" xmlns="http://www.w3.org/2000/svg">
<path d="M20.078 0.183811C18.345 0.538284 16.5726 1.35226 14.7871 2.62573C12.9754 3.91234 11.3212 5.82911 10.074 8.08724L9.54881 9.04563H8.57729H7.59264L6.94934 8.44171C6.31917 7.85092 6.31917 7.85092 6.38481 7.1551C6.47671 6.2361 6.26665 5.61906 5.63648 5.05453C4.40239 3.95173 2.66941 4.24055 1.9736 5.67157C1.38281 6.89253 1.82918 8.23165 3.03701 8.86182C3.444 9.07188 4.67809 9.11127 4.98005 8.91434C5.13759 8.82244 5.36078 8.97998 5.96469 9.64954L6.75241 10.516L7.93399 10.5423C8.6298 10.5685 9.10243 10.6342 9.0893 10.713C9.07618 10.7917 8.94489 11.435 8.78735 12.1702C8.64293 12.8923 8.52477 13.7588 8.52477 14.087V14.6909H7.05437L5.57084 14.6778L5.20324 14.1527C4.78312 13.5487 3.98227 13.1286 3.23394 13.1155C1.6979 13.1155 0.621349 14.5596 1.02834 16.1088C1.23839 16.844 2.17053 17.6711 2.95824 17.7893C3.89037 17.9206 4.83563 17.4611 5.37391 16.5815L5.66274 16.122L7.0675 16.1613L8.45913 16.2007L8.40662 16.8572C8.3541 17.6449 7.77644 19.2728 7.10688 20.5332L6.62113 21.4522L5.89905 21.5178C5.25575 21.5703 5.07195 21.6622 4.38926 22.2399L3.6278 22.8963H2.49874C1.51409 22.8963 1.31717 22.9357 0.923307 23.2114C0.148719 23.7628 -0.218882 25.0232 0.13559 25.9422C0.306262 26.3885 0.857664 26.9924 1.33029 27.2419C1.52722 27.3469 1.98672 27.4257 2.36745 27.4257C3.22081 27.4257 3.9035 27.0581 4.37613 26.336C4.70435 25.8503 4.73061 25.6927 4.67809 24.9313L4.62558 24.0779L5.29514 23.5134C6.06972 22.8701 6.3323 22.8307 6.54235 23.3296C6.73928 23.8022 7.527 24.6293 8.05215 24.8919C8.27533 25.01 8.74796 25.1282 9.11556 25.1807L9.77199 25.2595L9.83764 27.2944C9.90328 29.1849 9.92954 29.3819 10.2709 30.0777C10.7173 30.9835 11.7019 31.9157 12.5684 32.2176C12.9622 32.362 13.7762 32.4671 14.8265 32.5065C15.7324 32.5458 16.5464 32.6377 16.6383 32.7034C16.7433 32.8084 16.7958 33.3467 16.7958 34.607C16.7958 37.5741 16.7433 37.5347 21.2595 37.5347C25.5132 37.5347 25.592 37.5085 25.592 35.6836V34.7383L26.4191 35.5129C27.942 36.9833 29.3468 37.7448 31.3292 38.2043C32.944 38.5719 35.3991 38.5062 36.8169 38.0599C40.5061 36.8914 43.0793 34.1738 44.1165 30.3796C44.5628 28.7779 44.5366 26.336 44.0508 24.7343C43.2368 22.0561 41.5432 19.9424 39.0357 18.4457L38.1035 17.8943L38.7337 17.2116C39.6133 16.2532 39.9547 15.3211 39.9678 13.8376C39.9678 12.8135 39.9153 12.551 39.6002 11.8683C39.1801 10.9755 38.3661 10.0697 37.6309 9.68893C37.1583 9.43948 37.1452 9.41323 37.2371 8.9406C37.4602 7.92969 37.3552 6.65622 37.0007 5.88163C36.3049 4.41122 34.782 3.40032 33.2066 3.40032H32.3532L32.1169 2.75702C31.6049 1.29974 30.0557 0.170681 28.3884 0.026268C26.9574 -0.0918884 25.5263 0.538284 24.7911 1.61483C24.4104 2.19249 24.2397 2.1531 24.1741 1.49667C24.1084 0.879623 23.8327 0.433254 23.347 0.170681C22.8875 -0.0656357 21.2727 -0.0525055 20.078 0.183811ZM22.6774 1.58857C22.7956 1.70673 22.835 2.79641 22.835 5.65844V9.57077L23.1501 9.7677C23.3864 9.92524 23.5439 9.93837 23.8065 9.84647L24.1478 9.70205V6.76125C24.1478 5.14643 24.1872 3.72854 24.2266 3.62351C24.266 3.50535 24.3973 3.45284 24.5417 3.49222C25.0274 3.62351 25.395 3.41345 25.7758 2.80953C26.2615 2.03494 26.9442 1.57544 27.7845 1.47041C28.9529 1.33913 30.082 1.90366 30.5808 2.87518C30.9878 3.67602 30.9353 3.87295 30.2395 4.10926C29.2942 4.42435 28.5722 4.91011 27.9157 5.63218C27.2199 6.40677 26.9048 7.22075 26.9048 8.28416C26.9048 8.97998 26.9311 9.07188 27.2331 9.20317C27.4694 9.3082 27.6532 9.3082 27.8764 9.20317C28.1258 9.08501 28.2046 8.92747 28.2833 8.29729C28.4409 7.06321 28.9398 6.34113 30.0294 5.76347C30.3183 5.61906 30.3314 5.63218 30.2395 5.92101C30.0426 6.49867 30.1082 6.84002 30.4758 7.11572C31.0404 7.53584 31.3554 7.29952 31.8149 6.10482C32.025 5.55341 32.3007 5.0414 32.432 4.97575C32.8127 4.7657 33.7055 4.83134 34.2306 5.09391C35.2415 5.61905 35.9636 6.74812 35.9636 7.81153C35.9636 8.06098 35.8454 8.55987 35.701 8.9406C35.5566 9.32133 35.4384 9.72831 35.4384 9.84647C35.4384 10.1222 35.7929 10.411 36.3443 10.6079C37.0401 10.8311 37.8804 11.6057 38.248 12.354C38.8125 13.47 38.6943 14.8747 37.9591 15.925C37.4865 16.6077 36.3968 17.356 36.0292 17.251C34.6376 16.844 31.8018 16.9753 30.3839 17.5136C29.3074 17.9074 29.3074 17.9074 29.1892 17.5398C29.0711 17.1197 28.0339 15.6887 27.6663 15.4393C27.3775 15.2292 27.3775 15.2161 27.6007 15.0717C27.7319 14.9929 28.0339 14.7566 28.2833 14.5465L28.7297 14.1527L29.3336 14.3496C30.0688 14.599 31.106 14.6253 31.4211 14.389C31.6837 14.192 31.7493 13.575 31.513 13.3387C31.4342 13.2599 31.0141 13.1549 30.5677 13.1024C29.6225 12.9973 29.2023 12.7216 28.7297 11.9208C28.4671 11.4613 28.3227 11.33 27.9814 11.3037C27.4037 11.2512 27.1805 11.7107 27.43 12.4459C27.5219 12.7348 27.5613 13.0499 27.5219 13.1549C27.4825 13.2468 27.0099 13.68 26.4585 14.087C25.3294 14.9404 25.1981 15.2686 25.8152 15.7806C26.8523 16.634 27.4169 17.251 27.7451 17.8549C28.1127 18.5114 28.1127 18.5245 27.8632 18.6952C25.6182 20.2706 24.0165 22.555 23.3601 25.1282C22.8218 27.2025 23.045 30.0777 23.8853 31.9813C24.1084 32.4802 24.1478 32.8609 24.1478 34.2394C24.1478 35.3685 24.0953 35.9593 23.9903 36.0643C23.7671 36.2875 18.7651 36.2875 18.4631 36.0643C18.2925 35.9199 18.2531 35.5654 18.2137 33.9506L18.1743 31.9944L17.6885 31.5481L17.1897 31.1017H15.6405C13.6581 31.1017 12.8703 30.8785 12.122 30.1302C11.3999 29.4212 11.2818 28.9223 11.2818 26.7299C11.2818 24.8 11.1768 24.3536 10.5991 23.9597C10.4416 23.8416 10.0871 23.7497 9.81138 23.7497C9.54881 23.7497 9.16808 23.684 8.95802 23.6053C8.45913 23.4215 7.86834 22.8438 7.86834 22.5418C7.86834 22.4106 8.19656 21.6491 8.59042 20.8614C9.65384 18.7345 9.83764 17.9731 9.96892 15.0191C10.1265 11.7239 10.5072 10.2403 11.7413 8.12662C13.3561 5.38274 16.0212 3.11149 18.857 2.10059C20.4062 1.53606 22.3623 1.27348 22.6774 1.58857ZM4.53368 5.99979C5.24262 6.45929 4.84876 7.60148 3.98227 7.60148C3.65406 7.60148 3.14204 7.07633 3.14204 6.74812C3.14204 6.27549 3.50964 5.89476 3.96915 5.89476C4.20546 5.89476 4.4549 5.94727 4.53368 5.99979ZM3.86412 14.8222C4.38926 15.413 4.04792 16.2664 3.28646 16.2664C2.86634 16.2664 2.69567 16.1613 2.49874 15.7806C2.07863 14.9798 3.2602 14.1527 3.86412 14.8222ZM35.3203 18.577C38.7468 19.2203 41.5564 21.7016 42.6067 24.9838C44.1296 29.8151 41.4776 34.8827 36.4887 36.6288C35.7535 36.8914 35.3728 36.9308 33.6661 36.9308C31.8412 36.9308 31.6311 36.9045 30.7121 36.5763C29.3205 36.0643 28.4278 35.4998 27.3643 34.4495C25.29 32.4146 24.266 29.8151 24.4629 27.1631C24.5679 25.719 24.8043 24.8525 25.4738 23.4871C25.9202 22.5812 26.2484 22.148 27.2331 21.1765C28.2571 20.1524 28.6247 19.8767 29.675 19.3778C31.6705 18.4063 33.2591 18.1831 35.3203 18.577ZM3.01076 24.5374C3.54903 25.0757 3.18143 25.9815 2.41997 25.9815C1.94734 25.9815 1.43532 25.5089 1.43532 25.0757C1.43532 24.393 2.49874 24.0254 3.01076 24.5374Z" fill="white"/>
<path d="M31.658 9.60907C30.9884 9.91103 31.1985 10.7906 31.9599 10.9351C32.5638 11.0532 33.2859 11.6834 33.4828 12.2873C33.7323 13.0619 33.5747 14.0334 33.089 14.7161C32.6032 15.3988 32.6032 15.7139 33.089 15.9896C33.601 16.2784 34.0868 15.9764 34.5725 15.0312C35.2683 13.6921 35.2027 12.0247 34.3887 10.9088C33.6929 9.93729 32.3407 9.30711 31.658 9.60907Z" fill="white"/>
<path d="M15.7193 11.5006C15.4962 11.7631 12.5947 19.811 12.5947 20.1917C12.5947 20.3099 12.6604 20.4805 12.7523 20.5724C12.9623 20.7825 13.9995 20.7825 14.1308 20.5724C14.1833 20.4805 14.3933 19.9685 14.5771 19.4171L14.9185 18.4325L16.4808 18.3931L18.0431 18.3537L18.3582 19.3121C18.7914 20.5987 18.9358 20.7562 19.6579 20.7037C20.6163 20.6381 20.6163 20.5199 19.7498 18.0911C18.3844 14.2313 17.4129 11.6056 17.2816 11.4349C17.0847 11.1855 15.9557 11.238 15.7193 11.5006ZM16.9928 15.2685C17.3473 16.2925 17.4261 16.5945 17.2948 16.6864C17.1241 16.8045 15.68 16.7651 15.5618 16.647C15.5224 16.6207 15.7062 16.0037 15.9557 15.2947C16.2051 14.5727 16.402 13.9556 16.402 13.9294C16.402 13.7324 16.5596 14.1 16.9928 15.2685Z" fill="#9708D5"/>
<path d="M21.6537 11.5268C21.575 11.6975 21.5225 13.3386 21.5225 15.9643C21.5225 20.7169 21.5225 20.73 22.4415 20.73C22.8222 20.73 22.9929 20.6643 23.0979 20.4805C23.2948 20.0998 23.2817 11.645 23.0716 11.4349C22.9797 11.343 22.6647 11.2774 22.3496 11.2774C21.9294 11.2774 21.7588 11.343 21.6537 11.5268Z" fill="#9708D5"/>
<path d="M31.4736 20.8737C31.2898 20.9787 31.2373 21.1756 31.2373 21.7795V22.5672H30.4496C29.57 22.5672 29.1367 22.8429 29.1367 23.3943C29.1367 23.867 29.5306 24.1427 30.2133 24.1427C30.6465 24.1427 30.8434 24.2083 30.896 24.3527C31.001 24.6284 31.001 30.4313 30.896 30.9564C30.8172 31.3372 30.7778 31.3634 30.2395 31.3634C29.5831 31.3634 29.1367 31.7048 29.1367 32.1905C29.1367 32.7025 29.5831 32.9782 30.4496 33.0439L31.2373 33.0964V33.6872C31.2373 34.5405 31.408 34.7769 32.0381 34.7769C32.6552 34.7769 32.734 34.6324 32.7996 33.359C32.8127 33.1226 32.8915 33.0701 33.2722 33.0701H33.7317V33.766C33.7317 34.5668 33.8761 34.7769 34.4538 34.7769C35.0183 34.7769 35.1759 34.5668 35.1759 33.7791V33.0964L35.8061 33.0045C37.0795 32.8207 37.9198 32.2168 38.4055 31.1665C38.9701 29.9718 38.7075 28.6589 37.736 27.7399L37.2765 27.3067L37.6178 26.8078C37.9198 26.3614 37.946 26.2039 37.9066 25.3768C37.8672 24.6022 37.8016 24.3527 37.4734 23.8801C37.027 23.2237 36.5281 22.8823 35.7404 22.6854L35.189 22.541L35.1496 21.7401C35.1102 20.9918 35.084 20.9262 34.7558 20.808C34.5195 20.7161 34.2963 20.7292 34.0599 20.8343C33.758 20.9787 33.7317 21.0575 33.7317 21.7795V22.5672H33.246H32.7471L32.7865 21.9239C32.8259 21.4119 32.7865 21.2281 32.5633 21.0049C32.2613 20.703 31.8412 20.6505 31.4736 20.8737ZM35.7142 24.3527C36.6988 24.8516 36.5938 26.3877 35.5435 26.7553C35.3203 26.834 34.5588 26.8997 33.8499 26.8997H32.5502V25.5212V24.1427H33.9287C34.9396 24.1427 35.4253 24.1952 35.7142 24.3527ZM36.6988 28.8952C37.0008 29.2366 37.1452 29.5123 37.1452 29.788C37.1452 30.3394 36.817 30.9302 36.3837 31.1534C36.0686 31.324 34.4801 31.4291 33.049 31.3765L32.5502 31.3634V29.8405V28.3176L34.4013 28.3701L36.2524 28.4095L36.6988 28.8952Z" fill="#FF6CFB"/>
</svg>
