<svg width="112" height="24" viewBox="0 0 112 24" fill="none" xmlns="http://www.w3.org/2000/svg">
<path d="M22.9295 14.4562C21.3749 20.6921 15.0589 24.4872 8.82235 22.9321C2.5883 21.3774 -1.20678 15.0612 0.348646 8.82567C1.90261 2.58907 8.21852 -1.20636 14.4533 0.348332C20.6895 1.90303 24.4842 8.22001 22.9295 14.4562Z" fill="#F7931A"/>
<path d="M16.771 9.98211C17.0027 8.43324 15.8234 7.6006 14.2109 7.04514L14.734 4.94699L13.4568 4.62871L12.9476 6.67156C12.6118 6.5879 12.267 6.50897 11.9243 6.43076L12.4372 4.37444L11.1608 4.05615L10.6373 6.15357C10.3594 6.09027 10.0866 6.02772 9.82179 5.96188L9.82325 5.95533L8.06195 5.51554L7.7222 6.87963C7.7222 6.87963 8.66978 7.09679 8.64978 7.11025C9.16704 7.23938 9.26052 7.58167 9.24488 7.85303L8.64904 10.2433C8.68469 10.2524 8.7309 10.2655 8.78182 10.2858C8.73926 10.2753 8.69379 10.2636 8.64687 10.2524L7.81168 13.6008C7.74838 13.7579 7.58797 13.9936 7.2264 13.9041C7.23913 13.9227 6.29809 13.6724 6.29809 13.6724L5.66406 15.1344L7.32606 15.5487C7.63526 15.6261 7.93826 15.7073 8.23654 15.7836L7.70801 17.9058L8.9837 18.2241L9.50715 16.1245C9.85563 16.2191 10.1939 16.3064 10.5249 16.3886L10.0033 18.4784L11.2805 18.7966L11.809 16.6785C13.9868 17.0906 15.6244 16.9244 16.3138 14.9546C16.8692 13.3687 16.2861 12.4538 15.1403 11.8573C15.9747 11.6648 16.6033 11.1159 16.771 9.98211ZM13.8529 14.074C13.4583 15.66 10.7879 14.8026 9.92219 14.5876L10.6235 11.7761C11.4893 11.9922 14.2654 12.42 13.8529 14.074ZM14.248 9.95919C13.8879 11.4018 11.6653 10.6689 10.9443 10.4892L11.5802 7.93926C12.3012 8.11895 14.623 8.45433 14.248 9.95919Z" fill="white"/>
<path d="M34.1115 7.04331C35.0555 7.04331 35.871 7.21245 36.5563 7.54456C37.2449 7.87995 37.8131 8.33174 38.2689 8.89992C38.7185 9.47102 39.0532 10.1385 39.2692 10.9035C39.4838 11.6707 39.5915 12.4953 39.5915 13.3781C39.5915 14.7342 39.3431 16.0154 38.8414 17.223C38.3398 18.4325 37.6592 19.4816 36.7935 20.3764C35.9285 21.2702 34.9071 21.9748 33.7292 22.4953C32.5532 23.0162 31.2746 23.2767 29.9018 23.2767C29.7243 23.2767 29.4122 23.2716 28.9713 23.2625C28.5304 23.2534 28.0237 23.2079 27.4562 23.1312C26.8852 23.0515 26.2813 22.9336 25.6437 22.7758C25.0064 22.6208 24.4011 22.4036 23.8311 22.1279L28.928 0.711415L33.4931 0.00390625L31.6682 7.60387C32.0588 7.42781 32.4524 7.29139 32.8453 7.19209C33.2385 7.09424 33.6605 7.04331 34.1115 7.04331ZM30.2823 19.6551C30.9698 19.6551 31.6176 19.486 32.2262 19.1538C32.8366 18.8214 33.3633 18.3725 33.8045 17.8134C34.2458 17.2518 34.595 16.6192 34.8496 15.9124C35.1042 15.2056 35.233 14.4683 35.233 13.7011C35.233 12.7587 35.0755 12.0235 34.7616 11.4921C34.4476 10.9628 33.8667 10.6965 33.0232 10.6965C32.7467 10.6965 32.3906 10.7493 31.949 10.8435C31.5059 10.9435 31.1094 11.1512 30.7541 11.4637L28.8109 19.5347C28.928 19.5554 29.0317 19.5751 29.1201 19.5936C29.2066 19.6136 29.3023 19.6278 29.3976 19.6376C29.4984 19.6489 29.6137 19.6547 29.753 19.6547C29.8923 19.6547 30.0666 19.6551 30.2823 19.6551Z" fill="white"/>
<path d="M44.3257 22.8666H39.9653L43.6476 7.37171H48.0378L44.3257 22.8666ZM46.4475 5.48382C45.8389 5.48382 45.2871 5.30267 44.7975 4.93964C44.3039 4.57879 44.0594 4.02334 44.0594 3.27473C44.0594 2.86296 44.1431 2.47664 44.3089 2.11216C44.4774 1.7484 44.6974 1.43521 44.9732 1.16894C45.2485 0.904856 45.5675 0.693873 45.9298 0.534912C46.2943 0.378497 46.6821 0.300293 47.0953 0.300293C47.7035 0.300293 48.2524 0.481444 48.7439 0.844473C49.2335 1.20932 49.4797 1.76477 49.4797 2.50938C49.4797 2.92261 49.3964 3.31037 49.2291 3.67413C49.0629 4.03789 48.8428 4.35107 48.5671 4.61734C48.2939 4.88179 47.972 5.09205 47.6104 5.24955C47.2455 5.40852 46.8592 5.48382 46.4475 5.48382Z" fill="white"/>
<path d="M51.8594 3.51073L56.4263 2.80322L55.3048 7.37054H60.1959L59.3127 10.9637H54.4511L53.1561 16.3837C53.0368 16.8355 52.9692 17.2574 52.9503 17.6496C52.9288 18.0435 52.9786 18.3818 53.0965 18.6666C53.2136 18.9522 53.4242 19.1723 53.7298 19.3279C54.0339 19.4862 54.4693 19.5658 55.0404 19.5658C55.5107 19.5658 55.9691 19.5211 56.4121 19.4323C56.8526 19.345 57.299 19.2235 57.7507 19.0646L58.0759 22.4242C57.4867 22.6403 56.8486 22.8262 56.1611 22.9826C55.4725 23.1412 54.6574 23.2176 53.7152 23.2176C52.3606 23.2176 51.3104 23.0164 50.5622 22.6159C49.815 22.2125 49.2869 21.6614 48.9708 20.9638C48.659 20.2686 48.5197 19.4673 48.5586 18.5644C48.599 17.6594 48.7354 16.7082 48.9708 15.7064L51.8594 3.51073Z" fill="white"/>
<path d="M60.0034 16.6791C60.0034 15.3445 60.2195 14.0859 60.6513 12.9077C61.0823 11.7284 61.7033 10.6972 62.509 9.81214C63.3118 8.93149 64.2899 8.2338 65.4412 7.72163C66.587 7.21237 67.87 6.95557 69.2839 6.95557C70.1689 6.95557 70.9594 7.03923 71.6549 7.20693C72.3533 7.37607 72.9851 7.59469 73.5566 7.86896L72.0528 11.2883C71.66 11.1289 71.2522 10.9885 70.8306 10.8612C70.4087 10.7314 69.8936 10.6688 69.2843 10.6688C67.8289 10.6688 66.6783 11.1704 65.8221 12.1704C64.9691 13.1711 64.5395 14.5181 64.5395 16.2077C64.5395 17.2091 64.7555 18.0188 65.1891 18.6383C65.6205 19.2578 66.4175 19.5659 67.5746 19.5659C68.1457 19.5659 68.6968 19.5063 69.2246 19.3898C69.7564 19.272 70.2261 19.1236 70.6396 18.9482L70.9652 22.4534C70.4138 22.6673 69.8056 22.8604 69.1384 23.0296C68.4698 23.1929 67.6739 23.2777 66.7511 23.2777C65.5329 23.2777 64.5016 23.0994 63.6581 22.7484C62.8142 22.3919 62.1168 21.9187 61.5676 21.3192C61.0154 20.7183 60.6189 20.0166 60.3737 19.2112C60.1286 18.4066 60.0034 17.5612 60.0034 16.6791Z" fill="white"/>
<path d="M79.3738 23.2777C78.3331 23.2777 77.4292 23.1191 76.6624 22.8051C75.8978 22.4912 75.2645 22.0507 74.7636 21.4796C74.262 20.9114 73.8866 20.2381 73.6294 19.4622C73.3722 18.6867 73.2485 17.8279 73.2485 16.8868C73.2485 15.7064 73.4381 14.5264 73.8211 13.3497C74.2023 12.1704 74.7679 11.1108 75.5165 10.169C76.2593 9.22577 77.1756 8.4546 78.2545 7.85331C79.3324 7.25602 80.572 6.95557 81.9645 6.95557C82.9863 6.95557 83.8855 7.11452 84.6628 7.42844C85.4365 7.74164 86.0739 8.18579 86.5777 8.75398C87.076 9.32507 87.4547 9.99548 87.7093 10.7725C87.9657 11.5465 88.0923 12.4075 88.0923 13.3493C88.0923 14.5261 87.9054 15.7061 87.5343 16.8865C87.1629 18.061 86.6118 19.1232 85.8843 20.0672C85.1583 21.0089 84.2503 21.7797 83.1598 22.3785C82.0707 22.9772 80.8077 23.2777 79.3738 23.2777ZM81.5531 10.6692C80.9067 10.6692 80.3352 10.8568 79.846 11.2275C79.3549 11.6025 78.9424 12.074 78.6099 12.6425C78.2738 13.2136 78.0247 13.8364 77.8562 14.5133C77.6893 15.1917 77.6074 15.833 77.6074 16.4423C77.6074 17.4256 77.766 18.1913 78.0778 18.7424C78.3939 19.2905 78.9617 19.5663 79.7871 19.5663C80.4356 19.5663 81.0042 19.38 81.4963 19.0054C81.9845 18.6332 82.3974 18.1614 82.7324 17.5918C83.0663 17.0236 83.3177 16.399 83.4861 15.721C83.6509 15.0448 83.7349 14.3998 83.7349 13.7916C83.7349 12.8109 83.577 12.0434 83.2624 11.4931C82.9481 10.9449 82.3777 10.6692 81.5531 10.6692Z" fill="white"/>
<path d="M92.8435 22.8666H88.4795L92.1618 7.37171H96.5542L92.8435 22.8666ZM94.962 5.48382C94.3538 5.48382 93.8023 5.30267 93.3134 4.93964C92.8224 4.57879 92.5757 4.02334 92.5757 3.27473C92.5757 2.86296 92.6605 2.47664 92.8267 2.11216C92.993 1.7484 93.2145 1.43521 93.4902 1.16894C93.7641 0.904856 94.0861 0.693873 94.4476 0.534912C94.8099 0.378497 95.1977 0.300293 95.6095 0.300293C96.2191 0.300293 96.7698 0.481444 97.2602 0.844473C97.7509 1.20932 97.9986 1.76477 97.9986 2.50938C97.9986 2.92261 97.9106 3.31037 97.7458 3.67413C97.581 4.03789 97.3595 4.35107 97.0849 4.61734C96.8084 4.88179 96.4905 5.09205 96.1282 5.24955C95.763 5.40852 95.3759 5.48382 94.962 5.48382Z" fill="white"/>
<path d="M99.6965 8.07597C100.028 7.97921 100.397 7.86281 100.799 7.73622C101.202 7.60963 101.653 7.49178 102.157 7.38556C102.655 7.27607 103.217 7.18731 103.835 7.11856C104.453 7.04836 105.157 7.01416 105.939 7.01416C108.239 7.01416 109.824 7.68384 110.699 9.01919C111.574 10.3545 111.725 12.182 111.158 14.4984L109.152 22.8648H104.763L106.707 14.6745C106.825 14.1631 106.919 13.6687 106.987 13.1856C107.057 12.7069 107.053 12.285 106.972 11.9198C106.894 11.5589 106.712 11.2636 106.428 11.0348C106.14 10.8096 105.706 10.6965 105.116 10.6965C104.548 10.6965 103.969 10.7576 103.379 10.8754L100.521 22.8645H96.1299L99.6965 8.07597Z" fill="white"/>
</svg>
