<svg width="44" height="44" viewBox="0 0 44 44" fill="none" xmlns="http://www.w3.org/2000/svg">
<circle cx="22" cy="22" r="22" fill="#3468D1"/>
<path fill-rule="evenodd" clip-rule="evenodd" d="M19.5468 15.2513C19.9769 15.2514 20.3973 15.379 20.7549 15.618C21.1124 15.857 21.3911 16.1966 21.5556 16.594C21.7202 16.9913 21.7632 17.4285 21.6792 17.8503C21.5953 18.2721 21.3881 18.6596 21.084 18.9637C20.7799 19.2677 20.3924 19.4748 19.9706 19.5587C19.5488 19.6426 19.1116 19.5995 18.7142 19.4349C18.3169 19.2703 17.9773 18.9916 17.7384 18.634C17.4995 18.2764 17.3719 17.856 17.3719 17.4259C17.372 16.8491 17.6012 16.296 18.0091 15.8882C18.4169 15.4804 18.9701 15.2513 19.5468 15.2513ZM24.7969 15.2513C25.227 15.2514 25.6474 15.3791 26.0049 15.6181C26.3624 15.8571 26.6411 16.1967 26.8056 16.5941C26.9701 16.9914 27.0131 17.4287 26.9291 17.8504C26.8452 18.2722 26.638 18.6596 26.3339 18.9637C26.0297 19.2678 25.6423 19.4748 25.2205 19.5587C24.7986 19.6426 24.3614 19.5995 23.9641 19.4349C23.5668 19.2703 23.2272 18.9916 22.9883 18.634C22.7494 18.2764 22.6218 17.856 22.6218 17.4259C22.6219 16.8491 22.8511 16.296 23.259 15.8882C23.6669 15.4804 24.2201 15.2513 24.7969 15.2513ZM24.7969 24.3995C25.227 24.3996 25.6474 24.5273 26.0049 24.7663C26.3624 25.0053 26.6411 25.3449 26.8056 25.7423C26.9701 26.1397 27.0131 26.5769 26.9291 26.9987C26.8452 27.4205 26.638 27.8079 26.3339 28.1119C26.0297 28.416 25.6423 28.6231 25.2205 28.7069C24.7986 28.7908 24.3614 28.7477 23.9641 28.5831C23.5668 28.4185 23.2272 28.1398 22.9883 27.7822C22.7494 27.4246 22.6218 27.0042 22.6218 26.5741C22.6219 26.2885 22.6781 26.0057 22.7875 25.7418C22.8968 25.478 23.057 25.2383 23.259 25.0363C23.461 24.8344 23.7007 24.6742 23.9646 24.565C24.2285 24.4557 24.5113 24.3995 24.7969 24.3995ZM19.5468 24.3995C19.9769 24.3996 20.3973 24.5272 20.7549 24.7662C21.1124 25.0052 21.3911 25.3448 21.5556 25.7422C21.7202 26.1395 21.7632 26.5768 21.6792 26.9986C21.5953 27.4204 21.3881 27.8078 21.084 28.1119C20.7799 28.416 20.3924 28.623 19.9706 28.7069C19.5488 28.7908 19.1116 28.7477 18.7142 28.5831C18.3169 28.4185 17.9773 28.1398 17.7384 27.7822C17.4995 27.4246 17.3719 27.0042 17.3719 26.5741C17.3719 26.2885 17.4282 26.0057 17.5375 25.7419C17.6468 25.478 17.8071 25.2383 18.009 25.0364C18.211 24.8345 18.4507 24.6743 18.7146 24.565C18.9784 24.4558 19.2612 24.3995 19.5468 24.3995ZM16.8468 19.9004C17.2769 19.9004 17.6973 20.028 18.0549 20.267C18.4124 20.506 18.6911 20.8457 18.8556 21.243C19.0202 21.6404 19.0632 22.0776 18.9792 22.4994C18.8953 22.9212 18.6882 23.3086 18.384 23.6127C18.0799 23.9168 17.6924 24.1239 17.2706 24.2077C16.8488 24.2916 16.4116 24.2485 16.0143 24.0839C15.6169 23.9193 15.2773 23.6406 15.0384 23.283C14.7995 22.9254 14.6719 22.505 14.6719 22.0749C14.672 21.4982 14.9012 20.9451 15.3091 20.5373C15.7169 20.1295 16.2701 19.9004 16.8468 19.9004ZM27.4969 19.9004C27.927 19.9005 28.3474 20.0281 28.7049 20.2671C29.0624 20.5061 29.3411 20.8458 29.5056 21.2431C29.6701 21.6405 29.7131 22.0777 29.6291 22.4995C29.5451 22.9213 29.338 23.3087 29.0339 23.6128C28.7297 23.9168 28.3422 24.1239 27.9204 24.2078C27.4986 24.2916 27.0614 24.2485 26.6641 24.0839C26.2668 23.9193 25.9272 23.6406 25.6883 23.283C25.4494 22.9254 25.3218 22.505 25.3218 22.0749C25.3219 21.7893 25.3781 21.5065 25.4875 21.2427C25.5968 20.9788 25.757 20.7391 25.959 20.5372C26.161 20.3352 26.4007 20.1751 26.6646 20.0658C26.9285 19.9565 27.2113 19.9003 27.4969 19.9004ZM29.9719 16.1513C30.2388 16.1513 30.4998 16.2306 30.7217 16.3789C30.9436 16.5273 31.1166 16.7381 31.2187 16.9847C31.3208 17.2314 31.3474 17.5027 31.2953 17.7645C31.2432 18.0263 31.1146 18.2668 30.9258 18.4555C30.7371 18.6443 30.4966 18.7728 30.2348 18.8248C29.9729 18.8769 29.7016 18.8501 29.455 18.748C29.2084 18.6458 28.9976 18.4728 28.8493 18.2508C28.701 18.0289 28.6218 17.7679 28.6218 17.501C28.6218 17.3237 28.6568 17.1482 28.7246 16.9844C28.7925 16.8206 28.8919 16.6718 29.0173 16.5465C29.1426 16.4211 29.2915 16.3217 29.4553 16.2539C29.6191 16.1861 29.7946 16.1512 29.9719 16.1513ZM29.9719 25.1493C30.2388 25.1493 30.4998 25.2286 30.7217 25.3769C30.9436 25.5253 31.1166 25.7361 31.2187 25.9827C31.3208 26.2294 31.3474 26.5007 31.2953 26.7625C31.2432 27.0243 31.1146 27.2648 30.9258 27.4535C30.7371 27.6423 30.4966 27.7708 30.2348 27.8228C29.9729 27.8749 29.7016 27.8481 29.455 27.746C29.2084 27.6438 28.9976 27.4708 28.8493 27.2488C28.701 27.0269 28.6218 26.7659 28.6218 26.499C28.6218 26.3217 28.6568 26.1462 28.7246 25.9824C28.7925 25.8186 28.8919 25.6698 29.0173 25.5445C29.1426 25.4191 29.2915 25.3197 29.4553 25.2519C29.6191 25.1841 29.7946 25.1492 29.9719 25.1493ZM14.3718 25.1493C14.6388 25.1493 14.8997 25.2285 15.1217 25.3768C15.3436 25.5252 15.5166 25.736 15.6187 25.9826C15.7208 26.2292 15.7476 26.5006 15.6955 26.7624C15.6434 27.0242 15.5148 27.2647 15.326 27.4535C15.1372 27.6422 14.8967 27.7707 14.6349 27.8228C14.3731 27.8749 14.1017 27.8481 13.8551 27.746C13.6085 27.6438 13.3977 27.4708 13.2494 27.2489C13.1011 27.0269 13.0219 26.7659 13.0219 26.499C13.022 26.141 13.1642 25.7977 13.4174 25.5446C13.6705 25.2915 14.0139 25.1493 14.3718 25.1493ZM14.3718 16.1513C14.6388 16.1513 14.8997 16.2305 15.1217 16.3788C15.3436 16.5272 15.5166 16.738 15.6187 16.9846C15.7208 17.2312 15.7476 17.5026 15.6955 17.7644C15.6434 18.0262 15.5148 18.2667 15.326 18.4555C15.1372 18.6442 14.8967 18.7727 14.6349 18.8248C14.3731 18.8769 14.1017 18.8501 13.8551 18.748C13.6085 18.6458 13.3977 18.4728 13.2494 18.2509C13.1011 18.0289 13.0219 17.7679 13.0219 17.501C13.022 17.143 13.1642 16.7997 13.4174 16.5466C13.6705 16.2935 14.0139 16.1513 14.3718 16.1513ZM22.1719 11.6521C22.4388 11.6522 22.6997 11.7314 22.9217 11.8797C23.1436 12.0281 23.3165 12.2389 23.4186 12.4855C23.5207 12.7322 23.5474 13.0036 23.4953 13.2654C23.4432 13.5272 23.3146 13.7676 23.1258 13.9564C22.937 14.1451 22.6965 14.2736 22.4347 14.3257C22.1729 14.3777 21.9015 14.351 21.6549 14.2488C21.4083 14.1466 21.1975 13.9736 21.0492 13.7517C20.9009 13.5297 20.8218 13.2688 20.8218 13.0018C20.8218 12.8245 20.8567 12.649 20.9246 12.4852C20.9924 12.3214 21.0919 12.1726 21.2172 12.0473C21.3426 11.922 21.4915 11.8225 21.6552 11.7547C21.819 11.6869 21.9946 11.652 22.1719 11.6521ZM22.1719 29.6484C22.4388 29.6485 22.6997 29.7277 22.9217 29.8761C23.1436 30.0244 23.3165 30.2353 23.4186 30.4819C23.5207 30.7285 23.5474 30.9999 23.4953 31.2617C23.4432 31.5235 23.3146 31.764 23.1258 31.9527C22.937 32.1414 22.6965 32.2699 22.4347 32.322C22.1729 32.374 21.9015 32.3473 21.6549 32.2451C21.4083 32.143 21.1975 31.97 21.0492 31.748C20.9009 31.5261 20.8218 31.2651 20.8218 30.9982C20.8218 30.8209 20.8567 30.6454 20.9246 30.4816C20.9924 30.3178 21.0919 30.169 21.2172 30.0436C21.3426 29.9183 21.4915 29.8189 21.6552 29.7511C21.819 29.6833 21.9946 29.6484 22.1719 29.6484ZM27.9469 30.9982C28.1693 30.9982 28.3867 31.0643 28.5717 31.1879C28.7566 31.3115 28.9007 31.4872 28.9858 31.6927C29.0708 31.8983 29.0931 32.1244 29.0496 32.3426C29.0062 32.5607 28.899 32.7611 28.7417 32.9184C28.5844 33.0756 28.384 33.1827 28.1658 33.2261C27.9477 33.2695 27.7215 33.2472 27.516 33.162C27.3105 33.0769 27.1349 32.9327 27.0113 32.7478C26.8877 32.5628 26.8218 32.3454 26.8218 32.1229C26.8218 31.9752 26.8509 31.8289 26.9074 31.6924C26.964 31.5559 27.0469 31.4319 27.1513 31.3275C27.2558 31.223 27.3798 31.1402 27.5163 31.0837C27.6528 31.0272 27.7991 30.9981 27.9469 30.9982ZM16.3969 30.9982C16.6193 30.9982 16.8367 31.0643 17.0217 31.1879C17.2066 31.3115 17.3507 31.4872 17.4358 31.6927C17.5208 31.8983 17.5431 32.1244 17.4996 32.3426C17.4562 32.5607 17.349 32.7611 17.1917 32.9184C17.0344 33.0756 16.834 33.1827 16.6158 33.2261C16.3977 33.2695 16.1715 33.2472 15.966 33.162C15.7605 33.0769 15.5849 32.9327 15.4613 32.7478C15.3377 32.5628 15.2718 32.3454 15.2718 32.1229C15.2718 31.9752 15.3009 31.8289 15.3574 31.6924C15.414 31.5559 15.4969 31.4319 15.6013 31.3275C15.7058 31.223 15.8298 31.1402 15.9663 31.0837C16.1028 31.0272 16.2491 30.9981 16.3969 30.9982ZM16.3969 10.7523C16.6193 10.7524 16.8367 10.8184 17.0217 10.9421C17.2066 11.0657 17.3507 11.2414 17.4358 11.4469C17.5208 11.6524 17.5431 11.8786 17.4996 12.0967C17.4562 12.3149 17.349 12.5153 17.1917 12.6725C17.0344 12.8298 16.834 12.9369 16.6158 12.9802C16.3977 13.0236 16.1715 13.0013 15.966 12.9162C15.7605 12.831 15.5849 12.6869 15.4613 12.5019C15.3377 12.317 15.2718 12.0995 15.2718 11.8771C15.2718 11.7293 15.3009 11.5831 15.3574 11.4466C15.414 11.3101 15.4969 11.1861 15.6013 11.0816C15.7058 10.9772 15.8298 10.8944 15.9663 10.8378C16.1028 10.7813 16.2491 10.7523 16.3969 10.7523ZM27.9469 10.7523C28.1693 10.7524 28.3867 10.8184 28.5717 10.9421C28.7566 11.0657 28.9007 11.2414 28.9858 11.4469C29.0708 11.6524 29.0931 11.8786 29.0496 12.0967C29.0062 12.3149 28.899 12.5153 28.7417 12.6725C28.5844 12.8298 28.384 12.9369 28.1658 12.9802C27.9477 13.0236 27.7215 13.0013 27.516 12.9162C27.3105 12.831 27.1349 12.6869 27.0113 12.5019C26.8877 12.317 26.8218 12.0995 26.8218 11.8771C26.8218 11.7293 26.8509 11.5831 26.9074 11.4466C26.964 11.3101 27.0469 11.1861 27.1513 11.0816C27.2558 10.9772 27.3798 10.8944 27.5163 10.8378C27.6528 10.7813 27.7991 10.7523 27.9469 10.7523ZM33.7968 20.8003C34.0193 20.8004 34.2367 20.8663 34.4216 20.99C34.6066 21.1136 34.7507 21.2892 34.8358 21.4948C34.9209 21.7003 34.9432 21.9264 34.8998 22.1446C34.8563 22.3628 34.7492 22.5632 34.5919 22.7204C34.4346 22.8777 34.2342 22.9848 34.016 23.0282C33.7978 23.0716 33.5717 23.0493 33.3662 22.9642C33.1607 22.879 32.985 22.7349 32.8614 22.5499C32.7379 22.365 32.6719 22.1475 32.6719 21.9251C32.6719 21.6267 32.7905 21.3407 33.0014 21.1297C33.2124 20.9188 33.4985 20.8003 33.7968 20.8003ZM10.5468 20.8003C10.7692 20.8004 10.9867 20.8663 11.1716 20.99C11.3565 21.1136 11.5007 21.2892 11.5858 21.4948C11.6709 21.7003 11.6931 21.9264 11.6497 22.1446C11.6063 22.3628 11.4992 22.5632 11.3419 22.7204C11.1845 22.8777 10.9841 22.9848 10.766 23.0282C10.5478 23.0716 10.3216 23.0493 10.1161 22.9642C9.91062 22.879 9.73497 22.7349 9.61139 22.5499C9.4878 22.365 9.42184 22.1475 9.42184 21.9251C9.42184 21.7773 9.45094 21.6311 9.50748 21.4946C9.56401 21.3581 9.64688 21.2341 9.75134 21.1297C9.8558 21.0252 9.97981 20.9424 10.1163 20.8859C10.2528 20.8294 10.399 20.8003 10.5468 20.8003ZM9.72177 13.9016C9.89976 13.9016 10.0738 13.9544 10.2218 14.0533C10.3698 14.1522 10.4851 14.2927 10.5532 14.4572C10.6213 14.6216 10.6391 14.8026 10.6044 14.9772C10.5697 15.1517 10.4839 15.3121 10.3581 15.4379C10.2322 15.5638 10.0718 15.6495 9.89723 15.6842C9.72265 15.7189 9.5417 15.7011 9.37726 15.6329C9.21282 15.5648 9.07228 15.4494 8.97341 15.3014C8.87455 15.1534 8.82179 14.9794 8.82183 14.8014C8.82187 14.5627 8.91671 14.3339 9.08548 14.1651C9.25424 13.9964 9.48312 13.9016 9.72177 13.9016ZM9.72177 28.2987C9.89976 28.2987 10.0738 28.3515 10.2218 28.4504C10.3698 28.5493 10.4851 28.6898 10.5532 28.8543C10.6213 29.0187 10.6391 29.1997 10.6044 29.3743C10.5697 29.5488 10.4839 29.7092 10.3581 29.8351C10.2322 29.9609 10.0718 30.0466 9.89723 30.0813C9.72265 30.116 9.5417 30.0982 9.37726 30.03C9.21282 29.9619 9.07228 29.8465 8.97341 29.6985C8.87455 29.5505 8.82179 29.3765 8.82183 29.1985C8.82187 28.9598 8.91671 28.731 9.08548 28.5622C9.25424 28.3935 9.48312 28.2987 9.72177 28.2987ZM34.6218 28.2987C34.7998 28.2987 34.9738 28.3515 35.1218 28.4504C35.2698 28.5493 35.3852 28.6898 35.4533 28.8543C35.5214 29.0187 35.5392 29.1997 35.5044 29.3743C35.4697 29.5488 35.384 29.7092 35.2581 29.8351C35.1322 29.9609 34.9719 30.0466 34.7973 30.0813C34.6227 30.116 34.4417 30.0982 34.2773 30.03C34.1129 29.9619 33.9723 29.8465 33.8735 29.6985C33.7746 29.5505 33.7218 29.3765 33.7219 29.1985C33.7219 28.9598 33.8168 28.731 33.9855 28.5622C34.1543 28.3935 34.3832 28.2987 34.6218 28.2987ZM34.6218 13.9016C34.7998 13.9016 34.9738 13.9544 35.1218 14.0533C35.2698 14.1522 35.3852 14.2927 35.4533 14.4572C35.5214 14.6216 35.5392 14.8026 35.5044 14.9772C35.4697 15.1517 35.384 15.3121 35.2581 15.4379C35.1322 15.5638 34.9719 15.6495 34.7973 15.6842C34.6227 15.7189 34.4417 15.7011 34.2773 15.6329C34.1129 15.5648 33.9723 15.4494 33.8735 15.3014C33.7746 15.1534 33.7218 14.9794 33.7219 14.8014C33.7219 14.5627 33.8168 14.3339 33.9855 14.1651C34.1543 13.9964 34.3832 13.9016 34.6218 13.9016ZM22.1719 6.70313C22.3499 6.70316 22.5238 6.75598 22.6718 6.85489C22.8198 6.9538 22.9351 7.09438 23.0032 7.25883C23.0713 7.42329 23.0891 7.60424 23.0543 7.7788C23.0196 7.95337 22.9338 8.11371 22.8079 8.23954C22.6821 8.36538 22.5217 8.45105 22.3471 8.48574C22.1725 8.52043 21.9916 8.50258 21.8272 8.43443C21.6627 8.36629 21.5222 8.25091 21.4233 8.10289C21.3245 7.95488 21.2717 7.78088 21.2718 7.60289C21.2718 7.4847 21.2951 7.36767 21.3403 7.25849C21.3855 7.1493 21.4518 7.05009 21.5354 6.96654C21.619 6.88298 21.7182 6.81671 21.8274 6.77151C21.9366 6.72631 22.0537 6.70308 22.1719 6.70313ZM22.1719 35.4972C22.3499 35.4972 22.5238 35.55 22.6718 35.6489C22.8198 35.7478 22.9351 35.8884 23.0032 36.0528C23.0713 36.2173 23.0891 36.3982 23.0543 36.5728C23.0196 36.7473 22.9339 36.9077 22.808 37.0335C22.6821 37.1594 22.5218 37.2451 22.3472 37.2798C22.1726 37.3145 21.9917 37.2966 21.8273 37.2285C21.6628 37.1604 21.5223 37.0451 21.4234 36.8971C21.3245 36.7491 21.2718 36.5751 21.2718 36.3971C21.2718 36.2789 21.295 36.1619 21.3403 36.0527C21.3855 35.9435 21.4518 35.8443 21.5354 35.7607C21.619 35.6771 21.7182 35.6108 21.8274 35.5656C21.9366 35.5204 22.0537 35.4971 22.1719 35.4972ZM30.1218 34.8973C30.2701 34.8973 30.4151 34.9413 30.5384 35.0237C30.6617 35.1061 30.7578 35.2232 30.8146 35.3602C30.8713 35.4973 30.8862 35.6481 30.8573 35.7935C30.8283 35.939 30.7569 36.0726 30.652 36.1775C30.5472 36.2823 30.4135 36.3538 30.2681 36.3827C30.1226 36.4116 29.9718 36.3968 29.8348 36.34C29.6978 36.2833 29.5807 36.1872 29.4983 36.0638C29.4159 35.9405 29.3719 35.7955 29.3719 35.6472C29.3719 35.5487 29.3913 35.4512 29.429 35.3602C29.4667 35.2693 29.5219 35.1866 29.5915 35.117C29.6612 35.0473 29.7438 34.9921 29.8348 34.9544C29.9258 34.9167 30.0233 34.8973 30.1218 34.8973ZM14.2218 34.8973C14.3701 34.8973 14.5151 34.9413 14.6384 35.0237C14.7617 35.1061 14.8578 35.2232 14.9146 35.3602C14.9714 35.4973 14.9862 35.6481 14.9573 35.7935C14.9283 35.939 14.8569 36.0726 14.7521 36.1775C14.6472 36.2823 14.5136 36.3538 14.3681 36.3827C14.2226 36.4116 14.0719 36.3968 13.9348 36.34C13.7978 36.2833 13.6807 36.1872 13.5983 36.0638C13.5159 35.9405 13.4719 35.7955 13.4719 35.6472C13.4719 35.5487 13.4913 35.4512 13.529 35.3602C13.5667 35.2693 13.6219 35.1866 13.6915 35.117C13.7612 35.0473 13.8438 34.9921 13.9348 34.9544C14.0258 34.9167 14.1233 34.8973 14.2218 34.8973ZM14.2218 7.60358C14.3701 7.60358 14.5151 7.64756 14.6384 7.72996C14.7617 7.81236 14.8578 7.92948 14.9146 8.0665C14.9714 8.20353 14.9862 8.3543 14.9573 8.49977C14.9283 8.64523 14.8569 8.77885 14.7521 8.88373C14.6472 8.9886 14.5136 9.06002 14.3681 9.08895C14.2226 9.11788 14.0719 9.10303 13.9348 9.04628C13.7978 8.98952 13.6807 8.8934 13.5983 8.77008C13.5159 8.64676 13.4719 8.50178 13.4719 8.35347C13.4718 8.25493 13.4911 8.15735 13.5288 8.06629C13.5664 7.97523 13.6217 7.89247 13.6913 7.82277C13.7609 7.75306 13.8436 7.69777 13.9347 7.66004C14.0257 7.62231 14.1233 7.60289 14.2218 7.60289V7.60358ZM30.1218 7.60358C30.2701 7.60358 30.4151 7.64756 30.5384 7.72996C30.6617 7.81236 30.7578 7.92948 30.8146 8.0665C30.8713 8.20353 30.8862 8.3543 30.8573 8.49977C30.8283 8.64523 30.7569 8.77885 30.652 8.88373C30.5472 8.9886 30.4135 9.06002 30.2681 9.08895C30.1226 9.11788 29.9718 9.10303 29.8348 9.04628C29.6978 8.98952 29.5807 8.8934 29.4983 8.77008C29.4159 8.64676 29.3719 8.50178 29.3719 8.35347C29.3718 8.25493 29.3911 8.15735 29.4288 8.06629C29.4664 7.97523 29.5216 7.89247 29.5913 7.82277C29.6609 7.75306 29.7436 7.69777 29.8347 7.66004C29.9257 7.62231 30.0232 7.60289 30.1218 7.60289V7.60358ZM37.9218 21.2504C38.0701 21.2504 38.2151 21.2944 38.3385 21.3769C38.4618 21.4593 38.5579 21.5764 38.6147 21.7135C38.6714 21.8505 38.6862 22.0013 38.6573 22.1468C38.6283 22.2922 38.5569 22.4259 38.4519 22.5307C38.347 22.6356 38.2134 22.707 38.0679 22.7359C37.9224 22.7648 37.7716 22.7499 37.6346 22.693C37.4976 22.6362 37.3805 22.5401 37.2981 22.4167C37.2158 22.2933 37.1719 22.1483 37.1719 22C37.1719 21.9015 37.1913 21.804 37.229 21.713C37.2667 21.622 37.3219 21.5394 37.3916 21.4698C37.4612 21.4001 37.5439 21.3449 37.6348 21.3072C37.7258 21.2695 37.8233 21.2501 37.9218 21.2501V21.2504ZM6.42177 21.2504C6.5701 21.2504 6.71509 21.2944 6.83842 21.3769C6.96174 21.4593 7.05786 21.5764 7.11461 21.7135C7.17135 21.8505 7.18618 22.0013 7.15722 22.1468C7.12826 22.2922 7.05681 22.4259 6.9519 22.5307C6.84699 22.6356 6.71334 22.707 6.56785 22.7359C6.42236 22.7648 6.27158 22.7499 6.13456 22.693C5.99754 22.6362 5.88045 22.5401 5.79809 22.4167C5.71573 22.2933 5.67181 22.1483 5.67188 22C5.67188 21.9015 5.69127 21.804 5.72896 21.713C5.76664 21.622 5.82188 21.5394 5.89151 21.4698C5.96115 21.4001 6.04382 21.3449 6.1348 21.3072C6.22578 21.2695 6.32329 21.2501 6.42177 21.2501V21.2504Z" fill="white"/>
</svg>
