<svg width="136" height="28" viewBox="0 0 136 28" fill="none" xmlns="http://www.w3.org/2000/svg">
<path d="M8.11239 13.8729C8.0526 14.969 8.88964 15.9057 9.98576 15.9854H10.0854C11.1815 15.9854 12.0784 15.0886 12.0784 13.9925C12.0784 12.8963 11.1815 11.9995 10.0854 11.9995C9.02914 11.9995 8.17218 12.8166 8.11239 13.8729Z" fill="#3265CA"/>
<path d="M0.678609 13.3545C0.319878 13.3346 0.020935 13.6136 0.00100552 13.9524C-0.018924 14.3111 0.260089 14.6101 0.598891 14.63C0.957622 14.6499 1.25657 14.3709 1.27649 14.0321C1.31635 13.6933 1.03734 13.3745 0.678609 13.3545Z" fill="#3265CA"/>
<path d="M7.99262 2.31363C8.31149 2.15419 8.43107 1.7556 8.27163 1.43673C8.1122 1.11786 7.71361 0.998279 7.39474 1.15772C7.07586 1.31715 6.95629 1.69581 7.11572 2.01468C7.27516 2.35349 7.65382 2.47306 7.99262 2.31363C7.97269 2.31363 7.97269 2.31363 7.99262 2.31363Z" fill="#3265CA"/>
<path d="M10.0057 5.84108C10.5039 5.60192 10.6833 5.00404 10.4441 4.5058C10.2049 4.00756 9.60706 3.82819 9.10883 4.06735C8.61059 4.3065 8.43122 4.90439 8.67038 5.40263C8.90953 5.88093 9.50742 6.08023 10.0057 5.84108Z" fill="#3265CA"/>
<path d="M3.20983 8.25255C3.58849 8.49171 4.08673 8.39206 4.34582 8.0134C4.58497 7.63474 4.48532 7.1365 4.10666 6.87742C3.728 6.63826 3.22976 6.73791 2.97068 7.11657C2.73153 7.49523 2.83117 8.0134 3.20983 8.25255Z" fill="#3265CA"/>
<path d="M4.4251 12.9958C3.86708 12.9559 3.4087 13.3744 3.36884 13.9325C3.32898 14.4905 3.7475 14.9489 4.30552 14.9887C4.84362 15.0286 5.32193 14.6101 5.36179 14.0521C5.38172 13.494 4.9632 13.0356 4.4251 12.9958Z" fill="#3265CA"/>
<path d="M3.30928 19.6922C2.91069 19.8915 2.75125 20.3897 2.95055 20.7883C3.14984 21.1869 3.64808 21.3464 4.04667 21.1471C4.44526 20.9478 4.60469 20.4495 4.4054 20.0509C4.2061 19.6524 3.7278 19.473 3.30928 19.6922Z" fill="#3265CA"/>
<path d="M7.17583 10.9429C7.71393 11.3017 8.45132 11.1422 8.79012 10.6042C9.14885 10.0661 8.98942 9.32866 8.45132 8.98986C7.91322 8.63113 7.17583 8.79057 6.83703 9.32866C6.4783 9.86676 6.63773 10.5842 7.17583 10.9429Z" fill="#3265CA"/>
<path d="M19.4522 5.76138C19.9105 6.06032 20.5284 5.94074 20.8273 5.46243C21.1262 5.00405 21.0067 4.38624 20.5284 4.0873C20.07 3.78836 19.4522 3.90793 19.1532 4.38624C18.8543 4.84462 18.9739 5.46243 19.4522 5.76138C19.4322 5.76138 19.4322 5.76138 19.4522 5.76138Z" fill="#3265CA"/>
<path d="M21.4848 2.25372C21.7838 2.45302 22.1824 2.3733 22.3817 2.07436C22.5809 1.77542 22.5012 1.37682 22.2023 1.17753C21.9033 0.978235 21.5048 1.05795 21.3055 1.35689C21.1062 1.65584 21.1859 2.05443 21.4848 2.25372Z" fill="#3265CA"/>
<path d="M19.5917 11.9791C18.4956 11.9193 17.5589 12.7563 17.4991 13.8525C17.4393 14.9486 18.2764 15.8853 19.3725 15.9451C19.4123 15.9451 19.4522 15.9451 19.4921 15.9451C20.5882 15.9451 21.485 15.0482 21.485 13.9521C21.485 13.4539 21.3056 12.9955 20.9868 12.6368C20.628 12.2382 20.1298 11.999 19.5917 11.9791Z" fill="#3265CA"/>
<path d="M10.6636 10.8034C11.0024 11.481 11.6999 11.8995 12.4373 11.8995C13.5334 11.8995 14.4302 11.0026 14.4302 9.90653C14.4302 9.58765 14.3505 9.28871 14.211 9.0097C13.8722 8.33209 13.1747 7.91357 12.4373 7.91357C11.3412 7.91357 10.4443 8.8104 10.4443 9.90653C10.4443 10.2254 10.5241 10.5243 10.6636 10.8034Z" fill="#3265CA"/>
<path d="M26.2679 8.25257C26.6664 8.05327 26.8259 7.55503 26.6266 7.15644C26.4273 6.75785 25.9291 6.59842 25.5305 6.79771C25.1319 6.99701 24.9724 7.49525 25.1717 7.89384C25.371 8.29243 25.8693 8.45186 26.2679 8.25257Z" fill="#3265CA"/>
<path d="M21.226 8.89043C20.648 9.18937 20.4089 9.8869 20.7078 10.4649C21.0068 11.0428 21.7043 11.282 22.2822 10.983C22.8602 10.6841 23.0994 9.98655 22.8004 9.4086C22.5015 8.83064 21.8039 8.59149 21.226 8.89043Z" fill="#3265CA"/>
<path d="M14.7092 1.93486C15.1676 1.95479 15.5462 1.61599 15.5662 1.15761C15.5861 0.699231 15.2473 0.32057 14.7889 0.30064C14.3305 0.280711 13.9519 0.619514 13.9319 1.07789C13.912 1.53627 14.2707 1.91493 14.7092 1.93486Z" fill="#3265CA"/>
<path d="M14.7092 7.09668C15.3469 7.13654 15.905 6.6383 15.9448 6.00056C15.9847 5.36282 15.4864 4.80479 14.8487 4.76493C14.211 4.72507 13.6529 5.22331 13.6131 5.86105C13.5732 6.51872 14.0715 7.05682 14.7092 7.09668Z" fill="#3265CA"/>
<path d="M8.3716 19.0543C8.94956 18.7554 9.18871 18.0578 8.88977 17.4799C8.59082 16.9019 7.89329 16.6628 7.31534 16.9617C6.73738 17.2607 6.49823 17.9582 6.79717 18.5361C7.07618 19.1141 7.79364 19.3333 8.3716 19.0543Z" fill="#3265CA"/>
<path d="M15.4664 8.8104C14.8685 9.72716 15.1276 10.9628 16.0444 11.5607C16.9611 12.1586 18.1967 11.8995 18.7946 10.9827C19.3925 10.066 19.1334 8.83033 18.2167 8.23245C17.8978 8.01322 17.5191 7.91357 17.1205 7.91357C16.4629 7.91357 15.8251 8.25238 15.4664 8.8104Z" fill="#3265CA"/>
<path d="M18.9338 17.1412C18.4356 16.1647 17.2398 15.7661 16.2633 16.2643C15.2867 16.7626 14.8881 17.9583 15.3864 18.9349C15.7252 19.6125 16.4028 20.031 17.1601 20.031C17.479 20.031 17.7779 19.9513 18.0569 19.8118C19.0335 19.3135 19.4121 18.1178 18.9338 17.1412Z" fill="#3265CA"/>
<path d="M22.402 17.0016C21.8639 16.6428 21.1265 16.8023 20.7877 17.3404C20.429 17.8785 20.5884 18.6159 21.1265 18.9547C21.6646 19.3134 22.402 19.154 22.7408 18.6159C23.0995 18.0778 22.9401 17.3404 22.402 17.0016Z" fill="#3265CA"/>
<path d="M26.2085 14.012C26.2483 13.454 25.8298 12.9956 25.2718 12.9558C24.7138 12.9159 24.2554 13.3344 24.2155 13.8924C24.1757 14.4305 24.5942 14.9088 25.1522 14.9487C25.7102 14.9686 26.1885 14.5501 26.2085 14.012Z" fill="#3265CA"/>
<path d="M28.9784 13.2945C28.6197 13.2745 28.3207 13.5535 28.3008 13.8923C28.2809 14.2511 28.5599 14.55 28.8987 14.57C29.2574 14.5899 29.5564 14.3109 29.5763 13.9721C29.5962 13.6133 29.3371 13.3144 28.9784 13.2945Z" fill="#3265CA"/>
<path d="M26.3874 19.6723C26.0088 19.4332 25.5105 19.5328 25.2514 19.9115C25.0123 20.2902 25.1119 20.7884 25.4906 21.0475C25.8693 21.2866 26.3675 21.187 26.6266 20.8083C26.8657 20.4297 26.7661 19.9314 26.3874 19.6723Z" fill="#3265CA"/>
<path d="M8.09242 25.6907C7.79348 25.4914 7.39489 25.5711 7.1956 25.8701C6.9963 26.169 7.07602 26.5676 7.37496 26.7669C7.6739 26.9662 8.07249 26.8865 8.27179 26.5875C8.49101 26.2886 8.39137 25.89 8.09242 25.6907Z" fill="#3265CA"/>
<path d="M21.6047 25.6309C21.2858 25.7903 21.1662 26.169 21.3257 26.4878C21.4851 26.8067 21.8638 26.9263 22.1827 26.7668C22.5015 26.6074 22.6211 26.2287 22.4617 25.9099C22.3022 25.591 21.9236 25.4714 21.6047 25.6309Z" fill="#3265CA"/>
<path d="M14.111 19.1342C14.7089 18.2174 14.4498 16.9818 13.5331 16.3839C12.6163 15.786 11.3807 16.0451 10.7828 16.9618C10.1849 17.8786 10.444 19.1142 11.3608 19.7121C11.6796 19.9313 12.0583 20.031 12.4569 20.031C13.1345 20.031 13.7523 19.6922 14.111 19.1342Z" fill="#3265CA"/>
<path d="M10.1451 22.183C9.68669 21.8841 9.06888 22.0037 8.76994 22.462C8.47099 22.9204 8.59057 23.5382 9.04895 23.8372C9.50733 24.1361 10.1251 24.0165 10.4241 23.5582C10.723 23.0998 10.6035 22.482 10.1451 22.183Z" fill="#3265CA"/>
<path d="M14.7885 25.9901C14.3301 25.9702 13.9514 26.309 13.9315 26.7673C13.9116 27.2257 14.2504 27.6044 14.7087 27.6243C15.1671 27.6442 15.5458 27.3054 15.5657 26.8471C15.5856 26.4086 15.2269 26.03 14.7885 25.9901Z" fill="#3265CA"/>
<path d="M14.7886 20.8479C14.1509 20.8081 13.5929 21.3063 13.553 21.9441C13.5132 22.5818 14.0114 23.1398 14.6491 23.1797C15.2869 23.2196 15.8449 22.7213 15.8848 22.0836C15.9246 21.4259 15.4264 20.8878 14.7886 20.8479Z" fill="#3265CA"/>
<path d="M19.5717 22.1035C19.0735 22.3426 18.8941 22.9605 19.1333 23.4388C19.3724 23.937 19.9902 24.1164 20.4685 23.8772C20.9469 23.6381 21.1461 23.0202 20.907 22.5419C20.6678 22.0437 20.07 21.8643 19.5717 22.1035Z" fill="#3265CA"/>
<path d="M41.5539 9.26887C43.4871 9.26887 44.8224 10.3251 44.8224 12.2982H47.3534C47.3534 8.85035 44.8024 7.17627 41.5141 7.17627C37.4684 7.17627 35.1167 9.36852 35.1167 14.0121C35.1167 18.7752 37.4684 20.8479 41.5141 20.8479C44.8423 20.8479 47.3534 19.2336 47.3534 15.7858H44.922C44.922 17.719 43.5867 18.7752 41.5539 18.7752C38.8634 18.7752 37.6278 17.2805 37.6278 14.2114V13.8327C37.6278 10.8034 38.8834 9.26887 41.5539 9.26887Z" fill="white"/>
<path d="M54.03 7.41544L48.8882 20.6486H51.4392L52.4954 17.7589H58.554L59.6501 20.6287H62.3207L57.1789 7.39551H54.03V7.41544ZM53.2527 15.6862L54.608 12.059C54.887 11.3416 55.3653 9.80698 55.4649 9.52797H55.5646C55.6642 9.80698 56.1425 11.3615 56.4215 12.059L57.7767 15.6862H53.2527Z" fill="white"/>
<path d="M76.052 11.4214C76.052 8.97003 74.637 7.41553 71.7273 7.41553H64.752V20.6487H67.2232V15.5268H71.3287L73.8398 20.6487H76.5303L73.7003 15.1482C75.2548 14.5304 76.052 13.215 76.052 11.4214ZM71.5479 13.4542H67.2232V9.52806H71.5479C72.8832 9.52806 73.5807 10.2455 73.5807 11.4413C73.5608 12.6769 72.8234 13.4542 71.5479 13.4542Z" fill="white"/>
<path d="M84.7213 7.41553H79.4399V20.6487H84.7213C88.7072 20.6487 91.1386 18.5761 91.1386 14.0321C91.1386 9.48819 88.7072 7.41553 84.7213 7.41553ZM88.6075 14.2115C88.5876 17.1013 87.2125 18.5362 84.7213 18.5362H81.9112V9.50813H84.7213C87.2324 9.50813 88.6075 10.943 88.6075 13.8328V14.2115Z" fill="white"/>
<path d="M97.5959 7.41553L92.4541 20.6487H95.0051L96.0613 17.7789H102.12L103.196 20.6487H105.867L100.725 7.41553H97.5959ZM96.8187 15.6863L98.1739 12.0591C98.4529 11.3416 98.9312 9.80707 99.0308 9.52806H99.1305C99.2301 9.80707 99.7084 11.3616 99.9875 12.0591L101.343 15.6863H96.8187Z" fill="white"/>
<path d="M117.127 15.2877C117.127 15.5468 117.167 16.2044 117.167 16.324L117.067 16.3639C117.007 16.2842 116.628 15.6066 116.409 15.3076L110.67 7.41553H108.318V20.6487H110.689V12.7168C110.689 12.3979 110.65 11.7602 110.65 11.6605L110.749 11.6007C110.809 11.6804 111.088 12.2385 111.407 12.6769L117.187 20.6487H119.498V7.41553H117.127V15.2877Z" fill="white"/>
<path d="M129.323 7.17627C125.178 7.17627 122.667 9.36852 122.667 14.0121C122.667 18.6557 125.178 20.8479 129.323 20.8479C133.469 20.8479 136 18.6557 136 14.0121C136 9.38845 133.469 7.17627 129.323 7.17627ZM133.469 14.2313C133.469 17.2606 132.014 18.7752 129.323 18.7752C126.653 18.7752 125.198 17.2606 125.198 14.2313V13.8327C125.198 10.8034 126.673 9.26887 129.323 9.26887C132.014 9.26887 133.469 10.8034 133.469 13.8327V14.2313Z" fill="white"/>
</svg>
