<svg width="43" height="43" viewBox="0 0 43 43" fill="none" xmlns="http://www.w3.org/2000/svg">
<path d="M21.2953 42.5906C33.0564 42.5906 42.5906 33.0564 42.5906 21.2953C42.5906 9.53423 33.0564 0 21.2953 0C9.53423 0 0 9.53423 0 21.2953C0 33.0564 9.53423 42.5906 21.2953 42.5906Z" fill="#7A6A2A"/>
<path fill-rule="evenodd" clip-rule="evenodd" d="M8.61854 18.946C8.49393 18.8322 8.36228 18.7182 8.24119 18.6043C8.1201 18.4905 7.99573 18.3765 7.87112 18.2627L7.50082 17.9107C7.44028 17.8501 7.37621 17.7969 7.31567 17.7361C7.25512 17.6828 7.18402 17.6223 7.12347 17.5688C6.63208 17.1025 6.13787 16.6362 5.65329 16.1697C6.15524 16.6289 6.64663 17.0849 7.14858 17.5509L7.32294 17.7255C7.38349 17.7858 7.44755 17.8393 7.50809 17.8999L7.87816 18.2415C8.00277 18.3554 8.12386 18.4694 8.24847 18.5935C8.37308 18.7177 8.49416 18.832 8.61877 18.9455L8.61854 18.946ZM2.09691 18.8756C2.09691 18.8756 3.8839 19.0605 4.75616 19.1851C5.56411 19.2992 8.09171 19.6871 8.09171 19.6871L2.09691 18.8756ZM2.09691 18.8756C2.59887 18.9183 3.10082 18.9716 3.60277 19.0251C3.85903 19.05 4.10472 19.0784 4.35042 19.1032L4.72753 19.1462C4.85214 19.1638 4.97322 19.1816 5.09783 19.1995L6.59313 19.4379L7.34054 19.5625C7.58624 19.6052 7.83193 19.6517 8.08819 19.6944C7.84249 19.6695 7.58624 19.6338 7.34054 19.5982L6.59313 19.4914L5.09783 19.2708C4.97322 19.253 4.85214 19.2279 4.72753 19.2103L4.35018 19.1668C4.10449 19.142 3.84823 19.1063 3.60254 19.0777C3.10058 19.0174 2.59863 18.9531 2.09668 18.8749L2.09691 18.8756ZM7.91383 20.1527C7.91383 20.1527 6.00576 20.637 5.36136 20.8222C4.72776 20.9965 2.80889 21.5804 2.80889 21.5804L7.9136 20.1529L7.91383 20.1527Z" fill="#CFB66C"/>
<path fill-rule="evenodd" clip-rule="evenodd" d="M7.91363 20.1526C7.49006 20.2772 7.06883 20.3983 6.63916 20.5123L5.36468 20.854C4.94111 20.9786 4.51988 21.0997 4.09748 21.2243L3.46388 21.3987C3.25386 21.4592 3.04031 21.5125 2.82324 21.5733C3.03303 21.5029 3.24682 21.4308 3.45684 21.3703L4.09044 21.1675C4.51402 21.0356 4.93524 20.911 5.35764 20.7794C5.78826 20.6726 6.21206 20.5586 6.64268 20.4553C7.05194 20.3521 7.48278 20.249 7.91363 20.1528V20.1526ZM3.07598 22.755C3.28577 22.6767 5.70659 21.5484 6.26909 21.2849C6.55069 21.153 7.3692 20.8625 7.3692 20.8625L3.07598 22.755Z" fill="#CFB66C"/>
<path fill-rule="evenodd" clip-rule="evenodd" d="M3.07592 22.755C3.26084 22.6846 3.43543 22.5985 3.61331 22.5166L4.14013 22.2709L5.19754 21.7619C5.54954 21.5945 5.89168 21.4099 6.25471 21.2526C6.43987 21.1745 6.62502 21.1104 6.80993 21.0499L7.09153 20.9609C7.18751 20.9361 7.27669 20.9074 7.37313 20.8826C7.02113 21.0499 6.6506 21.1923 6.29813 21.3559C5.94613 21.5305 5.58615 21.6729 5.22288 21.8294L4.14788 22.3028C3.78696 22.449 3.43496 22.6055 3.07568 22.755H3.07592ZM3.31058 23.7406C3.31058 23.7406 5.50331 22.4555 6.258 22.0425C6.65318 21.8219 7.93117 21.1881 7.93117 21.1881L3.31058 23.7406Z" fill="#CFB66C"/>
<path fill-rule="evenodd" clip-rule="evenodd" d="M3.31104 23.7411C3.6811 23.5133 4.05845 23.2819 4.43579 23.047L4.99899 22.7051C5.19118 22.5913 5.37634 22.4845 5.57228 22.3707C5.76448 22.2566 5.94963 22.1428 6.14534 22.0361C6.23851 21.9785 6.33613 21.9285 6.43726 21.8866L6.73623 21.7371C7.13141 21.5449 7.52659 21.349 7.94312 21.1816C7.56578 21.4203 7.17764 21.6233 6.78973 21.8331C6.59754 21.9398 6.4016 22.0361 6.2094 22.1428C6.01721 22.2496 5.83206 22.3637 5.63611 22.4669C5.44392 22.5807 5.25877 22.6875 5.06306 22.7907L4.48273 23.1075L3.3115 23.7411H3.31104ZM7.91379 21.4698C7.91379 21.4698 6.55037 22.5164 6.10897 22.8511C5.66756 23.1857 4.36821 24.1255 4.36821 24.1255L7.91379 21.4698Z" fill="#CFB66C"/>
<path fill-rule="evenodd" clip-rule="evenodd" d="M15.7387 29.9103L15.041 28.5896L15.4468 26.9378L18.3409 25.8201L17.1091 23.2927L17.7179 20.7403L18.8607 18.4546L22.3922 17.8994L24.9871 15.4253L30.5905 15.8489L31.6904 21.8401L29.5723 29.3835L28.3656 33.2888L23.4742 33.474L21.2031 31.9005L18.5439 30.7896L15.7387 29.9103Z" fill="#E2CC85"/>
<path fill-rule="evenodd" clip-rule="evenodd" d="M24.318 29.8676C24.318 29.8676 23.6415 30.1773 22.4876 30.106C22.1537 29.6575 19.815 29.4475 19.815 29.4475C19.815 29.4475 19.5231 29.3586 19.0068 29.5721C18.4872 29.7833 17.9959 29.7573 17.5366 29.8711C17.0774 29.9849 16.6214 29.387 16.2694 29.2623C15.9174 29.1307 15.4507 28.8139 15.4507 28.8139L14.4651 28.7177L12.4859 27.8811L9.34159 24.7485L8.48716 26.0861L8.22363 27.7415L9.17427 29.7031L11.7338 32.0347L16.7247 33.3019L19.6829 32.4303L23.3887 30.8639L24.318 29.8673V29.8676Z" fill="#F1D789"/>
<path fill-rule="evenodd" clip-rule="evenodd" d="M6.58614 18.7965L7.21974 16.8778L7.97467 15.6388L10.4058 15.4358L9.676 17.5647L7.64355 21.1816L8.48718 24.4104L6.99212 25.1578L6.53264 24.4531L6.16257 22.8369L6.1377 21.0213L6.58614 18.7965Z" fill="#F4ECB4"/>
<path fill-rule="evenodd" clip-rule="evenodd" d="M9.31306 29.736L8.84678 29.0845C8.84678 29.0845 8.72217 28.7748 8.79351 28.5042C8.86391 28.2301 8.85382 28.2123 8.81838 28.109C8.78295 28.0058 8.48375 27.6498 8.50158 27.3436C8.51918 27.0338 8.47671 26.9305 8.70433 26.6851C8.94275 26.4467 8.87165 26.0336 8.87165 26.0336L9.18141 26.2258L9.25181 26.1191C9.25181 26.1191 9.36562 26.208 9.36562 26.3469C9.3905 26.1547 9.28725 25.2646 9.52215 25.0619C9.75705 24.8591 10.1736 26.0123 10.1736 26.0123L9.91733 24.3391L9.25862 22.6235L8.08739 21.0571L8.01699 19.3304V19.1809C8.01699 19.1809 7.47937 20.0069 7.32989 20.6593C7.22312 21.1078 7.47937 21.6524 7.4261 22.2968C7.38316 22.9377 7.32989 22.8877 7.48641 23.1416C7.64294 23.3955 8.02404 23.9177 7.87455 24.295C7.7429 24.6191 7.29422 24.3912 7.29422 24.3912C7.29422 24.3912 7.20528 24.6545 7.08419 24.7507C7.04149 24.5942 6.99526 24.4945 6.90984 24.3987C6.90256 24.4593 6.88496 24.5412 6.88496 24.5412C6.88496 24.5412 6.80658 24.2955 6.72821 23.9857C6.62167 23.5729 6.50762 23.0283 6.40437 22.7363C6.36166 22.9037 6.25488 23.4127 6.25488 23.4127L6.31543 24.196L6.60735 25.271L6.88895 25.975L7.16304 26.8364L7.40123 27.4151L7.59342 27.8565L7.76074 28.8499L8.5687 29.7041L8.99954 29.8965L9.31259 29.7362L9.31306 29.736Z" fill="#F3E19D"/>
<path fill-rule="evenodd" clip-rule="evenodd" d="M7.00948 17.2299C7.00948 17.2299 6.42915 18.2155 6.26207 19.2091C6.09498 20.2027 5.94527 21.2526 6.05087 22.6052C6.15764 23.9689 6.36063 24.8052 6.52442 25.4034C6.80602 26.3967 7.53537 27.778 7.53537 27.778L7.56024 27.7245C7.43765 27.4921 7.3398 27.2475 7.26832 26.9946C7.1721 26.6173 7.13644 26.1689 7.0475 25.9659C6.96912 25.7631 6.83747 25.5885 6.77341 25.3393C6.71286 25.1009 6.70301 24.7235 6.51715 24.4424C6.43877 24.3284 6.34256 24.0294 6.31416 23.7304C6.27849 23.2818 6.332 22.7798 6.28929 22.367C6.21091 21.6799 6.15764 21.2136 6.22874 20.8539C6.29985 20.4941 6.67039 19.4729 6.89825 18.6612C7.04773 18.1414 6.95856 17.7035 7.23265 17.2513C7.50674 16.8028 7.67429 16.4077 7.7346 16.1336C7.805 15.8844 7.00854 17.2299 7.00854 17.2299H7.00948Z" fill="#F2E8B0"/>
<path fill-rule="evenodd" clip-rule="evenodd" d="M9.76152 16.835C9.76152 16.835 9.46255 16.9241 9.32011 17.0807C9.17767 17.2301 9.11712 17.3547 8.92493 17.6075C8.73274 17.8602 8.72195 18.0667 8.56519 18.3835C8.40867 18.6933 8.06324 19.1596 8.02053 19.3269C7.97782 19.4942 7.90671 20.2773 7.81777 20.6476C7.7394 21.0179 7.90671 21.4736 7.90671 21.4736L8.10947 21.4307C8.10947 21.4307 8.10947 21.6942 8.31245 21.8723C8.5152 22.0467 8.55087 21.2812 8.55087 21.2812L9.30908 18.7217L10.4517 17.9456L10.5763 17.3191L9.76105 16.835H9.76152Z" fill="#F5EEC0"/>
<path fill-rule="evenodd" clip-rule="evenodd" d="M10.3167 17.9954C10.3167 17.9954 9.77907 18.0309 9.51578 18.2233C9.409 18.3014 9.3663 18.3655 9.25248 18.4617C9.04246 18.6361 8.82867 18.7963 8.72566 19.0249C8.61161 19.2525 8.487 19.598 8.40158 20.2494C8.36591 20.5235 8.36591 20.7762 8.34104 20.9971C8.30537 21.296 8.2521 21.5344 8.28049 21.7011C8.31616 22.0427 8.66863 22.2208 8.70289 22.6087L9.43271 22.2387L10.1198 19.5294L11.5794 18.6142L10.7534 17.6887L10.3158 17.9938L10.3167 17.9954Z" fill="#E6DB9D"/>
<path fill-rule="evenodd" clip-rule="evenodd" d="M6.46654 36.2387C6.46959 36.2119 6.47264 36.1852 6.4757 36.1577C6.58223 35.2425 6.6003 34.5488 6.67845 34.1145C6.79226 33.4987 6.87064 33.2697 6.8528 33.0392C6.82793 32.6692 6.79954 32.3986 6.8352 32.1137C6.88847 31.7364 7.25878 31.2879 7.24822 30.9781C7.24094 30.7324 7.11634 30.5724 7.00956 30.4229C6.90279 30.2734 6.81737 30.1488 6.81737 30.1488C6.81737 30.1488 7.54718 29.6469 7.54014 27.6248C7.55505 27.629 7.56939 27.6349 7.58285 27.6426L7.94236 28.6641L8.18806 28.9631L9.13142 30.7217L10.3453 31.9001L12.1394 33.1068L13.2644 34.3311L13.3782 37.5955L11.908 39.5036L11.6672 39.9396C9.75439 38.9793 8.00032 37.731 6.46631 36.2384L6.46654 36.2387Z" fill="#E5CB7A"/>
<path fill-rule="evenodd" clip-rule="evenodd" d="M10.9575 39.3617C10.9575 39.3617 10.9824 38.9559 11.317 38.6924C11.3705 38.7813 11.406 38.867 11.3954 38.9308C11.456 38.8243 11.8795 38.1407 12.8372 37.9626C13.7949 37.7882 14.0263 37.0906 14.0263 37.0906L16.0587 35.243L18.3833 33.1036L21.2099 32.1102L22.5308 31.7861C22.5308 31.7861 22.5557 31.8824 22.5059 32.0959C22.7514 32.0783 23.2961 31.9537 23.8621 31.7542C24.0899 31.6653 24.3037 31.6296 24.4175 31.7472C24.5848 31.9037 24.6097 32.274 24.6203 32.4946C24.8944 32.4341 25.2112 32.1708 25.4651 32.1956C25.8711 32.2383 26.2306 32.7154 26.6436 32.7154C27.1882 32.7154 27.4337 32.3808 27.8148 32.1173C28.0427 31.9607 28.37 31.7653 28.5552 31.6331C28.9966 31.3091 33.6672 29.8816 33.6672 29.8816L35.3047 29.9884L35.5682 31.747L35.4274 36.3441C35.41 36.3607 35.3927 36.3781 35.3751 36.3948L27.9296 40.2834L17.6089 41.8655C15.297 41.4878 13.0661 40.7204 11.011 39.5961L10.9582 39.3614L10.9575 39.3617Z" fill="#D8C173"/>
<path fill-rule="evenodd" clip-rule="evenodd" d="M7.09229 36.8237C7.23895 36.5169 7.37083 36.2605 7.39407 36.1687C7.41237 36.3536 7.44593 36.7594 7.51351 37.1907C7.37162 37.0701 7.23121 36.9476 7.09229 36.8234V36.8237Z" fill="#F1D789"/>
<path fill-rule="evenodd" clip-rule="evenodd" d="M14.6315 41.1498L15.9663 40.7785L16.0801 40.8142C16.0801 40.8142 16.1407 40.8499 16.1407 40.9707C16.308 40.8748 16.4504 40.8924 16.5537 40.8285C16.607 40.9423 16.6602 41.3197 16.8954 41.3659C17.1408 41.4194 17.4043 41.2591 17.6714 41.0564C17.9347 40.8464 18.2346 40.5828 18.4615 40.4761C18.5448 40.6291 18.6185 40.7872 18.6823 40.9494C18.9813 40.711 19.5011 39.7427 20.2415 39.7603C20.4555 39.2546 20.813 38.8227 21.2698 38.518C21.9569 38.0517 22.3875 38.016 22.9251 38.0588C23.1386 37.7814 23.4018 37.546 23.7012 37.3646C23.7901 37.4003 24.0358 37.5498 24.342 37.4073C24.6518 37.2651 25.0005 36.7132 25.4598 36.6421C25.7072 36.608 25.9588 36.6608 26.1717 36.7916C26.1717 36.7916 27.5093 35.4636 28.4323 35.0222C28.3966 34.9154 28.3255 34.5132 29.4075 33.6231C29.4681 33.6766 29.4254 33.8261 29.4681 33.8343C29.4857 33.8343 29.7497 33.7205 30.0839 33.464C30.4969 33.1545 30.9915 32.8304 31.2905 32.7414C31.8537 32.5741 32.4512 32.9158 32.4512 32.9158C32.502 32.8802 32.5586 32.8536 32.6185 32.8374C32.7607 32.8125 32.864 32.7947 32.9423 32.767C32.9353 32.9522 33.0385 33.269 32.9423 33.5431C33.0538 33.6057 33.1718 33.6559 33.2943 33.6925C33.234 33.8242 33.1021 34.1588 32.8815 34.3191C33.0665 34.408 33.0913 34.5113 33.3549 34.6007C33.2481 34.7502 33.0733 35.0067 32.9954 35.1639C32.917 35.3312 32.6356 36.0254 32.511 36.2887C32.3794 36.5522 32.2015 37.0363 32.1158 37.1335C32.0302 37.2306 31.7207 37.6425 31.4822 37.8452C31.6934 37.7668 32.5575 37.5035 32.924 37.4038C32.8149 37.5638 32.2618 38.3845 31.73 39.1737C29.184 40.6997 26.342 41.6655 23.3934 42.0069C20.4447 42.3483 17.4572 42.0573 14.6299 41.1533L14.6315 41.1498Z" fill="#E0CD81"/>
<path fill-rule="evenodd" clip-rule="evenodd" d="M10.4045 17.8994C10.4045 17.8994 10.095 17.8994 10.0345 17.9421C9.97393 17.9848 10.3442 18.074 10.458 18.1167C10.5719 18.1594 10.8176 18.3552 10.8816 18.5119C10.9422 18.6614 13.1065 19.5334 13.1065 19.5334L14.6372 19.455L15.165 18.7259L14.1611 17.8466L14.8651 15.7712L13.9325 15.9207L11.6898 17.2583L10.5648 17.6892L10.4045 17.8994Z" fill="#DFC57C"/>
<path fill-rule="evenodd" clip-rule="evenodd" d="M13.7664 18.5865C13.7885 18.6223 13.8197 18.6517 13.8568 18.6717C13.8938 18.6916 13.9355 18.7015 13.9776 18.7003C14.2944 18.7003 14.5861 18.7787 14.7072 18.9387C14.9102 19.1952 15.4727 20.0139 15.4727 20.0139L16.8183 20.4981L16.9051 18.9136L15.4349 17.8921L13.7617 18.5079V18.5862H13.7655L13.7664 18.5865Z" fill="#E5CC7C"/>
<path fill-rule="evenodd" clip-rule="evenodd" d="M13.5025 19.1739C13.5025 19.1739 13.7479 19.1917 14.0577 19.0777C14.3674 18.9636 14.8764 18.7181 15.0972 18.8144C15.4068 18.946 15.3427 19.359 15.6776 19.7296C15.8803 19.9574 16.2506 19.9504 16.4607 20.1961C16.6707 20.4418 17.3932 20.3277 17.3932 20.3277L17.6673 21.8061L16.5674 23.216L16.2077 24.9673H14.7204L13.3617 24.4283L12.6924 22.8091L13.027 21.1716L13.5025 19.1739Z" fill="#D2C281"/>
<path fill-rule="evenodd" clip-rule="evenodd" d="M16.3793 19.245C16.4162 19.2563 16.4545 19.2623 16.4931 19.2628C16.4504 19.2985 16.3612 19.3766 16.3969 19.5796C16.4326 19.7826 16.5464 20.0388 16.4504 20.1954C16.527 20.2792 16.5841 20.3788 16.6177 20.4873C16.6783 20.6619 16.6961 20.8219 17.091 20.847C17.034 20.8821 16.9815 20.924 16.9345 20.9716C16.9345 20.9716 17.2086 21.2101 17.3475 21.4307C17.4897 21.4246 17.8671 21.3072 17.8671 21.3072L17.9455 21.3607L18.1128 21.2903C18.1128 21.2903 17.9562 21.2298 18.0701 20.8489C18.1768 20.5143 18.273 20.5321 18.2813 20.5072C18.2895 20.4824 18.3596 20.1299 18.3596 19.9875C18.4129 19.8025 18.4556 19.24 18.4556 19.24L18.3418 17.9977L17.7012 17.6096L17.1802 17.1067L16.6888 18.0322L16.3652 18.3549L16.3403 19.1558L16.3793 19.245Z" fill="#E2C270"/>
<path fill-rule="evenodd" clip-rule="evenodd" d="M17.9209 18.2056C17.9209 18.2056 18.0347 18.5294 18.0777 18.7786C18.0928 18.7302 18.1012 18.6799 18.1025 18.6292C18.1025 18.6292 18.1915 19.1205 18.2091 19.3235C18.2447 19.3163 18.2795 19.3057 18.2874 19.3411C18.2954 19.3766 18.3766 19.772 18.3578 19.9926C18.5061 19.748 18.7112 19.5429 18.9558 19.3946C19.0982 19.3055 19.2655 19.2095 19.4401 19.2022C19.7142 19.1952 19.9135 19.3768 20.241 19.3768C21.0312 19.3768 21.7469 18.7965 22.2737 18.6186C22.6616 18.4867 22.9963 18.3907 23.2312 18.177C23.3452 18.081 23.5482 17.8674 23.7331 17.5504C23.9788 17.128 24.2351 16.7603 24.4916 16.714C24.3755 16.7354 24.2575 16.7437 24.1396 16.7389C24.1396 16.7389 24.2179 16.6605 24.3508 16.5538C24.4836 16.447 24.6427 16.3153 24.8703 16.3153C25.2763 16.3153 25.479 16.3757 25.7069 16.3757C25.9348 16.3686 26.0664 16.3153 26.0664 16.3153C26.0664 16.3153 26.3051 16.4827 26.8425 16.4827C27.3801 16.4897 27.7396 16.5359 28.021 16.561C28.3023 16.5861 29.2454 16.4827 29.516 16.4906C29.6924 16.4974 29.8656 16.5398 30.0252 16.6152L29.153 14.0808L26.0197 11.3423L24.1543 12.663L21.2848 15.5323L18.5083 16.561L17.9279 17.2125V18.2056H17.9209Z" fill="#CCB360"/>
<path fill-rule="evenodd" clip-rule="evenodd" d="M24.1508 16.753C24.1508 16.753 24.2292 16.6748 24.3606 16.568C24.492 16.4613 24.6528 16.3294 24.8804 16.3294C25.2862 16.3294 25.4891 16.3899 25.717 16.3899C25.9449 16.3829 26.0765 16.3294 26.0765 16.3294C26.0765 16.3294 26.3154 16.4965 26.8526 16.4965C27.3902 16.5035 27.7497 16.5497 28.0311 16.5746C28.3124 16.5995 29.2555 16.4965 29.5261 16.5042C29.7025 16.5108 29.8756 16.5532 30.0351 16.6288L29.6399 15.486L29.1809 14.614L27.8708 13.1792C27.8708 13.1792 26.2985 12.2537 26.2865 12.2467C26.2795 12.2396 25.7419 12.0972 25.7419 12.0972L24.3179 12.9586L23.0259 16.3015L23.001 17.0055L23.8373 17.4006C24.0474 17.0486 24.279 16.767 24.496 16.7314C24.3001 16.7527 24.1506 16.7527 24.1506 16.7527L24.1508 16.753Z" fill="#D5B457"/>
<path fill-rule="evenodd" clip-rule="evenodd" d="M24.1329 16.9917C24.0082 16.9988 23.9052 16.9739 23.8766 16.885C23.7698 16.586 23.6844 16.5433 23.595 16.5433C23.5056 16.5433 23.385 16.7355 23.3134 16.7531C23.2418 16.7707 23.1569 16.5325 23.1569 16.5325L23.0785 16.4968C23.0785 16.4968 22.6193 16.7958 22.2954 17.1483C21.9716 17.5007 21.441 18.0989 21.2026 18.2054C20.9641 18.312 20.1452 18.3479 19.865 18.4084C19.5848 18.469 19.2741 18.672 19.2314 18.7182C19.1887 18.7644 19.3562 18.8142 19.3811 18.8604C19.406 18.9031 19.1068 18.8853 19.0819 18.9308C19.0643 18.9665 19.1523 19.1692 19.1959 19.2725C19.2723 19.2345 19.3561 19.2138 19.4414 19.2119C19.7155 19.2049 19.915 19.3865 20.2423 19.3865C21.0327 19.3865 21.7482 18.8062 22.275 18.6281C22.6631 18.4964 22.9978 18.4002 23.2327 18.1867C23.3465 18.0907 23.5495 17.8769 23.7346 17.5601C23.8698 17.343 24.0017 17.14 24.1336 16.9906L24.1329 16.9917Z" fill="#D2B257"/>
<path fill-rule="evenodd" clip-rule="evenodd" d="M12.7985 34.6094C12.7985 34.6094 12.7281 34.3459 12.0757 33.6661C11.8905 33.4739 11.7767 33.3141 11.6521 33.1998C11.3424 32.9076 11.1607 32.8295 10.9401 32.6622C10.456 32.3027 9.9292 32.3027 9.52346 31.8613C9.11772 31.4199 8.64487 30.5765 8.31633 29.7145C7.99249 28.8531 7.90332 28.579 7.90332 28.5541C7.90332 28.5292 7.99249 28.3619 8.10631 28.3868C8.22012 28.4117 8.22012 28.6323 8.24875 28.6858C8.30545 28.7731 8.36977 28.8552 8.44094 28.9312C8.60826 29.1236 8.84668 29.3536 8.96777 29.6967C8.94289 29.4048 8.84316 29.0809 8.84316 29.0809C8.84316 29.0809 9.46972 29.4761 10.0036 29.8889C10.5412 30.3019 10.7618 30.4443 10.9188 30.7076C11.0758 30.9709 11.4456 31.6653 11.6228 31.8683C11.8 32.0713 14.2276 32.8365 14.2276 32.8365L15.3824 33.6975L15.9557 34.9542L15.507 35.6582L14.6455 35.8433L13.2464 35.2168L12.7985 34.6092V34.6094Z" fill="#D2B159"/>
<path fill-rule="evenodd" clip-rule="evenodd" d="M9.69043 30.2807C9.69043 30.2807 9.98235 30.747 10.6943 31.1884C11.3352 31.5765 12.3497 31.929 13.2541 32.139C13.7736 32.2636 14.2934 32.3596 14.7597 32.3669C16.0163 32.3845 16.8813 32.0252 17.953 31.9076C18.5334 31.8471 19.2454 31.8009 19.9857 31.626C20.9361 31.3982 21.4986 31.1417 22.2641 30.7812C22.8193 30.525 23.3286 30.3328 23.7413 30.0871C24.3217 29.7454 24.7452 29.3645 25.2366 29.2507C25.1761 29.418 25.112 29.717 24.6279 30.0268C24.8842 30.0195 25.2366 30.0019 25.2366 30.0019C25.2366 30.0019 24.895 30.2047 24.2933 30.6604C23.923 30.942 23.4318 31.4186 22.9299 31.7354C22.6058 31.9384 22.2533 32.0874 22.0219 32.2089C21.4587 32.5187 21.2316 32.6752 20.8615 33.0537C20.9932 33.0467 21.0039 33.0537 21.0039 33.0537C21.0039 33.0537 20.5374 33.1143 20.203 33.2922C20.1326 33.2922 20.0106 33.2673 19.7971 33.3278C19.6297 33.3811 19.4089 33.5024 19.1813 33.5663C18.8572 33.6625 18.7507 33.6198 18.7507 33.6198L18.8039 33.7265C18.8039 33.7265 18.3815 33.7193 18.2407 33.7336C18.2656 33.7406 18.2586 33.7514 18.2586 33.7514C18.2338 33.7555 18.21 33.764 18.1882 33.7763C18.1204 33.8202 18.0459 33.8526 17.9676 33.8723C17.9249 33.8793 17.8892 33.8793 17.8357 33.8901C17.8535 33.9328 17.9925 34.1717 18.0565 34.3125C18.0033 34.3482 17.2021 34.9534 17.2021 34.9534C17.227 34.9925 17.2473 35.0343 17.2627 35.078C17.2875 35.1561 17.2983 35.2702 17.3232 35.3234C17.3835 35.4302 17.4192 35.448 17.4192 35.448C17.4192 35.448 17.3232 35.4659 17.1556 35.5086C17.0134 35.5443 16.8388 35.6046 16.5924 35.6402C16.5168 35.6501 16.4408 35.656 16.3646 35.6581C16.4003 35.7365 16.5568 36.0354 16.2684 36.3806C15.98 36.7258 15.891 36.776 15.8021 36.9966C15.7573 36.9628 15.7097 36.9329 15.6596 36.9074C15.5637 36.8647 15.4318 36.8009 15.3856 36.7152C15.3586 36.8294 15.3229 36.9412 15.2788 37.0499C15.1898 37.2883 15.0582 37.5234 15.0333 37.7013C14.9371 37.5945 14.7592 37.3845 14.5135 37.4272C14.2678 37.4699 14.0721 37.8046 14.0294 37.9008C14.0294 37.8402 13.9867 37.794 13.9761 37.8651C13.9689 37.9435 13.8337 38.762 13.079 39.4242C13.072 39.2569 13.072 38.8866 13.0541 38.7658C12.9837 38.8362 12.8976 38.9401 12.3849 39.1609C11.8829 39.3815 11.9625 39.6023 11.9625 39.6023C11.9625 39.6023 11.9198 39.2503 12.1903 38.8796C12.4644 38.5095 12.6317 38.3349 12.6317 38.3065C12.6273 38.2776 12.615 38.2505 12.5961 38.2281C12.5604 38.1925 12.4893 38.1498 12.4893 38.1214C12.532 38.1038 12.9556 37.9008 12.9307 37.4805C12.9058 37.1034 12.7458 36.9074 12.6317 36.7687C12.6141 36.7509 12.7993 36.6193 12.7742 36.5766C12.7564 36.5517 12.5287 36.3841 12.5001 36.295C12.5068 36.2417 12.5188 36.1893 12.5358 36.1384C12.5606 36.0601 12.5785 36.0066 12.5714 35.9533C12.5536 35.8643 12.4574 35.6186 12.429 35.5938C12.4539 35.6008 12.6317 35.5938 12.6317 35.5938C12.6317 35.5938 12.4895 35.3659 12.4644 35.2591C12.4393 35.1524 12.386 34.871 12.3577 34.8177C12.4182 34.8248 12.5677 34.8353 12.5677 34.8177C12.575 34.7642 12.436 34.6753 12.4973 34.6065C12.54 34.6136 12.6219 34.6492 12.7 34.749C12.6573 34.6349 12.5862 34.4143 12.4365 34.3254C12.5069 34.3005 12.7463 34.2362 12.9563 34.3608C13.1663 34.4854 13.2379 34.6598 13.2379 34.6598C13.2379 34.6598 13.3625 34.756 13.5549 34.8985C13.7755 35.0728 14.0566 35.3209 14.5053 35.4964C14.6015 35.5499 14.847 35.5499 15.0251 35.5142C15.1027 35.4957 15.177 35.4658 15.2457 35.4253C15.2705 35.4107 15.2968 35.3987 15.3241 35.3896C15.2858 35.3128 15.2418 35.239 15.1924 35.1688C15.253 35.1688 15.3241 35.1761 15.3241 35.1761C15.3241 35.1761 15.3668 35.0799 15.1746 34.8945C15.2173 34.8518 15.2708 34.8241 15.2708 34.752C15.2103 34.745 15.1035 34.656 15.0786 34.6204C15.114 34.5955 15.1676 34.5136 15.2281 34.4887C15.1746 34.446 15.0429 34.2679 14.9824 34.2503C15.0402 34.2288 15.0962 34.2026 15.1497 34.1719C15.1497 34.1719 14.8507 34.0935 14.7545 34.0295C14.6583 33.9591 14.5161 33.8373 14.4307 33.8016C14.3415 33.766 14.185 33.7484 14.1209 33.677C14.1812 33.6948 14.2775 33.677 14.3488 33.677C14.4021 33.677 14.4272 33.6841 14.4448 33.6841C14.4377 33.6592 14.4377 33.6057 14.5767 33.5881C14.6435 33.578 14.7083 33.5576 14.7689 33.5275C14.7689 33.5275 14.637 33.5205 14.4873 33.378C14.3375 33.2356 14.2132 33.1218 14.1277 33.104C14.0388 33.0861 13.8715 33.1645 13.7682 33.1572C13.6258 33.1396 13.5652 33.0683 13.5652 33.0683C13.5652 33.0683 13.0919 33.111 12.0418 32.4704C11.1339 31.9149 10.7387 31.4237 10.7387 31.4237C10.6537 31.3929 10.5716 31.3547 10.4932 31.3097C10.1516 31.1318 9.67799 30.7615 9.69231 30.2772L9.69043 30.2807Z" fill="#C2A44D"/>
<path fill-rule="evenodd" clip-rule="evenodd" d="M22.7871 8.91407C22.8695 8.94082 22.9426 8.99018 22.9983 9.05651C23.1656 9.2487 23.2724 9.61173 22.8915 9.99987C23.041 10.0531 23.1027 10.0703 23.2332 10.0531C23.1016 10.2099 22.8026 10.5445 22.7848 10.8365C22.7669 11.0749 22.9164 11.1462 22.9164 11.1462C22.9164 11.1462 22.6885 11.4095 22.678 11.8502C22.7856 11.7289 22.9034 11.6169 23.03 11.5156C23.2935 11.3056 23.6565 11.0671 23.9022 10.9177C23.8989 10.9803 23.9073 11.043 23.9271 11.1026C23.9271 11.1026 24.3861 10.7252 24.7719 10.8928C24.9463 10.9712 24.8679 11.2166 24.8679 11.2166C24.8679 11.2166 25.1065 11.1277 25.2739 11.295C25.4412 11.4623 25.6777 11.8939 25.7991 12.0612C25.8523 12.1396 25.9912 12.289 26.1335 12.5204C26.3277 12.8444 26.4899 13.1865 26.6178 13.5419C26.6248 13.3568 26.6711 13.0686 27.1981 13.25C27.725 13.4352 28.3229 13.8233 28.8248 14.5876C29.3268 15.3519 29.4512 16.2148 29.7039 16.5433C29.9602 16.8601 30.2237 17.3869 30.2415 17.6078C30.2594 17.8286 30.1631 18.5403 30.69 20.4662C30.8395 19.8683 31.0673 18.5403 31.0673 18.5403L31.1919 17.3691L31.3344 13.7451L27.5501 10.6013L24.5919 8.45459L22.666 8.63974L22.7869 8.91383L22.7871 8.91407Z" fill="#CAA13E"/>
<path fill-rule="evenodd" clip-rule="evenodd" d="M29.8177 14.3074C29.8177 14.3074 29.7642 13.9554 28.8744 13.357C27.9843 12.7661 27.2902 12.7661 26.6495 12.2641C26.1581 11.869 25.6456 10.961 25.3119 10.6621C24.9878 10.3666 24.9346 9.51221 24.9346 9.51221L26.0274 8.59701L27.6527 6.24776L29.0267 4.73486L29.6852 5.65006L30.6004 6.72507L31.1094 8.88236L31.2945 12.04L29.8161 14.3076L29.8177 14.3074Z" fill="#B59544"/>
<path fill-rule="evenodd" clip-rule="evenodd" d="M30.918 18.0922C30.9449 17.6134 30.8858 17.1336 30.7434 16.6756C30.5087 15.9457 29.996 14.6499 29.7578 14.1646C29.6616 13.627 29.7329 13.5843 29.8362 13.5238C29.9394 13.4632 30.3276 13.2422 30.5402 12.4666C30.7528 11.691 31.4124 11.6657 31.4124 11.6657L31.8182 11.3667L32.4342 12.908L32.9716 14.3L33.1389 15.3645L33.2635 16.2722L32.9716 18.191L31.53 19.4939L30.9177 18.0922H30.918Z" fill="#C89D3A"/>
<path fill-rule="evenodd" clip-rule="evenodd" d="M10.8013 39.4795V39.4401C10.8312 39.4214 10.8577 39.3976 10.8794 39.3697C10.9043 39.3341 10.9224 39.2913 10.94 39.2808C10.9756 39.263 11.1429 39.2104 11.2319 39.2273C11.3208 39.2442 11.556 39.3411 11.6806 39.3341C11.9368 39.327 12.2358 39.1311 12.7093 39.2202C13.4213 39.3519 13.5886 39.836 14.0017 40.1101C14.2833 40.3025 14.5747 40.2169 14.6174 40.2169H14.7134C14.7312 40.2169 14.8629 40.0674 14.9342 40.0747C15.0767 40.0817 15.0907 40.1993 15.1797 40.2063C15.3897 40.2312 15.7957 40.0995 15.9987 40.153C16.0589 40.1719 16.1136 40.205 16.1582 40.2496C16.2028 40.2942 16.236 40.3489 16.2549 40.4091C16.2976 40.5407 16.262 40.708 16.1587 40.8042C15.9381 41.007 15.7281 41.1994 15.6854 41.3674C15.7397 41.4089 15.7919 41.453 15.8417 41.4998C14.0803 41.051 12.3856 40.3725 10.8013 39.4817V39.4795Z" fill="#CEB052"/>
<path fill-rule="evenodd" clip-rule="evenodd" d="M29.7573 32.3668C29.7573 32.3668 30.3125 31.6265 30.505 31.2597C30.6972 30.8816 29.8962 26.0944 29.8962 26.0944L31.5054 20.8224L31.4624 19.1065C31.4624 19.1065 31.5408 17.5223 31.7259 16.8352C31.9468 17.2304 32.6339 17.7074 32.7833 17.9602C32.8537 17.4758 33.0929 16.4543 33.0574 15.365C33.1891 15.5677 33.5059 17.6077 33.5059 17.6077L33.8227 18.9817L34.2357 20.4413L34.6949 21.9828L34.969 23.0473L35.1256 23.3035L35.2574 23.752L35.382 24.2363L35.7416 25.3719L35.9528 26.3044L36.1201 27.9955C36.1565 28.1249 36.1827 28.2571 36.1985 28.3906C36.2055 28.5758 36.1736 28.6826 36.1736 28.7147C36.1736 28.7469 36.2341 29.1204 36.2092 29.4018C36.1736 29.6834 36.1736 29.9038 35.9528 30.1058C35.7319 30.3079 35.5932 31.5155 35.5932 31.5155L35.1981 31.2522C35.1981 31.2522 35.2764 30.8924 35.0913 30.5651C34.9061 30.2377 34.5466 30.1699 34.3436 30.2234C34.1409 30.2661 33.7352 30.3299 33.6033 30.444C33.4787 30.5578 33.1727 30.9102 32.8913 31.0705C32.5393 31.2817 31.9658 31.2984 31.6598 31.3695C31.35 31.4399 31.0083 31.6511 30.6486 31.8963C30.3665 32.0789 30.0687 32.236 29.7587 32.3657L29.7573 32.3668Z" fill="#CCA847"/>
<path fill-rule="evenodd" clip-rule="evenodd" d="M29.7573 40.145C29.7573 40.145 29.7808 40.1603 29.8261 40.1852C32.3552 39.0002 34.6213 37.3206 36.4906 35.2454C36.4702 34.525 36.4437 33.7865 36.4146 33.5129C36.3543 32.9326 36.397 32.3417 36.3791 32C36.3613 31.6583 36.1691 30.2663 36.0802 29.9068C35.984 29.5473 35.7986 29.3691 35.7704 29.3691C35.7455 29.3764 35.5958 30.0457 35.5958 30.2139C35.5958 30.3822 35.5602 30.7872 35.5602 30.8905C35.5353 30.8832 35.5247 30.8201 35.5247 30.7943C35.4891 30.8832 35.4463 31.04 35.4285 31.0578C35.4107 31.0756 35.4534 30.9083 35.4285 30.8726C35.4036 30.837 35.3581 30.8548 35.368 30.7659C35.3722 30.7131 35.3805 30.6608 35.3928 30.6094C35.3928 30.6094 35.2861 30.7659 35.2079 31.1646C35.1295 31.5598 35.1295 31.5705 35.1012 31.606C35.0763 31.6489 34.9338 31.7911 34.9266 31.8446C34.9195 31.9406 35.0584 32.0368 35.069 32.0901C35.076 32.1793 34.9444 32.5921 34.9017 32.7941C34.859 32.9961 34.8768 33.392 34.8313 33.595C34.7956 33.7802 34.7609 33.8869 34.6391 33.9651C34.728 33.9829 34.8135 34.0078 34.8135 34.0078C34.8135 34.0078 34.9381 34.5346 34.6213 34.9833C34.5074 35.1398 34.4791 35.2112 34.358 35.3536C34.1193 35.6169 33.9342 35.9168 33.9163 36.1118C33.904 36.0543 33.8957 35.9959 33.8914 35.9372C33.8914 35.9372 33.5214 36.3681 33.3646 36.6138C33.1619 36.9306 32.8805 36.9127 32.8014 36.9911C32.7223 37.0695 32.7052 37.2117 32.731 37.3257C32.6606 37.3433 32.5283 37.3685 32.4391 37.6425C32.3964 37.7848 32.2896 37.9241 32.1223 38.0199C31.955 38.1156 31.752 38.1445 31.6487 38.1694C31.7377 38.1943 31.7733 38.1942 31.8161 38.2226C31.7628 38.3116 31.5171 38.4505 31.243 38.6286C30.9689 38.7959 30.837 39.0414 30.7694 39.2017C30.699 39.3512 30.5951 39.4474 30.4278 39.4652C30.4982 39.5079 30.6024 39.6074 30.6556 39.6396C30.5772 39.6574 30.4444 39.6574 30.2072 39.8604C29.958 40.0669 29.8725 40.1274 29.7585 40.1453L29.7573 40.145Z" fill="#C39D3C"/>
<path fill-rule="evenodd" clip-rule="evenodd" d="M24.8039 41.7946C24.9402 41.699 25.0879 41.6208 25.2434 41.5616C25.7987 41.341 26.386 41.2983 26.6174 41.2272C26.8382 41.1568 27.0126 41.0596 27.2867 41.0063C27.2794 41.0688 27.2733 41.1274 27.2667 41.1828C26.4587 41.4369 25.6358 41.6412 24.8027 41.7946H24.8039Z" fill="#D2BA6B"/>
<path fill-rule="evenodd" clip-rule="evenodd" d="M35.0449 27.1906C35.0449 27.1906 34.9311 27.8064 34.7281 28.1945C34.5251 28.5827 34.3057 29.1201 34.3057 29.1201C34.307 28.999 34.3213 28.8784 34.3484 28.7603C34.0921 28.9098 33.4691 29.2696 33.2924 29.4296C33.1251 29.5791 32.8437 29.8426 32.7726 29.9672C32.9399 29.4761 33.1143 29.0347 33.1429 28.8317C32.8866 29.0168 31.6903 30.0029 31.0675 30.6543L29.1273 32.2242C28.9034 32.345 28.6728 32.453 28.4367 32.5476C28.1023 32.6898 27.7071 32.8109 27.4152 32.925C27.4935 32.7149 27.6179 32.5295 27.7925 32.3517C27.9777 32.1773 28.5329 31.5756 28.6183 31.2957C28.6967 31.0037 28.7145 30.8294 28.6113 30.5837C28.515 30.6086 28.2945 30.6194 28.145 30.6621C27.9955 30.7048 27.8352 30.8648 27.8352 30.8648C27.8352 30.8648 27.949 30.2134 28.1947 29.5976C28.0096 29.6047 27.6928 29.6579 27.6928 29.6579C27.6928 29.6579 28.1342 28.9176 28.8896 28.4015C28.6582 28.4508 28.4319 28.521 28.2133 28.6113C27.7718 28.7965 27.2877 29.0706 26.9282 29.22C27.131 28.9384 28.5549 26.9062 29.4023 25.0122C30.2471 23.122 30.5627 22.6379 30.7479 21.6234C30.8439 21.1215 30.8183 20.3797 30.8439 19.7153C30.8687 19.0566 30.9506 18.4657 30.8974 18.0706C31.118 18.3446 31.944 19.1172 31.9724 20.8438C31.9973 22.5703 31.1823 24.9022 30.317 26.1586C30.5282 26.2191 31.0755 26.2905 31.6377 25.3138C32.2 24.3371 32.1932 24.0644 32.3962 23.6584C32.4211 23.8614 32.4138 23.9325 32.4138 23.9325C32.4138 23.9325 33.2328 22.9394 33.6207 21.6898C33.6991 22.2274 33.9304 22.701 33.5672 23.6871C33.2433 24.5769 32.8198 24.7942 32.8198 24.7942C32.8198 24.7942 33.0298 24.7586 33.3393 24.5734C33.3928 24.7051 33.3823 24.855 33.4712 24.908C33.5601 24.9611 33.6812 25.0505 33.6991 25.1359C33.795 24.9935 33.9445 24.8118 33.991 24.6767C33.9553 24.9583 33.9304 26.1896 34.0614 26.8161C34.3357 26.7912 34.6168 26.7734 34.809 26.2785C34.6774 26.7628 34.6774 27.0545 34.7663 27.4675C34.9123 27.3681 35.0439 27.1899 35.0439 27.1899L35.0449 27.1906Z" fill="#C0993A"/>
<path fill-rule="evenodd" clip-rule="evenodd" d="M25.7952 7.56859C25.7952 7.56859 25.5211 7.6824 25.0548 7.6824C24.6491 7.6824 24.7629 7.52588 24.1293 7.52588C23.154 7.52588 19.7471 8.08908 19.149 8.0811C18.7608 8.07406 20.4589 8.24842 20.4589 8.24842L24.7986 8.30896L25.6706 8.23856L25.9947 7.57915L25.7952 7.56859Z" fill="#A88F33"/>
<path fill-rule="evenodd" clip-rule="evenodd" d="M14.5424 16.0519C14.5424 16.0519 13.9869 16.4754 13.752 16.7995C13.5171 17.1236 13.3925 17.3369 13.1255 17.6004C13.1882 17.6028 13.2508 17.5944 13.3106 17.5755C13.3106 17.5755 13.3106 17.6459 13.2679 17.6645C13.3048 17.6604 13.3422 17.6645 13.3773 17.6767C13.4124 17.6889 13.4443 17.7088 13.4707 17.7349C13.3923 17.7776 13.1788 17.9914 13.3461 18.2441C13.4707 18.4363 13.7342 18.4539 13.7342 18.4539C13.7342 18.4539 13.6737 18.6285 13.9264 18.6107C14.4711 18.5858 15.0798 18.3471 15.3609 18.4077C15.6425 18.4781 15.8026 18.5039 16.0018 18.8493C16.213 19.191 16.397 19.2445 16.397 19.2445C16.397 19.2445 16.5216 18.9275 16.4932 18.4541C16.5954 18.199 16.652 17.9279 16.6605 17.6532L16.4754 16.2898L15.6674 15.2681L14.6208 15.8484L14.5424 16.0511V16.0519Z" fill="#E3C571"/>
<path fill-rule="evenodd" clip-rule="evenodd" d="M15.5356 15.8489C15.5356 15.8489 15.614 16.034 15.9416 16.0516C15.9059 16.13 15.9059 16.1408 15.9167 16.2011C15.9238 16.2616 15.9343 16.3506 15.9343 16.3506C15.9704 16.3331 16.003 16.3093 16.0306 16.2802C16.0484 16.3586 16.0127 16.4829 16.0306 16.5721C16.0416 16.6263 16.0595 16.6789 16.0838 16.7286C16.089 16.7165 16.095 16.7046 16.1017 16.6932C16.1087 16.6754 16.1721 16.8854 16.3474 17.0452C16.3472 17.0206 16.3533 16.9964 16.365 16.9748C16.3676 17.0194 16.3824 17.0625 16.4077 17.0994C16.3945 17.0931 16.3826 17.0847 16.3722 17.0745C16.3722 17.0745 16.3898 17.6377 16.486 17.9289C16.5021 17.9101 16.5164 17.8899 16.5288 17.8684C16.5288 17.8508 16.5217 18.0252 16.5039 18.15C16.479 18.2746 16.4968 18.449 16.4968 18.449C16.561 18.3984 16.6316 18.3565 16.7066 18.3244C16.8134 18.2814 16.9882 18.1498 17.0948 17.8578C17.1566 17.6925 17.2042 17.5222 17.2372 17.3489C17.2716 17.4151 17.2954 17.4864 17.3076 17.5601C17.3149 17.649 17.4822 17.6028 17.4822 17.6028L17.5179 17.2146L17.7291 16.3353L17.9213 15.7907L18.8468 14.3491L20.519 13.0613L21.9787 13.3959L23.2102 11.7227L21.0886 10.4482L19.0808 10.6583L17.2586 13.1821L15.7992 15.4713L15.5356 15.8486V15.8489Z" fill="#D8B65B"/>
<path fill-rule="evenodd" clip-rule="evenodd" d="M26.0516 12.1965C26.0516 12.1965 25.927 12.2213 25.5674 12.4077C25.2079 12.594 24.9587 12.6531 24.8198 12.9272C24.6809 13.2013 24.6703 13.4186 24.6703 13.4186C24.6703 13.4186 24.916 13.3118 25.0585 13.2762C25.2079 13.2407 25.3753 13.2513 25.3574 13.3118C25.3403 13.3533 25.3165 13.3918 25.287 13.4256C25.287 13.4256 25.5686 13.4186 25.5611 13.5575C25.5536 13.6964 25.5078 13.8494 25.4546 13.917C25.4011 13.9874 25.1805 14.0916 25.1556 14.1735C25.0951 14.3408 25.1805 14.3479 25.1483 14.483C25.1235 14.6149 25.0061 14.8712 24.6215 15.3196C24.2263 15.7683 24.0583 16.0851 24.0583 16.0851C24.0583 16.0851 23.8661 15.7256 23.7664 15.4158C23.696 15.4513 23.3179 15.6613 23.3179 15.6613L22.4422 12.6106L22.4598 12.4077C22.4598 12.4077 22.5381 12.3117 22.556 12.1336C22.4243 12.0909 22.4065 12.0552 22.2319 11.8881C22.0573 11.721 21.9151 11.5178 21.6234 11.3789C21.5807 11.3005 21.5272 11.194 21.3136 11.151C21.1001 11.1081 20.972 11.0729 20.972 11.0729C20.972 11.0729 21.0858 11.0299 21.1393 10.941C21.0074 10.9588 20.9009 11.0015 20.6125 10.9945C20.3205 10.9872 20.2884 10.9767 20.1283 11.0015C19.9683 11.0264 19.7763 11.0977 19.7048 10.852C19.6264 10.7915 19.4591 10.845 19.3166 11.0548C19.1742 11.2646 19.1244 11.4321 18.8503 11.514C18.8311 11.6349 18.7888 11.7509 18.7257 11.8557C18.6474 11.9876 18.5228 12.1192 18.3554 12.315C18.0919 12.6247 18.1346 13.1337 17.7146 13.5218C17.291 13.9098 17.785 12.4466 17.785 12.4466L18.4613 10.8274L20.3872 8.94421L23.3775 8.74146L23.6695 10.2903L25.1291 10.7922L26.0511 12.1983L26.0516 12.1965Z" fill="#D3AE4D"/>
<path fill-rule="evenodd" clip-rule="evenodd" d="M26.5251 12.5381L25.2684 10.7262L24.3891 10.0497C24.3891 10.0497 23.7626 8.89655 23.7199 8.86088C23.6842 8.83601 23.0933 8.77194 22.716 8.74707L22.7864 8.92143C22.8687 8.94818 22.9419 8.99754 22.9976 9.06387C23.1649 9.25606 23.2717 9.61909 22.8908 10.0072C23.0403 10.0605 23.102 10.0776 23.2325 10.0605C23.1008 10.2173 22.8019 10.5519 22.784 10.8438C22.7662 11.0822 22.9157 11.1533 22.9157 11.1533C22.9157 11.1533 22.6878 11.4169 22.6772 11.8573C22.7849 11.736 22.9026 11.624 23.0292 11.5227C23.2928 11.3115 23.6558 11.074 23.9015 10.9245C23.8982 10.9873 23.9066 11.0501 23.9264 11.1097C23.9264 11.1097 24.3854 10.7324 24.7712 10.8997C24.9455 10.978 24.8672 11.2237 24.8672 11.2237C24.8672 11.2237 25.1058 11.1348 25.2731 11.3021C25.4404 11.4694 25.6789 11.9001 25.8 12.0676C25.8532 12.146 25.9921 12.2955 26.1344 12.5266C26.3287 12.8506 26.4909 13.1928 26.6187 13.5484C26.6257 13.4059 26.6544 13.2067 26.9003 13.2067L26.5265 12.5374L26.5251 12.5381Z" fill="#CAA13E"/>
<path fill-rule="evenodd" clip-rule="evenodd" d="M7.68601 17.6859C7.68601 17.6859 7.59707 17.4651 7.68601 17.0344C7.77495 16.6038 7.91387 16.4008 7.9601 15.7672C8.00633 15.1336 8.41935 14.3433 8.41935 14.3433L9.56194 13.8237L10.3701 14.0443L10.6086 15.1266L9.58681 15.6898C9.58681 15.6898 9.53354 15.9282 9.24514 16.1204C8.95673 16.3126 8.55803 16.4621 8.46206 16.658C8.40468 16.778 8.36281 16.9048 8.33745 17.0354C8.33745 17.0354 8.04552 16.9748 7.87117 17.167C7.68601 17.363 7.69305 17.5373 7.68601 17.6868V17.6859Z" fill="#F4EFC8"/>
<path fill-rule="evenodd" clip-rule="evenodd" d="M9.99272 17.3974C9.99272 17.3974 9.89651 17.458 9.8254 17.6086C9.755 17.4948 9.58675 16.8183 9.57971 16.2095C9.57267 15.6008 9.53629 15.4499 9.67709 15.2401C9.81789 15.0303 10.3701 14.8093 10.2917 14.4315C10.2133 14.072 9.88571 13.9225 9.48349 14.0257C9.20189 14.0961 8.99233 14.695 8.70041 14.994C8.47959 15.2218 8.21629 15.1861 8.14519 15.3108C8.04897 15.4781 8.13791 15.6454 8.10952 15.7522C8.10224 15.7878 8.0133 15.98 7.85303 16.2114C7.52919 16.6777 6.98101 17.3364 6.90967 17.9273C6.93454 17.5927 6.91694 17.5856 7.00588 17.2153L6.95238 17.1264L7.30438 15.973L7.53224 15.0226L8.04146 13.4311L8.93836 11.8044L9.81062 10.8289L10.7183 10.8894L10.8251 12.2528L11.3449 14.8126L12.4377 16.1581L10.6862 17.3369L9.99201 17.3974H9.99272Z" fill="#EBCC73"/>
<path fill-rule="evenodd" clip-rule="evenodd" d="M10.5377 17.8811C10.5377 17.8811 10.3882 17.9168 10.3347 17.8884C10.2812 17.86 10.2281 17.8279 10.2457 17.7922C10.2633 17.7565 10.3596 17.6962 10.3596 17.6676C10.3615 17.6417 10.3533 17.6161 10.3367 17.5962C10.3201 17.5762 10.2964 17.5635 10.2706 17.5608C10.1887 17.5502 10.1638 17.6035 10.1638 17.6035C10.1638 17.6035 10.0855 17.5432 10.0216 17.5331C10.0594 17.5285 10.0974 17.5261 10.1354 17.5258C10.0371 17.4813 9.93271 17.4513 9.82568 17.4369C9.91462 17.3836 10.0892 17.2269 10.203 17.2269C10.3168 17.2269 10.3882 17.2093 10.3703 17.1487C10.3525 17.0882 10.2636 16.9993 10.1676 16.9636C10.203 16.9209 10.2281 16.8568 10.1427 16.682C10.0535 16.5076 10.0892 16.3901 10.1178 16.3476C10.1427 16.2941 10.2317 16.1981 10.2744 16.1376C10.3171 16.077 10.3527 15.9951 10.4238 15.9524C10.4595 15.9275 10.5733 15.882 10.6874 15.8386C10.812 15.7959 10.9152 15.7424 10.9863 15.7959C11.0647 15.8491 11.0291 15.9205 11.0291 15.9205C11.0291 15.9205 11.2747 15.8313 11.4953 15.9454C11.7162 16.0519 12.2538 16.1197 12.2538 16.1197L12.4464 16.5079L11.172 17.6007L10.6451 17.8642L10.5384 17.8818L10.5377 17.8811Z" fill="#E5C66B"/>
<path fill-rule="evenodd" clip-rule="evenodd" d="M12.3069 16.0944C12.3069 16.0944 11.9118 16.358 11.8228 16.454C11.8761 16.4612 11.965 16.4969 11.9294 16.5502C11.8866 16.6034 11.6304 16.7886 11.4879 16.9632C11.3385 17.1375 11.196 17.3584 11.1463 17.4651C11.093 17.5611 10.687 17.8425 10.5483 17.8779C10.8403 17.8779 11.4276 17.5184 11.6482 17.5184C11.6412 17.6252 11.7088 17.7463 11.8334 17.7568C11.958 17.7674 12.3175 17.8352 12.8016 17.5362C13.2857 17.2443 13.1257 17.027 13.3284 16.8848C13.7166 16.6283 13.8731 16.4005 14.0866 16.2582C14.3002 16.116 14.4107 16.0837 14.4107 16.0837C14.4107 16.0837 14.4178 15.9769 14.4811 15.9877C14.4985 15.9897 14.5149 15.9964 14.5287 16.007C14.5426 16.0177 14.5532 16.0319 14.5595 16.0482C14.5595 16.0482 14.9298 15.7847 15.4043 15.7136C15.3932 15.7086 15.3844 15.6998 15.3794 15.6887C15.3794 15.6887 15.4149 15.6709 15.4221 15.653C15.4221 15.653 15.447 15.6174 15.4648 15.6352C15.4827 15.653 15.5076 15.7847 15.5432 15.8382C15.6216 15.8025 15.7711 15.4679 15.7711 15.4679L16.1308 14.4391V13.4993L15.8492 13.5528L13.7372 14.4497L12.4555 15.7776L12.306 16.0944H12.3069Z" fill="#E6BD62"/>
<path fill-rule="evenodd" clip-rule="evenodd" d="M18.3871 11.4845C18.5013 11.4568 18.6108 11.4124 18.7121 11.3526C18.6694 11.4667 18.6694 11.5913 18.4842 11.8619C18.2991 12.1324 18.292 12.1716 18.1425 12.4528C17.9931 12.7447 17.9752 13.1647 17.8328 13.3497C17.8966 13.3186 17.9651 13.2983 18.0355 13.2894C18.0355 13.2894 17.8933 13.414 17.8328 13.5456C17.7722 13.6773 17.6655 13.9513 17.4022 14.1189C17.1389 14.2865 16.804 14.393 16.4445 14.7882C16.0848 15.1761 15.7147 15.6675 15.5293 15.8442C15.6255 15.6769 15.7572 15.3422 15.7928 15.1216C15.8285 14.901 15.7856 14.6373 15.8461 14.3456C15.9066 14.0539 15.9066 13.8436 16.1981 13.3344C16.4896 12.8252 16.9885 11.056 16.9885 11.056L18.0635 10.7144L18.3875 11.4834L18.3871 11.4845Z" fill="#B6933F"/>
<path fill-rule="evenodd" clip-rule="evenodd" d="M17.611 10.833C17.611 10.833 17.2871 11.2992 17.1982 11.7122C17.1093 12.1253 17.1909 12.0896 17.1377 12.2926C17.1058 12.4163 17.1058 12.5462 17.1377 12.6699C17.2498 12.4892 17.4034 12.3379 17.5856 12.2283C17.8919 12.0434 18.1411 11.9115 18.2896 11.755C18.4391 11.5876 18.5637 11.3135 18.8876 11.1035C18.7559 11.0857 18.5708 11.0251 18.5356 11.0331C18.6675 10.8836 19.0624 10.6558 19.4611 10.3817C19.8563 10.1001 19.8314 9.98651 20.4723 9.70538C20.2623 9.74105 20.1625 9.68754 19.9879 9.70538C20.0583 9.5559 20.3047 9.48456 20.5511 9.2391C20.7975 8.99364 20.3946 8.63037 20.3946 8.63037L18.5173 9.76592L17.6096 10.8339L17.611 10.833Z" fill="#C49937"/>
<path fill-rule="evenodd" clip-rule="evenodd" d="M12.5166 9.9857L12.5593 9.64403L13.0969 8.78256L13.6594 7.26967V5.20132L13.6167 4.00522L13.7057 3.2219L13.7732 2.97292L13.8446 2.87671L14.3036 3.11513L14.9374 3.97659L14.998 5.6392L14.382 8.26278L12.6234 10.1816L12.5166 9.9857Z" fill="#DFC068"/>
<path fill-rule="evenodd" clip-rule="evenodd" d="M13.9158 2.78055C13.9158 2.78055 13.6342 2.78783 13.5741 3.95905C13.5141 5.13027 13.485 5.74603 13.4423 6.32636C13.3996 6.9067 13.3001 7.25893 13.2501 7.60084C13.2001 7.94275 13.1717 8.4088 13.0116 8.69368C12.9412 8.82533 12.7908 9.23834 12.4384 9.5481C12.0432 9.88978 11.4528 10.1284 11.3633 10.1463C11.2066 10.1817 10.4127 10.2601 10.0889 10.4382C9.97506 10.4987 9.77911 10.5698 9.56205 10.7728C9.1312 11.1607 8.55814 11.8549 8.14513 12.6915C7.51153 13.9411 6.87793 17.4688 6.87793 17.4688L7.02037 17.2304C7.02037 17.2304 7.03821 16.9136 7.35501 16.3581C7.66477 15.8029 7.57583 15.1799 8.00644 14.1154C8.17376 13.7097 8.38379 13.1829 8.64004 12.7342C9.04602 12.0044 9.53717 11.3778 10.0321 11.0361C10.84 10.4809 11.7301 10.3598 11.7301 10.3598L12.6878 9.72622C12.6878 9.72622 12.8551 9.40238 13.0759 9.03207C13.3855 8.51252 13.7799 7.93219 13.8661 7.08856C13.998 5.83896 13.6809 5.02021 13.6988 4.27984C13.7166 3.53946 13.7236 2.9948 13.8733 2.86292C14.0231 2.73104 13.9161 2.78102 13.9161 2.78102L13.9158 2.78055Z" fill="#A88F33"/>
<path fill-rule="evenodd" clip-rule="evenodd" d="M13.916 8.36949C13.916 8.36949 14.3384 7.32992 14.5318 6.40791C14.5674 6.22276 14.6385 6.03785 14.6564 5.88836C14.7453 5.01611 14.7702 4.6566 14.6564 4.17952C14.5674 3.82752 14.2258 3.51025 14.0476 3.26432C13.8733 3.00783 13.7914 2.91232 13.8271 2.85835C13.8627 2.80437 14.0014 2.71614 14.1366 2.7267C14.2803 2.73088 14.4216 2.76424 14.552 2.82475C14.6824 2.88527 14.7991 2.97167 14.895 3.0787C15.1691 3.3955 15.3862 4.47074 15.3862 4.47074L15.6145 5.88954L16.1948 7.67652L13.9165 8.3709L13.916 8.36949Z" fill="#C99E3D"/>
<path fill-rule="evenodd" clip-rule="evenodd" d="M17.885 7.28744C17.885 7.28744 17.8066 7.32288 17.6644 7.28744C17.6705 7.34556 17.6604 7.40422 17.6352 7.45697C17.6101 7.50972 17.5709 7.55451 17.5219 7.58641C17.3725 7.52586 15.9731 7.64695 15.9731 7.64695C15.9731 7.64695 15.3217 7.5329 15.1187 6.67144C14.9765 6.09815 15.2255 5.30803 15.1436 4.78824C15.019 4.02276 14.8446 3.87304 14.8268 3.63485C14.809 3.39667 14.7911 3.33589 14.7911 3.18641C14.7127 3.16857 14.6665 3.1437 14.5884 3.1437C14.5705 3.0733 14.606 3.01182 14.5278 2.88721C14.5705 2.90504 14.8625 2.94071 15.2041 3.26455C15.4857 3.52808 15.4857 3.62406 15.5282 3.67756C15.5815 3.73083 16.0123 4.09996 16.1975 4.46792C16.3826 4.83588 16.7421 6.00921 16.824 6.2014C16.8489 6.27978 16.9024 6.35816 17.0352 6.53604C17.2418 6.79253 17.5442 7.21657 17.8859 7.28697L17.885 7.28744Z" fill="#B58634"/>
<path fill-rule="evenodd" clip-rule="evenodd" d="M15.5786 3.69531C15.7943 4.04368 15.988 4.40514 16.1587 4.7776C16.3687 5.25092 16.4933 5.63906 16.7569 5.95586C16.6144 5.54308 16.3617 4.73137 16.2122 4.44296C16.0449 4.13789 15.7032 3.80936 15.5786 3.69555V3.69531Z" fill="#A88F33"/>
<path fill-rule="evenodd" clip-rule="evenodd" d="M13.1576 9.54809C13.1576 9.54809 12.7981 9.63702 12.1289 9.98949C11.908 10.1033 11.6982 10.1993 11.4953 10.2885C10.968 10.5269 10.4024 10.7472 9.95373 10.8688C9.9894 10.9115 10.007 10.9291 10.007 10.9291C10.007 10.9291 10.007 11.1037 10.1032 11.2032C10.0499 11.2567 9.33773 11.7408 9.54799 13.3605C9.6902 13.3072 9.85752 13.2359 9.88239 13.2359C9.92534 13.2431 9.9359 13.3605 9.98917 13.3605C10.0424 13.3605 10.217 13.2901 10.4022 13.0507C10.3951 13.1469 10.2884 14.1152 10.8614 14.7666C10.9682 14.642 11.2388 14.229 11.2388 14.229L11.2458 14.0973C11.2458 14.0973 11.2707 13.6381 11.4204 13.218C11.5701 12.798 11.8618 12.4882 11.8618 12.4882L13.385 10.3131L13.1572 9.54785L13.1576 9.54809Z" fill="#E6C367"/>
<path fill-rule="evenodd" clip-rule="evenodd" d="M11.7338 12.7418C11.664 12.7911 11.5872 12.8294 11.5059 12.8556C11.481 12.7666 11.4454 12.4604 11.6554 12.1614C11.9011 11.8017 12.4385 11.3354 12.588 10.9646C12.6842 10.726 12.6415 10.1281 13.4959 9.36257C14.3503 8.59709 14.6847 8.33379 14.6847 8.33379L16.066 7.63965L17.764 8.30892L16.9204 11.6154L16.2654 13.1642L13.6606 12.673L11.7335 12.7418H11.7338Z" fill="#DCBA5A"/>
<path fill-rule="evenodd" clip-rule="evenodd" d="M12.728 11.844L13.0521 11.4383V11.1499C13.0521 11.1499 13.4116 11.0537 13.7995 10.6585C14.1874 10.2633 14.725 9.50511 15.1986 9.55134C15.6722 9.60484 15.7184 10.5801 15.7362 10.8544C15.7541 11.1288 15.8146 11.7513 15.9106 12.0862C16.0173 12.4208 14.7572 13.688 14.7572 13.688L13.9014 14.3395L12.728 11.844Z" fill="#E9CE77"/>
<path fill-rule="evenodd" clip-rule="evenodd" d="M13.731 15.2223C13.731 15.2223 13.9945 14.8093 13.8014 14.7204C13.9152 14.4641 14.1252 14.1935 14.1252 14.1935C14.1252 14.1935 14.2747 13.8235 14.7588 13.3678C15.2429 12.912 15.5421 12.6093 15.6205 12.3033C15.6688 12.1039 15.6951 11.8997 15.6989 11.6946C15.7512 11.7373 15.8072 11.7754 15.8662 11.8084C15.9446 11.8441 16.3146 12.1501 16.2614 12.7661C16.2081 13.3821 15.9798 13.6383 15.9798 13.6383C15.9798 13.6383 15.7592 13.8589 15.6027 13.973C15.4351 14.0868 15.3748 14.2184 15.0934 14.2292C15.1224 14.2062 15.1549 14.1881 15.1896 14.1757C15.1896 14.1757 14.8977 14.1403 14.741 14.2825C14.5842 14.4247 14.251 14.8628 14.0837 14.9947C13.9163 15.1015 13.7317 15.2226 13.7317 15.2226L13.731 15.2223Z" fill="#CDAE50"/>
<path fill-rule="evenodd" clip-rule="evenodd" d="M25.5674 8.29813C25.1468 8.14484 24.7049 8.05838 24.2575 8.04187C23.5099 8.017 22.417 8.0597 21.3455 8.06674C20.1922 8.07378 19.1455 7.67157 17.6932 7.60046C17.4548 7.45802 16.8484 6.83498 14.9556 8.15568C15.0694 8.14864 16.3298 7.86376 16.7674 8.41217C17.2088 8.95684 17.0842 9.88236 17.0239 10.1029C16.9099 10.5943 16.5396 11.3098 16.3903 11.8118C16.2411 12.3137 16.2763 12.5775 16.1695 12.9295C16.0627 13.2815 15.8278 13.4563 15.9665 13.8621C16.1517 13.7483 16.2481 13.7483 16.5574 13.0541C16.8667 12.36 16.8031 11.8651 17.3158 11.2777C17.8178 10.6868 18.6534 9.87861 18.9712 9.67562C19.2889 9.47263 21.8118 8.16272 24.4535 9.41232C25.0906 9.34474 25.5677 8.29789 25.5677 8.29789L25.5674 8.29813Z" fill="#D2A83E"/>
<path fill-rule="evenodd" clip-rule="evenodd" d="M16.0197 7.81385C16.0171 7.7871 16.0112 7.76077 16.0021 7.73547C15.9774 7.68341 15.945 7.63539 15.9059 7.59303C15.9059 7.59303 15.2794 7.47922 14.9626 7.51465C14.4071 7.57519 13.9052 8.2623 13.6703 8.61477C13.4354 8.96724 13.1434 9.51166 12.8266 9.79303C12.8301 9.76562 12.8238 9.73786 12.8088 9.71465C12.8088 9.71465 12.8266 9.73952 12.7912 9.77519C12.7558 9.81086 12.7555 9.82846 12.7734 9.84559L12.8269 9.89886C12.8445 9.89886 13.3359 9.67804 14.0051 9.05406C14.7171 8.40263 15.2618 8.06846 15.5467 7.95395C15.6986 7.88938 15.8574 7.84238 16.02 7.81385H16.0197Z" fill="#C29637"/>
<path fill-rule="evenodd" clip-rule="evenodd" d="M28.1735 5.13721C28.1735 5.13721 28.0594 5.27941 27.917 5.43617C27.6002 5.77081 27.1872 6.14792 26.8347 6.53605C26.5003 6.90636 26.123 7.19476 25.6992 7.67888C25.2754 8.163 24.784 8.70039 24.6596 8.85714C24.5458 9.0139 24.4568 9.27016 24.4568 9.4018C24.3963 9.3591 24.3252 9.31287 24.3252 9.31287C24.3551 9.36876 24.3909 9.4213 24.432 9.46962C24.5209 9.59423 24.6596 9.75122 24.7309 9.84697C24.8185 9.96885 24.8813 10.1067 24.9159 10.2527C24.9586 10.2597 25.2327 10.3133 25.5746 9.75075C25.9165 9.18826 26.3647 8.57249 26.3647 8.57249L27.0767 7.51508L27.5253 6.61819L28.0885 5.61428L28.1742 5.13721H28.1735Z" fill="#AC8132"/>
<path fill-rule="evenodd" clip-rule="evenodd" d="M28.9031 4.41821C28.9031 4.41821 28.4722 4.77021 28.3049 4.98141C28.1376 5.19261 27.7417 5.7469 27.7417 5.7469L27.8841 5.72906L28.6069 5.08842L28.8885 4.58647L28.9028 4.41915L28.9031 4.41821Z" fill="#A88F33"/>
<path fill-rule="evenodd" clip-rule="evenodd" d="M28.7714 32.7084C28.7714 32.7084 28.7644 32.4165 28.9282 32.2421C29.0955 32.0675 29.5191 31.8113 29.9321 30.8501C30.3451 29.8889 30.3911 29.6718 30.3911 29.6718C30.3911 29.6718 29.6507 30.3054 29.1943 30.4549C29.3011 30.2341 29.3616 30.0776 29.4151 29.9635C29.3546 29.9102 29.0983 29.8497 29.0734 29.8213C29.2156 29.6789 29.294 29.3299 29.5824 29.0985C29.9527 28.8169 30.629 28.3331 31.1547 27.9017C31.6803 27.4704 32.7138 26.4672 32.8457 26.1753C32.9241 26.2891 32.9417 26.3602 32.9417 26.3602C32.9417 26.3602 32.4221 27.0368 32.1515 27.4674C31.9129 27.8377 31.9307 28.0477 31.9307 28.0477L32.4221 27.8365C32.4221 27.8365 32.5643 28.3633 31.9202 29.1645C32.2018 29.0577 32.3153 29.1218 32.4754 29.0326C32.2119 29.2001 31.8488 29.428 31.5072 30.0543C31.1725 30.6809 30.7168 31.4107 29.948 31.8662C29.2004 32.3468 28.7695 32.7063 28.7695 32.7063L28.7714 32.7084Z" fill="#A67A2E"/>
<path fill-rule="evenodd" clip-rule="evenodd" d="M26.842 8.66862C26.842 8.66862 26.5501 9.27711 26.5074 9.75067C26.5003 9.86471 26.4717 9.95365 26.4717 10.0853C26.4646 10.5089 26.4966 10.9824 26.4013 11.203C26.3656 11.1141 26.3478 11.0535 26.3121 11.0181C26.2588 11.1676 26.1626 11.6339 26.0843 11.8082C26.0488 11.6944 25.9704 11.2992 25.9777 10.8329C25.985 10.3667 25.9953 10.2775 25.9953 10.1815C25.9777 10.3237 25.8815 10.5161 25.8458 10.63C25.7926 10.534 25.732 10.4094 25.6607 10.3061C25.618 10.3765 25.5647 10.4805 25.5185 10.534C25.5112 10.4913 25.4936 10.3772 25.4828 10.2172C25.4758 10.032 25.465 9.79361 25.4758 9.74363C25.4934 9.64765 25.6431 9.2703 25.9599 8.92487C26.3372 8.51186 26.7254 7.71822 26.8392 7.47252C26.953 7.22683 27.4371 6.20532 27.4371 6.20532H27.8074L27.2698 7.42981C27.2698 7.42981 26.9459 8.09908 26.7786 8.34501C26.6113 8.59094 26.2588 9.29565 26.1021 9.56974C26.2159 9.42026 26.3121 9.34188 26.4262 9.19943C26.5365 9.0997 26.8425 8.66909 26.8425 8.66909L26.842 8.66862Z" fill="#8C6228"/>
<path fill-rule="evenodd" clip-rule="evenodd" d="M28.9099 4.37183C28.8495 4.55799 28.7539 4.73085 28.6283 4.88105C28.4075 5.14458 27.934 5.49682 27.7028 5.77795C27.4916 6.05204 27.0692 6.79969 27.2612 7.68602C27.3316 7.49383 27.4642 7.11297 27.8166 6.68212C28.1691 6.25127 28.5464 5.75659 28.7318 5.37221C28.9167 4.98407 28.9416 4.67807 28.9416 4.67807L29.012 4.58913L28.9693 4.38614L28.9088 4.37183H28.9099Z" fill="#CBA94C"/>
<path fill-rule="evenodd" clip-rule="evenodd" d="M36.119 27.9844C36.119 27.9844 35.9765 27.5964 35.9338 27.244C35.8911 26.8915 36.0042 26.8216 35.8733 26.4182C35.7949 26.1725 35.6527 26.207 35.617 26.1725C35.5814 26.138 35.5565 25.7668 35.5635 25.5638C35.5706 25.3608 35.5565 25.0975 35.5208 24.9834C35.4676 24.9407 35.4319 24.9051 35.3535 24.6418C35.2646 24.3782 35.2219 24.2466 35.1792 24.1684C35.1364 24.0903 35.0116 24.019 35.0116 23.9406C35.0116 23.7838 35.154 23.7022 35.154 23.659C35.147 23.57 35.0402 23.6414 35.0116 23.6163C34.9762 23.5736 35.1008 23.3173 35.0545 23.2816C35.0367 23.264 34.9121 23.4135 34.88 23.3708C34.8443 23.3279 34.8016 22.9043 34.7375 22.6232C34.6772 22.3491 34.6129 22.1498 34.6059 22.0679C34.5988 21.9896 34.1145 20.6083 33.9971 20.2737C33.9026 19.9909 33.823 19.7034 33.7587 19.4122C33.723 19.2449 33.6982 18.903 33.6803 18.9387C33.6625 18.9743 33.6733 19.1487 33.6447 19.1416C33.6198 19.1344 33.5309 18.5259 33.5025 18.4297C33.4776 18.3334 33.3279 18.0073 33.2913 17.7712C33.2556 17.5325 33.1774 16.9095 33.1239 16.4859C33.0704 16.0623 33.0456 15.888 33.0456 15.7819C33.0543 15.5225 33.04 15.2628 33.0029 15.0059C32.9325 14.5572 32.7917 14.0125 32.6682 13.696C32.4298 13.0978 31.796 11.5671 31.6826 11.1862C31.6826 11.09 31.8072 11.1435 31.8072 11.1435C31.8072 11.1435 32.1168 11.9195 32.3446 12.5175C32.5654 13.1156 32.7755 13.6425 32.829 13.696C32.8717 13.7492 33.2063 14.3366 33.3558 15.2978C33.5053 16.259 33.5585 17.1453 33.6477 17.7362C33.6904 18.0178 33.7261 18.3166 33.815 18.6155C33.911 18.9396 34.0605 19.2742 34.2564 19.7867C34.4238 20.2176 34.5484 20.5771 34.616 20.8869C34.6943 21.282 34.6943 21.581 34.7406 21.7769C34.7835 21.9443 34.8473 22.2787 34.997 22.7625C35.1468 23.2464 35.3671 23.8697 35.5166 24.2576C35.8088 25.0337 35.939 25.6816 35.9831 26.027C36.0221 26.383 36.154 27.6148 36.1183 27.9848L36.119 27.9844Z" fill="#A88F33"/>
<path fill-rule="evenodd" clip-rule="evenodd" d="M28.9282 4.3289L28.9104 4.37161C28.9104 4.37161 28.9636 4.38945 28.9531 4.46078C28.9538 4.55839 28.9479 4.65592 28.9352 4.75271C28.9176 4.87732 28.882 4.9733 28.8749 5.05167C28.8749 5.21899 28.8998 5.41118 28.6637 5.88826C28.5933 6.01991 28.5499 6.13372 28.5143 6.2121C28.4253 6.40429 28.4075 6.43292 28.3291 6.52186C28.4537 6.45146 28.9024 6.16986 29.13 6.2121C28.9735 6.30104 28.7348 6.47563 28.5854 6.70349C28.621 6.71053 28.7705 6.73916 29.0078 6.70349C29.4029 6.64295 29.8443 6.50051 30.2322 6.5289C30.6561 6.55378 30.4887 6.01991 30.4887 6.01991L29.9997 4.9449L29.0742 4.2937L28.9282 4.32914V4.3289Z" fill="#BE9C44"/>
<path fill-rule="evenodd" clip-rule="evenodd" d="M31.3417 12.3815C31.3417 12.3815 30.9287 11.9685 30.7613 10.5511C30.594 9.12716 30.6297 7.03112 30.6297 7.03112L30.2951 6.21236C30.2951 6.21236 30.2247 5.6677 30.0494 5.46495C29.8741 5.2622 29.5298 4.92029 29.3731 4.75297C29.2163 4.58565 29.0384 4.35779 28.9316 4.32212C28.9849 4.23319 29.2236 3.73123 30.1383 3.72419C31.053 3.71715 31.3351 4.22615 31.4306 4.4113C31.5261 4.59645 31.9574 5.3969 32.1175 6.92223C32.267 8.44569 32.2742 8.55973 32.2494 9.08656C32.2315 9.37849 32.1353 10.0548 31.9678 10.7773C31.8148 11.3898 31.6474 12.0734 31.3412 12.3829L31.3417 12.3815Z" fill="#A17C34"/>
<path fill-rule="evenodd" clip-rule="evenodd" d="M30.0464 13.5955C30.1841 13.6054 30.3216 13.5744 30.4416 13.5063C30.5733 13.4992 31.0503 13.5598 31.4169 13.0935C31.4418 13.2 31.5061 13.4887 31.3385 13.7449C31.4277 13.6558 31.5593 13.6203 31.5772 13.5955C31.5842 13.7271 31.7088 14.1328 31.182 15.1189C31.3242 14.9624 31.4915 14.9694 31.641 14.9516C31.6483 15.1367 31.7478 15.7596 31.4845 16.0944C31.3101 16.3223 31.0252 16.2509 31.0252 16.2509C31.0294 16.2012 31.0294 16.1512 31.0252 16.1015C31.0182 16.0052 30.9825 15.9093 31.0076 15.8452C30.87 15.7823 30.7446 15.6955 30.6373 15.5887C30.3276 15.2968 29.9253 14.7986 29.897 14.4283C29.8613 14.0153 30.2316 13.9263 30.2316 13.9263C30.2006 13.8986 30.1741 13.8661 30.1532 13.8301C30.1354 13.7698 30.1175 13.6736 30.0464 13.5955Z" fill="#8C6228"/>
<path fill-rule="evenodd" clip-rule="evenodd" d="M27.3008 9.11717C27.3008 9.11717 27.283 9.0923 27.187 9.20611C27.2048 9.0923 27.2227 8.98529 27.2297 8.88203C27.2751 8.78644 27.3339 8.69779 27.4043 8.61874C27.3508 8.72528 27.3151 8.82149 27.3151 8.82149C27.3151 8.82149 27.447 8.57579 27.6392 8.42631C27.7709 8.31954 27.9382 8.26979 28.0093 8.17006C28.0877 8.06328 28.0698 8.04545 28.0877 8.02761C28.0877 8.02761 28.2623 7.9138 28.5293 7.57893C28.5647 7.53622 28.6182 7.48999 28.6539 7.44728C28.7142 7.42241 28.8567 7.35834 29.024 7.27269C29.1986 7.17671 29.3943 7.04506 29.5154 6.99109C29.7538 6.88432 30.0068 6.89511 30.1241 6.72756C30.213 6.70268 30.309 6.43563 30.2914 6.20801C30.4231 6.26128 31.0994 6.68133 31.331 7.59982C31.4983 8.25125 31.1991 9.25515 31.0745 9.73951C30.9499 10.2239 30.9323 10.5831 30.7577 10.8037C30.5369 11.0959 29.8251 11.5077 29.6505 11.7116C29.5011 11.879 29.0526 12.3025 29.0702 12.6085C29.088 12.8364 29.3692 12.9605 29.43 13.0037C29.4907 13.0469 29.4903 13.0999 29.6043 13.0741C29.7184 13.0483 29.7608 12.9957 29.8073 12.9957C29.8606 13.0028 29.8606 13.0136 29.8854 13.0136C29.9035 13.013 29.9214 13.0106 29.9389 13.0063C29.9389 13.0063 29.9211 13.3304 29.1629 13.4287C29.1094 13.436 29.0561 13.4536 28.9883 13.4644C29.0775 13.4217 29.1308 13.4217 29.227 13.29C29.1202 13.2722 28.814 13.2543 28.7356 13.2295C28.7605 13.1868 28.8423 13.0727 28.9099 13.0194C28.9705 12.9662 28.9029 12.949 28.8496 12.9767C28.7579 13.0391 28.6699 13.1068 28.5861 13.1795C28.4972 13.2579 28.4188 13.3646 28.2763 13.4611C28.2336 13.3186 28.2407 13.0481 28.4082 12.8524C28.3653 12.8594 28.2834 12.984 28.2052 12.9591C28.1911 12.8293 28.1995 12.698 28.2301 12.571C28.2728 12.4107 28.5042 12.1296 28.5042 12.1296L29.6219 10.1323L29.8603 8.61944L27.3008 9.1167V9.11717Z" fill="#92723A"/>
<path fill-rule="evenodd" clip-rule="evenodd" d="M27.2403 9.20264C27.2403 9.20264 27.1797 9.24535 27.3008 9.32725C27.283 9.35213 27.2403 9.44107 27.1868 9.50161C27.1264 9.57201 27.0622 9.61566 27.0373 9.6762C26.984 9.80081 26.9413 9.88623 26.9413 9.93973C26.9413 9.99324 26.9235 10.3349 26.774 10.5555C26.7205 10.6339 26.6599 10.7655 26.6172 10.8545C26.5283 11.011 26.4499 11.1361 26.4321 11.2065C26.3966 11.3311 26.3718 11.6727 26.3718 11.6727C26.3718 11.6727 26.4501 11.5765 26.4785 11.5411C26.4356 11.63 26.3894 11.726 26.3218 11.7974C26.3645 11.7617 26.4891 11.6727 26.6991 11.4876C26.991 11.2421 27.4468 10.8291 28.0022 10.502C27.8347 10.5625 27.6925 10.5625 27.5787 10.5804C27.6676 10.4914 28.4685 9.55159 28.8886 9.46265C28.9141 9.43031 28.9268 9.38971 28.9242 9.34861L28.5645 9.31317L27.8347 9.46969L27.7281 8.90649L27.2403 9.20194V9.20264Z" fill="#B18E3E"/>
<path fill-rule="evenodd" clip-rule="evenodd" d="M28.4009 12.4065C28.4009 12.4065 28.3047 12.5025 28.2158 12.7411C28.1473 12.6696 28.0886 12.5894 28.0412 12.5025C27.9095 12.2819 27.7068 12.0005 27.2332 12.1608C27.2262 12.0113 27.2154 11.9329 27.2332 11.8262C27.3116 11.8086 27.55 11.6164 27.7884 11.335C27.956 11.1428 28.1125 10.922 28.2193 10.6409C28.2897 10.5874 28.4115 10.4984 28.5713 10.3952C28.7992 10.2386 29.0732 10.0249 29.116 9.78644C29.0092 9.82915 28.7813 9.93592 28.4394 9.91832C28.5713 9.85778 28.774 9.79372 28.7492 9.53019C28.8027 9.49452 28.8454 9.46964 28.8454 9.46964C28.8053 9.45626 28.763 9.45022 28.7208 9.45181C28.7135 9.42693 28.7029 9.3915 28.6424 9.4091C28.5819 9.4267 28.572 9.42693 28.564 9.45181C28.5391 9.45908 28.4572 9.45181 28.3967 9.49475C28.3362 9.53769 28.1688 9.67967 28.1048 9.70454C28.1296 9.66183 28.1651 9.598 28.1651 9.598C28.1651 9.598 27.9907 9.6156 27.8661 9.6684C27.6383 9.74678 27.375 9.88923 27.1079 10.0279C27.1328 9.9852 27.1436 9.95751 27.1612 9.94953C27.1788 9.94156 27.2217 9.93193 27.2217 9.92466C27.2217 9.91739 27.2041 9.85426 27.2147 9.82868C27.2945 9.65954 27.3887 9.49758 27.4963 9.34456C27.6209 9.17701 27.6458 8.93859 27.6458 8.93859L28.1904 8.6645L29.7212 8.3125L30.7145 8.37304L30.5899 9.06015L30.0032 10.2598L29.5013 11.3526L28.928 12.0221L28.4012 12.4065H28.4009Z" fill="#543E26"/>
<path fill-rule="evenodd" clip-rule="evenodd" d="M30.8822 9.43298C30.8822 9.43298 30.284 10.1734 30.1167 10.2874C30.2235 10.0595 30.8822 8.70317 31.1206 8.32583C31.0674 8.28312 30.996 8.28312 31.1633 7.62183C31.0211 7.95623 30.9712 8.13082 30.8538 8.21976C30.7365 8.3087 30.7219 8.2803 30.6426 8.2803C30.6576 8.25321 30.6637 8.22212 30.6602 8.19136C30.6602 8.19136 30.1583 8.13082 29.8154 8.13082C29.4726 8.13082 28.7939 8.31597 28.4163 8.46545C28.1174 8.59006 27.9501 8.59006 27.8433 8.6682C27.7365 8.75714 27.676 8.85336 27.6225 8.87823C27.5797 8.90311 27.377 8.96717 27.3305 9.03475C27.2878 9.10515 27.2167 9.18424 27.2167 9.20207C27.2167 9.21991 27.1989 9.24502 27.2524 9.22695C27.27 9.21991 27.4019 9.14857 27.5514 9.05963C27.7541 8.94582 27.9998 8.81417 28.1779 8.73579C28.6869 8.5328 28.8472 8.56847 29.0748 8.52576C29.3132 8.48305 29.6551 8.38332 29.8828 8.38332C30.1106 8.37628 30.5415 8.38332 30.6412 8.40115C30.5985 8.43682 30.5628 8.47953 30.5807 8.62902C30.5807 8.67172 30.545 8.71795 30.5103 8.82121C30.4037 9.11313 30.2007 9.59725 30.0879 9.84295C29.9313 10.1773 29.7535 10.4587 29.6655 10.6331C29.5775 10.8074 29.3839 11.2667 29.1921 11.5124C29.0004 11.7581 28.9002 11.9075 28.8401 11.961C28.7801 12.0146 28.3488 12.3311 28.3809 12.4452C28.4593 12.4203 28.9542 12.234 29.3135 11.8294C29.6727 11.4248 29.7443 11.178 30.0254 10.9571C30.3066 10.7363 30.5274 10.3663 30.659 10.0602C30.7693 9.77536 30.7445 9.68642 30.8832 9.43369L30.8822 9.43298Z" fill="#806031"/>
<path fill-rule="evenodd" clip-rule="evenodd" d="M17.992 14.9588C17.992 14.9588 17.9137 15.2827 17.7355 15.4429C17.5612 15.5997 17.2514 15.7349 17.216 15.9984C17.1733 16.2617 17.5258 16.3936 17.5258 16.3936C17.5258 16.3936 17.3333 16.7104 17.3333 16.9488C17.3333 17.1945 17.3263 17.2407 17.3512 17.4756C17.3229 17.4938 17.2989 17.5178 17.2808 17.546C17.2808 17.546 17.2984 17.7739 17.473 17.9161C17.6475 18.0583 17.7968 18.144 17.8857 18.1083C17.8993 18.1373 17.9112 18.1671 17.9214 18.1975C17.9214 18.1975 18.0533 17.8628 18.1422 17.5709C18.2312 17.2719 18.3095 17.3144 18.345 16.9122C18.3804 16.51 18.7674 15.8194 18.7674 15.8194L19.0314 15.2292L18.6008 14.8945L17.992 14.9586V14.9588Z" fill="#B6903C"/>
<path fill-rule="evenodd" clip-rule="evenodd" d="M18.7931 15.5391C18.7043 15.6302 18.6224 15.7278 18.5479 15.831C18.4341 15.9877 18.3451 16.13 18.1778 16.1907C18.0105 16.2515 17.9037 16.251 17.9143 16.4186C17.9249 16.5861 18.0816 16.657 18.1705 16.7424C18.2668 16.8314 18.3451 16.9809 18.3024 17.1484C18.3557 17.1235 18.4519 17.0949 18.5409 16.9027C18.6298 16.7105 19.2519 15.5393 19.2519 15.5393H18.7931V15.5391Z" fill="#685026"/>
<path fill-rule="evenodd" clip-rule="evenodd" d="M21.2463 12.8372C21.2463 12.8372 21.2996 12.695 21.2463 12.5917C21.1928 12.4849 20.8689 12.4493 20.7087 12.3282C20.5414 12.2036 20.3384 12.117 20.1711 12.1717C20.1959 12.1111 20.2957 11.9792 20.2138 11.9508C20.1354 11.926 19.8437 12.0576 19.7653 12.1182C19.6869 12.1787 19.5088 12.2498 19.4734 12.2928C19.438 12.3357 19.3772 12.4174 19.3415 12.3817C19.3058 12.3568 19.2882 12.2928 19.2277 12.3282C19.1671 12.3636 18.8757 12.6023 18.822 12.7412C18.7682 12.8801 18.6474 13.1899 18.2843 13.5421C17.9213 13.8944 17.7645 14.1225 17.8713 14.2541C17.9781 14.3857 18.0281 14.2898 18.0459 14.4036C18.0596 14.5153 18.0536 14.6286 18.0281 14.7382C17.9854 14.9234 17.9143 15.0977 18.0102 15.1334C18.2559 15.2118 18.4946 15.063 18.5479 15.1085C18.6546 15.2045 18.4873 15.5499 18.7401 15.6175C18.9965 15.6879 19.2493 15.557 19.2493 15.557L20.1818 15.055L21.079 14.5817L21.538 13.6738L21.2918 12.9156L21.2449 12.8372H21.2463Z" fill="#D4B968"/>
<path fill-rule="evenodd" clip-rule="evenodd" d="M20.3663 15.0051C20.3663 15.0051 20.2096 14.7667 20.402 14.5564C20.5944 14.3461 20.8683 14.2574 20.9751 14.1258C20.9547 14.1007 20.9275 14.0822 20.8967 14.0725C20.9676 13.9457 21.0757 13.8437 21.2065 13.7804C21.1532 13.7271 21.0818 13.6844 21.0037 13.6844C20.8291 13.6844 20.7221 13.7912 20.5621 13.7912C20.4055 13.7912 20.3877 13.7128 20.3877 13.7128C20.3877 13.7128 20.6512 13.6879 20.6261 13.5703C20.6012 13.4457 20.5557 13.4457 20.5557 13.4457C20.5557 13.4457 21.0647 13.2345 21.1537 13.1219C21.2426 13.0093 21.232 12.8762 21.2499 12.8229C21.3102 12.8229 21.6626 12.6378 21.8051 12.7162C21.9475 12.7945 21.8478 13.0081 21.8478 13.0081C21.8478 13.0081 22.2789 12.684 22.4985 12.3663C22.6907 12.3841 22.7801 12.2346 22.9209 12.2346C23.0955 12.2346 23.3696 12.473 23.4229 12.982C23.4585 13.274 23.5118 13.4413 23.4585 13.9575C23.4337 14.2495 23.4407 14.8727 23.5289 15.182C23.5893 15.4277 23.7317 15.4029 23.7317 15.4029C23.7098 15.4777 23.6665 15.5445 23.6071 15.595C23.5109 15.684 23.5003 15.9191 23.5109 16.0081C23.5251 16.0731 23.5429 16.1372 23.5644 16.2003C23.5644 16.2003 23.4506 16.3319 23.4219 16.4211C23.3971 16.51 23.2797 16.5706 23.1941 16.5706C23.1084 16.5706 23.1514 16.5633 23.0376 16.5706C22.9237 16.5778 22.8881 16.5954 22.8167 16.5706C22.7454 16.5457 22.6921 16.517 22.7208 16.289C22.7456 16.0611 21.8415 15.5307 21.8415 15.5307L20.3631 15.0039L20.3663 15.0051Z" fill="#CCA849"/>
<path fill-rule="evenodd" clip-rule="evenodd" d="M18.6682 17.2549C18.6682 17.2549 18.992 17.6858 20.3235 17.6858C20.9571 17.6858 21.1779 17.6253 21.3091 17.5896C21.4515 17.5539 21.9854 17.3441 22.523 16.7103C23.0072 16.1372 22.9004 15.9023 22.9004 15.9023L22.6188 15.8596L21.7036 15.9842L18.9955 17.1376L18.667 17.2549H18.6682Z" fill="#585136"/>
<path fill-rule="evenodd" clip-rule="evenodd" d="M19.6617 17.3616C19.6617 17.3616 18.5083 17.6181 18.5083 16.8883C18.5083 16.1763 19.2203 15.4286 19.3984 15.297C19.5835 15.1651 20.025 15.0154 20.025 15.0154H21.0894L21.2922 15.553L21.2032 16.7134L19.6617 17.3613V17.3616Z" fill="#252211"/>
<path fill-rule="evenodd" clip-rule="evenodd" d="M20.7258 15.2331C20.7258 15.2331 20.5052 15.0301 20.0032 15.3035C19.5013 15.5769 19.0953 16.1483 19.0704 16.6672C19.0456 17.1262 19.4478 17.4681 20.0743 17.4859C20.5406 17.5035 20.822 17.4503 20.9644 17.4155C20.9288 17.3728 20.7436 17.1414 20.7436 17.1414L20.726 15.2334L20.7258 15.2331Z" fill="#C3B378"/>
<path fill-rule="evenodd" clip-rule="evenodd" d="M20.5091 15.3466C20.5091 15.3466 20.4558 15.3039 20.2979 15.3893C20.1662 15.4597 19.9741 15.6458 19.8246 15.7775C19.7284 15.8558 19.6678 15.8913 19.6134 15.9518C19.3925 16.2154 19.2074 16.6462 19.3144 16.8597C19.4214 17.0733 19.7736 17.319 20.6708 17.1517L20.5065 15.3468L20.5091 15.3466Z" fill="#E6D89C"/>
<path fill-rule="evenodd" clip-rule="evenodd" d="M20.2168 15.7884C20.2168 15.7884 20.0743 16.0092 20.0743 16.3617C20.0743 16.7212 20.2773 17.2942 21.0249 17.3369C21.598 17.3726 21.9824 16.5111 22.3989 16.1765C22.7157 15.9202 22.9079 15.913 22.9079 15.913C22.9079 15.913 22.5841 15.561 21.7191 15.105C20.8647 14.6458 19.907 14.5852 19.3872 15.2902C19.6329 15.2723 20.4268 15.0693 20.4268 15.0693L20.8149 15.194L20.2168 15.7886V15.7884Z" fill="#252211"/>
<path fill-rule="evenodd" clip-rule="evenodd" d="M21.3347 16.2546C21.3098 16.2013 21.292 16.13 21.3952 16.1124C21.4985 16.0948 21.5447 16.1051 21.5804 16.1828C21.616 16.2604 21.6508 16.3252 21.598 16.3574C21.5447 16.3858 21.4058 16.3574 21.3344 16.2541L21.3347 16.2546ZM21.1674 15.7526C21.1674 15.7526 21.1317 15.7775 21.1495 15.7277C21.1566 15.6674 21.203 15.5604 21.3168 15.5855C21.4307 15.6106 21.406 15.735 21.3872 15.7707C21.3685 15.8064 21.2734 15.8667 21.2021 15.8411C21.193 15.8388 21.1847 15.8344 21.1777 15.8282C21.1706 15.8221 21.1652 15.8143 21.1617 15.8057C21.1582 15.797 21.1568 15.7876 21.1577 15.7783C21.1585 15.769 21.1615 15.7601 21.1664 15.7522L21.1674 15.7526Z" fill="#6F674D"/>
<path fill-rule="evenodd" clip-rule="evenodd" d="M11.5312 15.9802C11.5312 15.9802 11.8129 16.1914 12.14 16.1832C12.4638 16.1759 12.8803 15.8415 13.0725 15.6277C13.1864 15.5031 13.2837 15.3715 13.3893 15.2682C13.4785 15.1793 13.5388 15.1366 13.5815 15.076C13.6421 15.0056 13.7061 14.8733 13.7383 14.8303C13.6599 14.8909 13.5461 14.9979 13.4285 15.069C13.3147 15.1394 13.069 15.2717 12.9693 15.3074C12.8733 15.3431 11.8764 15.8706 11.8764 15.8706L11.5312 15.9802Z" fill="#AC924C"/>
<path fill-rule="evenodd" clip-rule="evenodd" d="M11.9614 13.3497C11.9614 13.3497 12.1179 13.243 12.4207 13.1751C12.7126 13.1047 13.3 13.0505 13.3 13.0505L13.7841 13.2617L13.9763 13.9916L13.6243 14.75L13.1758 15.0316L12.6666 14.2128L11.9626 13.3511L11.9614 13.3497Z" fill="#9F8E57"/>
<path fill-rule="evenodd" clip-rule="evenodd" d="M11.3282 14.0013L11.1606 14.1264C11.1606 14.1264 11.2036 14.048 11.239 13.8096C11.2745 13.5711 11.4598 12.9908 11.7304 12.6562C12.001 12.3215 11.9939 12.3394 11.9939 12.3394C11.969 12.3348 11.9435 12.3356 11.9189 12.3417C11.8943 12.3479 11.8714 12.3591 11.8515 12.3748C11.8872 12.296 12.115 12.0144 12.3429 11.8736C12.5708 11.7328 12.6597 11.6884 12.8981 11.8032C13.1365 11.9179 13.1971 11.9775 13.3717 11.9705C13.5463 11.9634 13.6955 11.7783 13.6955 11.7783C13.6955 11.7783 13.7312 11.8921 13.5995 12.1556C13.4679 12.4192 12.9481 12.9566 12.9481 12.9566L11.8658 13.6969L11.3282 14.002V14.0013Z" fill="#EAC970"/>
<path fill-rule="evenodd" clip-rule="evenodd" d="M12.1289 13.261C12.1289 13.261 12.9122 13.3678 13.1506 13.1472C13.1576 13.1721 13.1863 13.1721 13.1863 13.1899C13.1844 13.2033 13.1781 13.2158 13.1684 13.2253C13.1944 13.2212 13.2206 13.2188 13.2468 13.2183C13.2782 13.2276 13.3104 13.2336 13.343 13.2361C13.3693 13.2356 13.3955 13.2331 13.4214 13.2289C13.4189 13.2466 13.4129 13.2636 13.4037 13.2789C13.3945 13.2942 13.3824 13.3075 13.3679 13.318C13.4036 13.318 13.4383 13.3251 13.4383 13.3535C13.4383 13.3819 13.4453 13.4675 13.4026 13.4853C13.3673 13.4951 13.3296 13.4926 13.2959 13.4781C13.2987 13.5455 13.317 13.6113 13.3494 13.6705C13.4198 13.8021 13.57 13.9521 13.7718 13.9089C13.7718 13.9089 13.8783 14.1652 13.4299 14.7347C13.3696 14.8131 13.3053 14.9199 13.2271 15.0088C13.1962 15.0761 13.1726 15.1465 13.1567 15.2188C13.1567 15.2188 13.9152 14.9269 14.1322 14.2612C14.353 13.5919 14.3957 12.9334 14.353 12.3176C14.3458 12.1431 14.3174 12.0187 14.2747 11.9295C14.1679 11.7087 13.8687 11.7444 13.7478 11.869C13.5732 12.0436 13.2813 12.4777 12.8756 12.7767C12.4626 13.0756 12.445 13.1287 12.1279 13.261H12.1289Z" fill="#D7BC6B"/>
<path fill-rule="evenodd" clip-rule="evenodd" d="M11.1889 14.222C11.1889 14.222 11.0394 14.3109 10.9611 14.6444C10.8827 14.9861 11.0315 15.4026 11.1176 15.5343C11.2037 15.6659 11.3992 16.0257 11.8047 16.0435C11.9051 16.043 12.0043 16.0224 12.0966 15.9829C12.2382 15.918 12.3709 15.8355 12.4918 15.7372C12.6664 15.6056 12.8086 15.4918 12.7908 15.481C12.748 15.4632 11.7157 14.6087 11.7157 14.6087L11.3276 14.1755L11.1887 14.2225L11.1889 14.222Z" fill="#585136"/>
<path fill-rule="evenodd" clip-rule="evenodd" d="M12.1647 15.6387C12.1647 15.6387 12.3747 15.6211 12.4993 15.5427C12.624 15.4643 11.7695 14.6172 11.7695 14.6172L11.8301 15.5324L12.1647 15.6387Z" fill="#453A25"/>
<path fill-rule="evenodd" clip-rule="evenodd" d="M11.2568 14.1577C11.2568 14.1577 11.15 14.3607 11.15 14.4142C11.1322 14.5886 11.1857 15.1368 11.2284 15.3111C11.2711 15.4963 11.5025 15.7774 11.8017 15.7774C11.9866 15.7774 12.2431 15.6636 12.2431 15.6352C12.2431 15.5995 11.9796 15.5648 11.9085 15.4322C11.8657 15.3618 11.8479 15.1867 11.8381 15.0098C11.831 14.896 11.831 14.7714 11.8737 14.7282C11.9699 14.6214 11.9875 14.3152 11.9875 14.3152L12.3292 13.6804H11.8798L11.3422 14.0151L11.2568 14.1577Z" fill="#84754B"/>
<path fill-rule="evenodd" clip-rule="evenodd" d="M11.125 14.3537C11.125 14.3537 11.477 13.8874 11.7943 13.7804C12.1115 13.6734 12.2535 13.7377 12.2535 13.7377L12.0684 14.2112L11.8048 14.5032L11.8227 14.6527C11.8227 14.6527 11.7797 15.0478 12.0433 15.3219C12.3068 15.596 12.5025 15.5855 12.6165 15.5855C12.7306 15.5855 13.0579 15.4892 13.2253 15.0941C13.3747 14.724 13.4994 14.2493 13.2004 13.7734C12.9082 13.2998 12.3922 13.2815 12.2925 13.2815C12.1927 13.2815 11.4097 13.3207 11.125 14.353V14.3537Z" fill="#252211"/>
<path fill-rule="evenodd" clip-rule="evenodd" d="M20.1634 15.9378C20.0318 15.8773 20.1564 15.5072 20.2881 15.3932C20.4197 15.2791 20.587 15.1477 20.8792 15.1297C20.9857 15.1226 21.089 15.1902 21.0714 15.2615C21.0465 15.3932 20.8613 15.5783 20.694 15.71C20.4626 15.8916 20.3129 16.0054 20.1634 15.9378Z" fill="#F7F7E7"/>
<path fill-rule="evenodd" clip-rule="evenodd" d="M13.0438 13.9194C13.14 13.9123 13.2646 13.9898 13.2895 14.094C13.3143 14.2078 13.2289 14.4357 13.0438 14.4357C12.8943 14.4357 12.8159 14.2505 12.8159 14.1972C12.8176 14.1534 12.8298 14.1107 12.8516 14.0726C12.8586 14.0618 12.8765 13.9372 13.0438 13.9194Z" fill="#F8F6DE"/>
<path fill-rule="evenodd" clip-rule="evenodd" d="M11.6552 14.0012C11.6552 14.0012 11.4095 14.115 11.2957 14.3532C11.2144 14.5291 11.1898 14.7259 11.2253 14.9164C11.2431 15.0054 11.3321 15.2259 11.3926 15.3043C11.4532 15.3827 11.5351 15.4362 11.5956 15.4289C11.6562 15.4217 11.7805 15.2616 11.7805 15.1656C11.7805 15.0697 11.7878 14.6637 11.9051 14.4429C12.0084 14.2223 11.6559 14.0015 11.6559 14.0015L11.6552 14.0012Z" fill="#D4C38B"/>
<path fill-rule="evenodd" clip-rule="evenodd" d="M11.6908 13.9835C11.648 14.0083 11.5769 14.044 11.5945 14.0902C11.6124 14.1329 11.7619 14.1606 11.8154 14.2648C11.8759 14.3716 11.8759 14.4854 11.8581 14.5389C11.9046 14.5168 11.9468 14.4866 11.9827 14.4498C12.0611 14.3608 12.157 14.24 12.2389 14.24C12.2924 14.24 12.3457 14.2648 12.3957 14.2648C12.4741 14.2648 12.5522 14.24 12.563 14.1581C12.5806 14.0513 12.4135 13.9551 12.3173 13.9729C12.3352 13.9025 12.36 13.7985 12.2816 13.7272C12.2033 13.6559 11.9578 13.7807 11.9043 13.8164C11.8508 13.8521 11.6908 13.9837 11.6908 13.9837V13.9835Z" fill="#E2D59D"/>
<path fill-rule="evenodd" clip-rule="evenodd" d="M17.3477 21.4627L17.8745 21.3071L18.024 21.4139C18.024 21.4139 18.1305 21.6418 18.2981 21.6702C18.2446 21.784 18.1056 21.8814 18.1129 21.9621C18.1202 22.0428 18.1913 22.1045 18.1913 22.1045C18.1913 22.1045 17.7177 22.8876 18.6505 23.6768C18.4297 23.7657 18.1486 23.888 17.9991 23.9584C18.1056 23.9833 18.3335 24.0288 18.4297 24.1152C18.5259 24.2015 18.5259 24.229 18.6149 24.2825C18.7038 24.336 18.7571 24.4071 18.7395 24.439C18.6789 24.4033 18.4759 24.2968 18.4405 24.3963C18.4051 24.4958 17.5612 24.4568 17.5612 24.4568L16.1372 24.7309C16.1372 24.7309 16.1905 24.5885 16.041 24.4568C15.8667 24.3003 15.6531 24.4639 15.4253 24.2895C15.1263 24.0616 15.1155 23.7981 15.0195 23.6986C15.1155 23.6381 15.3115 23.5491 15.7777 23.4874C15.7599 23.4517 15.6994 23.345 15.735 23.249C15.7777 23.1244 15.9556 23.046 15.9023 22.897C15.9807 22.8792 16.0162 22.8792 16.2121 22.6335C16.3973 22.3878 16.5111 22.3345 16.6535 22.3167C16.796 22.2988 16.8814 22.3167 17.1449 22.071C17.3298 21.8966 17.2695 21.7471 17.2695 21.7471C17.2695 21.7471 17.3904 21.7079 17.3479 21.4622L17.3477 21.4627Z" fill="#CBAC5A"/>
<path fill-rule="evenodd" clip-rule="evenodd" d="M15.7918 21.5418C15.7989 21.5061 15.8275 21.4883 16.0197 21.5061C16.2119 21.524 17.4293 21.3923 17.7605 21.3745C18.0951 21.3496 19.2734 21.3672 19.8466 21.4883C20.4199 21.6094 21 21.7518 21.2812 21.8229C21.5628 21.9013 21.6515 21.9295 21.6407 21.9651C21.6336 22.0008 21.5703 22.0355 21.5339 22.0257C21.4985 22.0186 20.5657 21.7338 20.2775 21.6737C19.9893 21.6136 18.9922 21.4529 18.4471 21.4625C17.9381 21.4698 17.7351 21.4554 17.3045 21.5052C16.8737 21.5587 16.1617 21.6298 15.9481 21.6014C15.7369 21.5765 15.7806 21.5765 15.7914 21.5409L15.7918 21.5418Z" fill="#D6BC6F"/>
<path fill-rule="evenodd" clip-rule="evenodd" d="M18.6576 24.332C18.6576 24.332 19.3874 24.7272 19.6509 25.2113C19.8431 25.5708 19.5371 25.749 19.5371 25.749C19.5371 25.749 19.9501 25.749 19.8966 25.9768C19.8717 26.119 19.1846 26.5034 18.7254 26.7064C18.2591 26.9094 18.2769 26.8988 18.0491 26.9343C17.8282 26.9699 17.223 26.8639 17.0984 27.041C16.9738 27.2182 17.028 27.4008 17.0628 27.4292C17.0984 27.454 17.3868 27.4897 17.3868 27.4897C17.3868 27.4897 17.3263 27.657 16.7284 27.6749C16.1304 27.6927 15.9807 27.7352 15.945 27.7995C15.9094 27.8598 16.0589 27.8243 16.3332 27.8699C16.6073 27.9126 16.9917 27.9403 16.9917 27.9403C16.9917 27.9403 16.867 28.047 16.5432 28.1325C16.1729 28.2284 15.5926 28.3176 15.4182 28.4244C15.5072 28.4849 15.639 28.5739 15.6998 28.5809C15.5503 28.6166 15.3401 28.695 15.3046 28.7234C15.3579 28.759 15.4292 28.8017 15.4292 28.8017C15.4292 28.8017 15.13 29.1612 14.9557 29.2504C14.7813 29.3396 13.7774 29.8056 13.432 29.7167C12.5705 29.4888 12.4638 28.5455 12.2537 28.4744C11.9369 28.3676 11.7875 28.5809 11.5061 28.4314C11.6307 28.3425 11.6985 28.2892 11.8302 28.2287C11.6877 28.1583 10.9509 27.6911 10.9509 27.6911C10.8738 27.5231 10.7883 27.3592 10.6946 27.1999C10.5522 26.9542 10.3426 26.6266 10.1854 26.3382C9.84371 25.7046 9.82587 25.4127 9.51611 25.0532C9.56962 24.9828 9.75453 24.9926 9.75453 24.9926L12.3499 25.847L16.952 25.9803L18.1488 24.2717L18.6578 24.3323L18.6576 24.332Z" fill="#DFC677"/>
<path fill-rule="evenodd" clip-rule="evenodd" d="M11.8403 26.9377C11.8681 26.9686 11.9005 26.995 11.9363 27.0161C12.0255 27.0766 12.1571 27.1479 12.2461 27.2545C12.2817 27.2012 12.3707 27.105 12.5277 27.2545C12.6847 27.404 12.8797 27.2974 13.001 27.3329C13.1256 27.3758 13.1326 27.3934 13.1326 27.3934C13.1326 27.3934 13.203 27.3329 13.3605 27.2688C13.4567 27.2331 13.5705 27.2083 13.6951 27.1728C13.809 27.1479 13.9336 27.1123 14.0192 27.1123C14.0976 27.1655 14.3787 27.4643 15.5072 27.0233C16.5717 26.6103 16.8171 26.5641 16.9953 26.6279C17.0131 26.5852 17.0309 26.5033 17.305 26.5141C17.305 26.4003 17.0772 26.0122 17.0772 26.0122L15.8205 25.5815H15.1332L13.0721 25.9589L11.93 26.6106L11.841 26.9391L11.8403 26.9377Z" fill="#C4A859"/>
<path fill-rule="evenodd" clip-rule="evenodd" d="M11.1533 26.2152C11.1533 26.2152 11.1782 26.4074 11.4631 26.6104C11.7447 26.8132 11.8331 26.9342 11.8331 26.9342C11.8331 26.9342 11.8867 26.8638 11.9294 26.792C11.9721 26.7137 12.0077 26.6247 12.0788 26.5998C12.2213 26.5393 12.5451 26.6531 12.6165 26.6353C12.677 26.6177 12.6592 26.4931 12.7232 26.4931C12.8727 26.4858 12.9687 26.589 13.0222 26.589C13.0757 26.589 13.2071 26.582 13.225 26.5536C13.2428 26.5252 13.2498 26.2295 13.4528 26.0871C13.6736 25.9306 13.9442 25.9982 14.016 26.0338C14.016 26.0871 14.0231 26.219 14.1655 26.226C14.3079 26.2331 14.322 26.2082 14.4471 26.2509C14.5722 26.2936 14.7212 26.2439 14.7888 26.4536C14.8493 26.436 14.9918 26.4182 14.9561 26.2152C15.0265 26.162 15.088 26.1263 15.2377 25.9163C15.2734 25.863 15.3337 25.8024 15.3801 25.7241C15.5047 25.7241 15.6542 25.6992 15.8535 25.8735C15.7929 25.9163 15.7572 25.9439 15.7396 25.9874C15.7918 26.039 15.8393 26.0949 15.8819 26.1547C15.9354 26.2251 15.971 26.3114 16.0386 26.3293C16.1881 26.372 16.4338 26.3114 16.7079 26.3293C16.9714 26.3471 17.192 26.4431 17.2882 26.5036C17.3239 26.486 17.3239 26.4788 17.4128 26.4966C17.5018 26.5144 17.5693 26.5215 17.4734 26.4076C17.5266 26.4325 17.5872 26.486 17.6407 26.4325C17.6942 26.379 17.7367 26.3009 17.8861 26.283C18.0356 26.2652 18.0891 26.2901 18.1497 26.1336C18.2281 25.9414 17.9575 25.9414 17.9575 25.9414C17.9575 25.9414 18.0821 25.8273 18.221 25.6778C18.3883 25.5213 18.5805 25.3183 18.6267 25.0691C18.7051 24.6099 18.2567 24.5496 18.2567 24.5496L16.0816 25.2188L13.4223 25.0869L11.1547 26.2155L11.1533 26.2152Z" fill="#927D49"/>
<path fill-rule="evenodd" clip-rule="evenodd" d="M9.19931 19.9321C9.19931 19.9321 9.12891 20.021 9.08549 20.2311C9.04208 20.4411 9.06062 20.4162 9.02495 20.5657C8.98928 20.7152 8.55116 22.2032 8.71542 22.7051C8.87969 23.2071 9.16411 23.3922 9.34198 23.798C9.37765 23.8869 9.41238 23.9404 9.43092 24.0188C9.49147 24.2821 9.4382 24.4851 9.5093 24.7486C9.53418 24.8376 9.59848 24.9408 9.69445 25.0476C9.90565 25.2682 10.2499 25.4782 10.3985 25.6277C10.6082 25.8485 10.9074 26.2972 11.2883 26.3397C11.4913 26.3645 11.7797 26.2791 12.0181 26.1369C12.2293 26.005 12.3598 25.8201 12.5813 25.7145C12.7378 25.6361 12.9052 25.6077 13.0546 25.5721C13.3644 25.5115 13.6458 25.5017 13.8131 25.5364C14.0693 25.5899 14.6745 25.7751 15.0099 25.7751C15.2719 25.7708 15.5325 25.735 15.7859 25.6683C16.2949 25.5188 16.9107 25.2623 17.3167 25.1485C17.5551 25.0781 17.7473 25.0596 17.9432 25.0168C18.2779 24.9385 18.559 24.8317 18.7193 24.6287C18.6125 24.5041 18.4808 24.3119 17.7686 24.3189C16.9607 24.3368 16.0279 24.7852 15.5686 24.8566C15.1094 24.9279 14.9102 24.9882 14.3974 24.8031C13.8948 24.616 13.8781 24.4924 13.8781 24.4924C13.8781 24.4924 13.3503 24.1232 13.1295 23.1822C12.9087 22.2412 13.1295 21.5555 13.7028 20.9038C13.8523 20.7365 13.8166 20.587 13.8166 20.587C13.8166 20.587 14.194 20.078 14.0907 19.6014C13.9769 19.1279 13.2471 19.2241 13.2471 19.2241L9.19954 19.9321H9.19931Z" fill="#6E6342"/>
<path fill-rule="evenodd" clip-rule="evenodd" d="M9.80785 21.5161C9.77646 21.5751 9.7617 21.6416 9.76514 21.7083C9.77218 21.8043 9.80081 21.9289 10.089 22.2103C10.3347 22.4557 10.2812 22.7298 10.2812 22.7298C10.2812 22.7298 10.4048 22.7547 10.7404 22.5977C11.0039 22.4731 11.0924 22.6939 11.0924 22.6939C11.1691 22.6537 11.2523 22.6272 11.3381 22.6155C11.4159 22.6084 11.4912 22.5843 11.5587 22.5451C11.5587 22.5451 11.8685 22.8619 12.139 23.0114C12.3847 23.1433 12.5272 23.2322 12.6483 23.1433C12.7621 23.0649 12.7621 22.9046 12.7548 22.8335C12.7266 22.7679 12.6908 22.7058 12.6483 22.6484C12.5699 22.5346 12.4453 22.4027 12.4371 22.2964C12.4192 22.0509 12.6222 21.7588 12.5793 21.6877C12.5363 21.6166 12.3765 21.5987 11.9813 21.7412C11.5721 21.8763 9.8062 21.5168 9.8062 21.5168L9.80785 21.5161Z" fill="#39331F"/>
<path fill-rule="evenodd" clip-rule="evenodd" d="M10.7405 23.1075C10.7405 23.1075 10.5378 22.9153 10.6089 21.9825C10.6949 21.9813 10.7809 21.9896 10.8651 22.0074C10.8651 22.0074 10.9757 22.7302 10.7405 23.1075Z" fill="#292311"/>
<path fill-rule="evenodd" clip-rule="evenodd" d="M9.29509 19.2199C9.32338 19.199 9.34962 19.1754 9.37347 19.1495C9.30307 19.2812 8.97806 19.808 9.24159 20.6376C9.50512 21.4633 10.1671 22.0791 10.9823 22.1077C11.7976 22.1364 12.2261 21.7374 12.7161 21.1395C12.9083 20.9011 13.1291 20.6019 13.3248 20.3991C13.6167 20.0821 13.8446 19.9932 13.8446 19.6872C13.8446 19.0606 13.2037 18.7792 12.2603 18.4981C11.317 18.217 10.4661 18.2517 10.0247 18.4441C9.59406 18.6539 9.4089 18.8747 9.29485 19.2202L9.29509 19.2199Z" fill="#252211"/>
<path fill-rule="evenodd" clip-rule="evenodd" d="M12.3244 23.3885L12.3948 23.3529C12.3948 23.3529 12.4124 23.0713 12.5265 23.0788C12.6403 23.0966 12.6938 23.2463 12.683 23.2996C12.676 23.3529 12.6476 23.442 12.5335 23.4312C12.384 23.4348 12.3237 23.3885 12.3237 23.3885H12.3244Z" fill="#3F3824"/>
<path fill-rule="evenodd" clip-rule="evenodd" d="M12.0078 22.1926C12.0078 22.1926 12.0782 22.1677 12.1643 22.2531C12.2347 22.2531 12.5417 22.2175 12.6379 22.278C12.7341 22.3385 12.7625 22.3918 12.7625 22.3918C12.7625 22.3918 12.403 22.4702 12.207 22.3918C12.0078 22.3242 12.0078 22.1926 12.0078 22.1926Z" fill="#2D2815"/>
<path fill-rule="evenodd" clip-rule="evenodd" d="M13.5922 22.2459C13.5922 22.228 13.4001 22.0964 13.1971 22.0535C13.1614 22.0464 13.1541 22.0713 13.1267 22.0713C13.1088 22.0642 13.1018 22.0107 13.1018 22.0107L12.9863 22.0715C12.9863 22.0715 12.9685 22.0964 13.029 22.1419C13.0823 22.1846 13.1715 22.2203 13.1964 22.2914C13.2212 22.3625 13.2212 22.3874 13.232 22.3982C13.2391 22.4052 13.3637 22.3982 13.4242 22.3625C13.4848 22.3268 13.5988 22.2686 13.5915 22.2452L13.5922 22.2459Z" fill="#82764F"/>
<path fill-rule="evenodd" clip-rule="evenodd" d="M11.7944 22.9686C11.7944 22.9686 11.8299 22.7232 12.0685 22.7124C12.314 22.6945 12.3604 22.933 12.3604 22.933L12.218 23.0754C12.218 23.0719 12.1112 22.9224 11.7956 22.9686H11.7944Z" fill="#2D2816"/>
<path fill-rule="evenodd" clip-rule="evenodd" d="M13.343 21.9112C13.343 21.9112 13.2112 22.0536 12.9195 22.0963C12.8946 22.0606 12.8411 21.9895 12.9195 21.8757C12.9978 21.7619 13.0868 21.7262 13.1757 21.7617C13.215 21.768 13.2516 21.7855 13.2812 21.812C13.3109 21.8385 13.3323 21.8729 13.343 21.9112Z" fill="#574F35"/>
<path fill-rule="evenodd" clip-rule="evenodd" d="M13.8801 22.0858C13.8874 22.0502 13.8625 22.0431 13.8801 22.0253C13.8977 22.0075 13.9942 21.972 14.012 21.9896C14.0191 21.9969 14.012 22.0253 14.012 22.06C14.012 22.0948 14.012 22.1304 13.9942 22.156C13.9693 22.1917 13.8982 22.2095 13.8625 22.1989C13.8269 22.1884 13.8198 22.1384 13.8198 22.1285C13.8374 22.1215 13.8801 22.1037 13.8801 22.0858ZM14.4879 21.7015C14.4879 21.6836 14.5485 21.6479 14.5841 21.6479C14.6374 21.6479 14.6374 21.6907 14.6447 21.7015C14.6623 21.7085 14.6623 21.6942 14.6801 21.7263C14.6979 21.7585 14.7231 21.8153 14.705 21.8509C14.6869 21.8866 14.616 21.9112 14.5984 21.9042C14.5736 21.8864 14.4952 21.7263 14.4879 21.7015Z" fill="#82764F"/>
<path fill-rule="evenodd" clip-rule="evenodd" d="M13.2646 22.1677C13.2646 22.1677 13.343 22.1853 13.4498 22.2745C13.4141 22.2994 13.3606 22.3278 13.3606 22.3278C13.3606 22.3278 13.3536 22.2459 13.2646 22.1675V22.1677Z" fill="#6E6342"/>
<path fill-rule="evenodd" clip-rule="evenodd" d="M13.0902 21.3843C13.0724 21.3667 13.1435 21.324 13.1862 21.331C13.2289 21.3381 13.2467 21.3667 13.293 21.3737C13.3392 21.3808 13.3465 21.3559 13.3634 21.3381C13.3803 21.3202 13.4417 21.331 13.4523 21.3381C13.4589 21.3459 13.4648 21.3542 13.4701 21.3629C13.4709 21.3494 13.4744 21.3362 13.4805 21.324C13.4866 21.3119 13.4951 21.3012 13.5056 21.2925C13.5192 21.2825 13.535 21.2757 13.5516 21.2726C13.5683 21.2695 13.5854 21.2702 13.6018 21.2747C13.6088 21.2996 13.6445 21.3885 13.6375 21.4063C13.6304 21.4242 13.5236 21.4493 13.5056 21.4312C13.5234 21.4742 13.6018 21.5631 13.6123 21.5807C13.6229 21.5983 13.534 21.6412 13.4985 21.6342C13.4488 21.6307 13.1425 21.4526 13.0893 21.385L13.0902 21.3843ZM13.5565 20.7934C13.5499 20.7755 13.5373 20.7604 13.5208 20.7507C13.496 20.7436 13.4141 20.7507 13.4141 20.7934C13.4141 20.8361 13.4845 21.075 13.5635 21.1994C13.6527 21.324 13.713 21.427 13.7736 21.4556C13.7926 21.4643 13.8142 21.4654 13.834 21.4588C13.8538 21.4522 13.8703 21.4383 13.8803 21.42C13.8874 21.4021 13.9052 21.2705 13.8982 20.9607C13.8911 20.651 13.8803 20.352 13.8625 20.3342C13.8447 20.3163 13.7736 20.3166 13.7487 20.352C13.7238 20.3874 13.5635 20.7401 13.5563 20.7934H13.5565Z" fill="#585136"/>
<path fill-rule="evenodd" clip-rule="evenodd" d="M13.2398 22.6161C13.2398 22.6161 13.1152 22.5377 12.9941 22.5912C12.8803 22.6447 12.8873 22.8547 12.8873 22.8547C12.9129 22.8648 12.9406 22.8684 12.9679 22.8653C12.9952 22.8622 13.0214 22.8524 13.044 22.8369C13.1224 22.7836 13.2219 22.6947 13.2398 22.6163V22.6161Z" fill="#574F35"/>
<path fill-rule="evenodd" clip-rule="evenodd" d="M13.4747 22.8976C13.4677 22.8272 13.4043 22.8272 13.4043 22.7908C13.4087 22.7734 13.4187 22.758 13.4329 22.747C13.4471 22.736 13.4645 22.7301 13.4824 22.7302C13.5181 22.7302 13.5528 22.773 13.5965 22.8006C13.6392 22.8255 13.7033 22.871 13.7103 22.9253C13.7173 22.9795 13.6399 23.128 13.5538 23.128C13.4677 23.128 13.4932 22.9677 13.4754 22.8966L13.4747 22.8976ZM14.1618 22.8013C14.1618 22.8013 14.0194 22.8441 14.0299 22.8013C14.0405 22.7586 14.0729 22.7481 14.1191 22.7481C14.1426 22.7235 14.1742 22.7082 14.208 22.7051C14.2274 22.7042 14.2464 22.7105 14.2613 22.723C14.2613 22.723 14.3575 22.6803 14.3859 22.7051C14.4143 22.73 14.3932 22.73 14.4108 22.7586C14.4332 22.7904 14.4479 22.827 14.4537 22.8654C14.4537 22.8938 14.347 22.9543 14.2613 22.9438C14.1618 22.9224 14.1794 22.8192 14.1618 22.8013ZM14.9911 22.6411C14.9911 22.6411 15.0338 22.6659 14.9984 22.6946C14.9735 22.7194 14.8489 22.765 14.7419 22.773C14.6351 22.773 14.5391 22.7906 14.5391 22.7551C14.5391 22.7197 14.6281 22.6483 14.6814 22.6305C14.692 22.6171 14.7056 22.6063 14.721 22.5989C14.7365 22.5915 14.7534 22.5877 14.7705 22.5878C14.8132 22.5878 14.9803 22.57 15.0268 22.5629C15.0695 22.5557 15.1052 22.5805 15.0801 22.6162C15.0695 22.6411 14.9911 22.6411 14.9911 22.6411ZM15.2368 21.5419C15.2368 21.5419 15.1833 21.6557 15.123 21.6557C15.0625 21.6487 15.0625 21.6308 15.0625 21.613C15.0625 21.5881 15.123 21.5241 15.1157 21.5062C15.0981 21.5062 15.0552 21.5062 15.0625 21.4635C15.0625 21.4278 15.123 21.3851 15.1763 21.3931C15.2165 21.36 15.2666 21.3413 15.3187 21.3398C15.3793 21.3398 15.4325 21.3574 15.4325 21.3931C15.4325 21.4288 15.3621 21.5069 15.3363 21.525C15.3079 21.5534 15.2722 21.5719 15.2368 21.5426V21.5419ZM14.4251 23.6457C14.4251 23.6457 14.3547 23.653 14.3547 23.6884C14.3547 23.7062 14.3723 23.7062 14.3974 23.6957C14.4119 23.6948 14.4262 23.6924 14.4401 23.6884C14.4472 23.6957 14.4472 23.7311 14.5007 23.7311C14.5446 23.7252 14.5869 23.7107 14.6253 23.6884C14.668 23.6708 14.7036 23.6527 14.7036 23.618C14.6858 23.5574 14.6501 23.5288 14.5969 23.5288C14.5696 23.5271 14.5424 23.5333 14.5185 23.5466C14.5185 23.5466 14.5007 23.511 14.4401 23.5466C14.3796 23.5823 14.3866 23.5823 14.4044 23.6002C14.4364 23.6285 14.4258 23.6471 14.4258 23.6471L14.4251 23.6457ZM14.0229 24.016C14.0229 23.9981 14.1118 23.9625 14.1367 23.9733C14.1616 23.9803 14.2327 24.1155 14.2327 24.1298C14.2327 24.1476 14.1437 24.1903 14.1081 24.1903C14.0724 24.1903 14.0121 24.1298 14.0121 24.1199C14.0121 24.1129 14.0548 24.1023 14.0548 24.0951C14.0654 24.0775 14.0229 24.0345 14.0229 24.0167V24.016ZM13.7413 23.4962C13.7591 23.4892 13.7591 23.4713 13.784 23.4535C13.7918 23.4483 13.8006 23.445 13.8099 23.4438C13.8192 23.4425 13.8286 23.4435 13.8375 23.4464C13.8438 23.4352 13.8525 23.4256 13.8629 23.4182C13.8734 23.4107 13.8854 23.4057 13.898 23.4035C13.9407 23.3965 13.9764 23.4035 13.9684 23.4213C13.9684 23.4748 14.0041 23.5103 14.0041 23.553C14.0041 23.5957 13.9792 23.6492 13.8903 23.6849C13.8014 23.7097 13.6803 23.7097 13.6624 23.7027C13.6446 23.6957 13.6268 23.6243 13.6446 23.5887C13.6624 23.553 13.7122 23.514 13.7408 23.4962H13.7413Z" fill="#82764F"/>
<path fill-rule="evenodd" clip-rule="evenodd" d="M13.8543 23.5203C13.8543 23.5203 13.7938 23.5559 13.7938 23.5738C13.7884 23.591 13.786 23.609 13.7867 23.627C13.7867 23.6376 13.8651 23.62 13.8757 23.6092C13.8792 23.6022 13.8543 23.5388 13.8543 23.5203Z" fill="#6E6342"/>
<path fill-rule="evenodd" clip-rule="evenodd" d="M13.3251 23.3531C13.3605 23.3604 13.4211 23.3531 13.4673 23.3709C13.503 23.3888 13.5279 23.4244 13.4922 23.4671C13.4565 23.5098 13.4218 23.5739 13.3427 23.5631C13.2538 23.5561 13.1683 23.5098 13.1683 23.4742C13.1668 23.4516 13.1699 23.429 13.1772 23.4076C13.1845 23.3862 13.196 23.3665 13.2111 23.3496C13.2467 23.3212 13.2643 23.339 13.3249 23.3531H13.3251Z" fill="#585136"/>
<path fill-rule="evenodd" clip-rule="evenodd" d="M13.2825 23.3887C13.2825 23.3887 13.1687 23.4776 13.14 23.5206C13.1044 23.5633 12.93 23.7839 12.8767 23.8301C12.8944 23.7989 12.9146 23.7691 12.937 23.7411C12.8666 23.7862 12.8139 23.854 12.7876 23.9333C12.7448 24.0652 13.0262 24.1363 13.2111 24.1898C13.396 24.2433 13.4676 24.2602 13.4676 24.2602C13.3995 24.1579 13.3411 24.0495 13.293 23.9364C13.2226 23.7691 13.1863 23.7512 13.2325 23.6729C13.2681 23.5945 13.3217 23.5412 13.3217 23.4807C13.3003 23.4243 13.2825 23.3887 13.2825 23.3887Z" fill="#574F35"/>
<path fill-rule="evenodd" clip-rule="evenodd" d="M9.2241 23.67C9.25001 23.6747 9.27657 23.6747 9.30248 23.67C9.35575 23.6627 9.91121 23.4588 10.4915 23.4954C10.926 23.5216 11.3566 23.5924 11.7766 23.7066C12.5064 23.8988 13.4141 24.2796 14.0014 24.4969C14.158 24.5572 14.3112 24.6642 14.4238 24.7067C14.8725 24.8813 14.8901 24.8813 15.1537 24.9275C15.4634 24.9702 15.7802 24.867 16.1113 24.7959C16.5171 24.7067 17.2112 24.664 17.8199 24.5751C18.0168 24.5478 18.2109 24.5037 18.4003 24.4434C18.4003 24.4434 17.9162 24.9275 16.7555 25.1019C16.2863 25.1731 15.8096 25.1791 15.3388 25.1197C14.9685 25.0841 14.723 25.0306 14.5379 24.9773C14.3279 24.9167 13.897 24.7565 13.3667 24.6253C12.9964 24.5291 12.5834 24.458 12.11 24.369C10.9423 24.1552 9.67513 23.9098 9.22363 23.6714L9.2241 23.67Z" fill="#252211"/>
<path fill-rule="evenodd" clip-rule="evenodd" d="M7.91403 21.47C7.63243 21.7084 7.3337 21.9363 7.04201 22.1568L6.16271 22.8324C5.86375 23.053 5.57182 23.2809 5.27262 23.5017C4.97342 23.7225 4.67469 23.9323 4.35742 24.1353C4.63902 23.8969 4.93775 23.6761 5.23672 23.459C5.53568 23.2419 5.84568 23.0291 6.13408 22.809L7.01338 22.1324C7.31586 21.9118 7.60779 21.684 7.91403 21.4704V21.47ZM6.35842 23.9619C6.35842 23.9619 6.67522 23.6984 7.0704 23.3283C7.56156 22.8693 8.16325 22.2817 8.35544 22.1751L6.35819 23.9621L6.35842 23.9619Z" fill="#CFB66C"/>
<path fill-rule="evenodd" clip-rule="evenodd" d="M6.3584 23.9617C6.51516 23.8052 6.68247 23.6522 6.84979 23.5025L7.10605 23.2819C7.18443 23.2115 7.2736 23.1324 7.35174 23.0541C7.50827 22.8975 7.6615 22.73 7.81803 22.5699C7.8956 22.4895 7.97763 22.4134 8.06372 22.3421C8.10676 22.304 8.15456 22.2716 8.20593 22.2459C8.24887 22.221 8.2951 22.1755 8.35541 22.1675C8.31998 22.221 8.27727 22.2459 8.2416 22.2921C8.19889 22.3278 8.16322 22.3705 8.12778 22.4059C8.04941 22.4843 7.96047 22.5554 7.88209 22.6267C7.71477 22.7692 7.54041 22.9083 7.3731 23.0573C7.20578 23.2064 7.04926 23.3671 6.8817 23.5166C6.70031 23.6698 6.53299 23.8193 6.3584 23.9624V23.9617ZM8.48729 22.5378C8.48729 22.5378 7.32687 23.6736 7.08821 23.8585L8.48729 22.5378Z" fill="#CFB66C"/>
<path fill-rule="evenodd" clip-rule="evenodd" d="M8.48697 22.5378C8.38258 22.6587 8.27066 22.7728 8.15187 22.8795L7.79987 23.2142C7.68606 23.328 7.57905 23.442 7.45819 23.5558C7.33359 23.6626 7.21977 23.767 7.08789 23.8656L7.42957 23.531C7.54361 23.4171 7.66822 23.3212 7.78931 23.2071L8.13098 22.8725C8.24832 22.7551 8.36237 22.6411 8.48697 22.5378ZM8.54024 23.1536C8.43328 23.4521 8.30724 23.7435 8.1629 24.0259C7.86393 24.624 7.41548 25.3714 7.21954 25.7525L8.54024 23.1536Z" fill="#CFB66C"/>
<path fill-rule="evenodd" clip-rule="evenodd" d="M8.54033 23.1538C8.54033 23.2855 8.50466 23.3995 8.46195 23.5133C8.42032 23.6272 8.37285 23.7389 8.31974 23.848C8.26624 23.9547 8.20569 24.0688 8.14515 24.172C8.08461 24.2753 8.0135 24.3818 7.96 24.4888L7.60049 25.1224C7.47588 25.3336 7.35479 25.546 7.22314 25.749C7.31208 25.5211 7.43317 25.3076 7.54722 25.0976C7.67183 24.8864 7.78564 24.6752 7.89922 24.4567C7.95467 24.3478 8.00456 24.2362 8.0487 24.1223C8.10197 24.0082 8.15524 23.9015 8.19818 23.7982C8.25145 23.6844 8.29416 23.5774 8.34767 23.4744C8.40798 23.3638 8.45796 23.2571 8.53986 23.1538H8.54033Z" fill="#CFB66C"/>
<path fill-rule="evenodd" clip-rule="evenodd" d="M9.80804 26.0728C9.80804 26.0728 9.45604 26.539 9.49124 27.1299C9.58722 26.8204 9.70831 26.3468 9.80804 26.0728ZM10.1427 26.5402C10.1427 26.5402 10.0181 27.8074 9.91482 28.4305C10.0608 27.7103 10.0892 27.7708 10.1427 26.5402ZM12.4743 28.5053C12.4743 28.5053 11.9475 30.0541 11.9367 30.4845C12.0508 30.0419 12.2713 29.1377 12.4743 28.5041V28.5053Z" fill="#DEC270"/>
<path fill-rule="evenodd" clip-rule="evenodd" d="M13.7061 25.9771C13.7061 25.9771 14.5605 27.3867 15.2014 28.5898C15.0279 27.9844 14.629 26.8739 13.7061 25.9771Z" fill="#CBAF59"/>
<path fill-rule="evenodd" clip-rule="evenodd" d="M16.002 28.0522C16.4711 28.8815 16.8941 29.7359 17.2692 30.6118C17.198 30.0065 17.0056 28.9707 16.002 28.0522Z" fill="#E3C677"/>
<path fill-rule="evenodd" clip-rule="evenodd" d="M22.7515 30.1306C22.8937 30.0417 23.1751 29.5573 23.4208 29.4365C23.6663 29.3119 23.8514 29.287 24.0722 29.0413C24.2928 28.7848 24.3538 28.6283 24.8375 28.4255C25.514 28.1334 25.0487 27.756 25.0487 27.756C25.1232 27.6828 25.2029 27.6151 25.2871 27.5533C25.4617 27.4216 25.6644 27.2614 25.6468 26.98C25.622 26.5067 25.533 25.8196 25.1449 25.4209C25.5222 25.3425 26.2448 25.2892 26.6937 25.1754C27.2132 25.0435 27.4519 24.8584 27.4519 24.8584C27.4519 24.8584 27.1529 24.3494 27.637 23.8369C28.1212 23.3244 28.5163 23.0181 28.8083 22.4448C28.4736 22.4021 27.9635 22.2242 26.6615 22.7189C26.7318 22.752 26.7997 22.79 26.8645 22.8327C26.8645 22.8327 26.0636 23.0536 25.7717 23.2993C25.2625 23.7299 25.1984 24.0823 24.6467 24.3459C24.095 24.6094 23.5395 24.5381 23.0805 24.7516C22.6215 24.9652 22.5537 25.1468 22.3861 25.2252C22.4218 25.2679 22.3791 25.339 22.4467 25.3995C22.404 25.4601 22.1548 25.8658 21.902 25.8658C21.9269 25.962 22.1405 26.0331 22.1405 26.0331C22.1405 26.0331 21.9839 26.1472 21.5852 26.1756C21.788 26.3868 21.9804 26.617 22.5108 26.9516C22.468 27.0405 22.2899 27.1724 22.3613 27.3397C22.4397 27.5071 22.6429 27.7349 23.4541 27.9201C23.0411 27.9377 22.5572 28.0339 21.9053 27.945C21.2539 27.8666 21.1471 27.8203 20.7449 27.9201C20.7876 27.9628 20.9014 27.9628 21.0011 28.0766C20.8944 28.0836 20.2251 27.9982 19.9972 28.2974C19.7588 28.6069 19.6556 29.1162 19.6734 29.4578C19.5488 29.5184 19.4277 29.6252 19.4883 29.846C19.5488 30.0668 19.8656 30.1379 20.0686 30.2766C20.2713 30.4261 20.2892 30.4794 20.4816 30.4439C20.6843 30.4012 20.9833 30.1985 21.1579 30.1985C21.3325 30.1985 21.4569 30.3301 21.4569 30.3301C21.4569 30.3301 21.9304 30.1022 21.9767 30.145C22.0194 30.1877 21.9837 30.4618 22.0299 30.5045C22.0769 30.5366 22.6103 30.2198 22.7527 30.1306H22.7515Z" fill="#ECD592"/>
<path fill-rule="evenodd" clip-rule="evenodd" d="M32.4172 16.1054C30.1923 10.3599 24.6922 9.29541 24.6922 9.29541H9.00023L9.06078 15.1478H12.1858V28.2161H9V34.0579H24.2578C27.935 34.0579 30.8827 30.3626 30.8827 30.3626C35.603 23.6631 32.4169 16.1054 32.4169 16.1054H32.4172ZM24.3397 26.4254C24.3397 26.4254 23.1429 28.1521 21.8407 28.1521H19.2359L19.1742 15.1621H22.517C22.517 15.1621 24.0658 15.4859 25.1479 18.5509C25.1479 18.5509 26.5824 22.9392 24.3397 26.4254Z" fill="white" fill-opacity="0.8"/>
</svg>
