<svg width="120" height="31" viewBox="0 0 120 31" fill="none" xmlns="http://www.w3.org/2000/svg">
<mask id="path-1-outside-1_10149_1074" maskUnits="userSpaceOnUse" x="24.293" y="4.8125" width="96" height="18" fill="black">
<rect fill="white" x="24.293" y="4.8125" width="96" height="18"/>
<path d="M33.7607 17.4666C33.7607 17.6761 33.5842 17.8525 33.3637 17.8525H26.0537C26.2412 19.6607 27.5973 21.3145 29.5158 21.3145C30.8278 21.3145 31.7981 20.8184 32.5258 19.771C32.603 19.6607 32.7132 19.5835 32.8455 19.5835C33.055 19.5835 33.2094 19.7379 33.2094 19.9474C33.2094 20.0245 33.1873 20.0797 33.1542 20.1348C32.4155 21.4138 30.9491 22.0422 29.5158 22.0422C27.0571 22.0422 25.293 19.8371 25.293 17.4886C25.293 15.1292 27.046 12.9351 29.5158 12.9351C31.9745 12.9351 33.7496 15.1181 33.7607 17.4666ZM32.9778 17.1248C32.8235 15.3166 31.4343 13.6628 29.5158 13.6628C27.5973 13.6628 26.2412 15.3166 26.0537 17.1248H32.9778ZM42.6363 13.1115C42.8458 13.1115 43.0001 13.2989 43.0001 13.4753C43.0001 13.6848 42.8458 13.8392 42.6363 13.8392H40.6737V21.5461C40.6737 21.7335 40.5194 21.9099 40.3099 21.9099C40.1004 21.9099 39.946 21.7225 39.946 21.5461V13.8392H38.0607C37.8512 13.8392 37.6968 13.6848 37.6968 13.4753C37.6968 13.2879 37.8512 13.1115 38.0607 13.1115H39.946V10.2999C39.946 10.1125 40.0894 9.93609 40.2768 9.91404C40.5083 9.89198 40.6848 10.0574 40.6848 10.2779V13.1115H42.6363ZM54.6101 16.8381V21.502C54.6101 21.7115 54.4227 21.8658 54.2463 21.8658C54.0368 21.8658 53.8824 21.7115 53.8824 21.502V16.8381C53.8824 15.2615 52.9894 13.6958 51.2363 13.6958C48.9871 13.6958 48.0168 15.6584 48.1491 17.6761C48.1491 17.7312 48.1712 17.9628 48.1712 17.9958V21.491C48.1712 21.6784 48.0278 21.8548 47.8404 21.8769C47.6089 21.8989 47.4324 21.7335 47.4324 21.513V6.17635C47.4324 5.98891 47.5868 5.8125 47.7963 5.8125C48.0058 5.8125 48.1601 5.99994 48.1601 6.17635V14.8425C48.7886 13.7179 49.9132 12.9571 51.2253 12.9571C53.3863 12.9571 54.6101 14.8425 54.6101 16.8381ZM67.7417 17.4666C67.7417 17.6761 67.5653 17.8525 67.3447 17.8525H60.0348C60.2222 19.6607 61.5783 21.3145 63.4968 21.3145C64.8089 21.3145 65.7791 20.8184 66.5068 19.771C66.584 19.6607 66.6942 19.5835 66.8265 19.5835C67.036 19.5835 67.1904 19.7379 67.1904 19.9474C67.1904 20.0245 67.1683 20.0797 67.1353 20.1348C66.3965 21.4138 64.9301 22.0422 63.4968 22.0422C61.0381 22.0422 59.274 19.8371 59.274 17.4886C59.274 15.1292 61.0271 12.9351 63.4968 12.9351C65.9445 12.9351 67.7196 15.1181 67.7417 17.4666ZM66.9478 17.1248C66.7935 15.3166 65.4042 13.6628 63.4858 13.6628C61.5783 13.6628 60.2112 15.3166 60.0237 17.1248H66.9478ZM76.7165 13.4533C76.7165 13.6848 76.5842 13.8171 76.3747 13.8502C74.2247 14.1699 73.2545 15.923 73.2545 17.9628V21.4579C73.2545 21.6453 73.1112 21.8217 72.9237 21.8438C72.6922 21.8658 72.5158 21.7004 72.5158 21.4799V13.5084C72.5158 13.321 72.6591 13.1445 72.8465 13.1225C73.0781 13.1004 73.2545 13.2658 73.2545 13.4863V15.1071C73.8609 14.0817 75.0627 13.1115 76.3196 13.1115C76.5071 13.1115 76.7165 13.2438 76.7165 13.4533ZM88.7455 17.4666C88.7455 17.6761 88.5691 17.8525 88.3486 17.8525H81.0386C81.226 19.6607 82.5822 21.3145 84.5006 21.3145C85.8127 21.3145 86.7829 20.8184 87.5106 19.771C87.5878 19.6607 87.6981 19.5835 87.8304 19.5835C88.0399 19.5835 88.1942 19.7379 88.1942 19.9474C88.1942 20.0245 88.1722 20.0797 88.1391 20.1348C87.4004 21.4138 85.934 22.0422 84.5006 22.0422C82.0419 22.0422 80.2778 19.8371 80.2778 17.4886C80.2778 15.1292 82.0309 12.9351 84.5006 12.9351C86.9594 12.9351 88.7345 15.1181 88.7455 17.4666ZM87.9627 17.1248C87.8083 15.3166 86.4191 13.6628 84.5006 13.6628C82.5822 13.6628 81.226 15.3166 81.0386 17.1248H87.9627ZM100.565 13.5415V21.5461C100.565 21.7556 100.378 21.9099 100.201 21.9099C99.9917 21.9099 99.8373 21.7556 99.8373 21.5461V20.0245C99.2309 21.2263 98.1614 22.0974 96.7942 22.0974C94.6222 22.0974 93.4204 20.212 93.4204 18.2163V13.5304C93.4204 13.343 93.5747 13.1666 93.7842 13.1666C93.9937 13.1666 94.1481 13.354 94.1481 13.5304V18.2163C94.1481 19.793 95.0411 21.3586 96.7942 21.3586C99.2529 21.3586 99.8373 19.0543 99.8373 16.5074V13.5194C99.8373 13.2989 100.069 13.0784 100.333 13.1776C100.466 13.2438 100.565 13.3871 100.565 13.5415ZM119.077 16.8051V21.491C119.077 21.7004 118.89 21.8548 118.713 21.8548C118.504 21.8548 118.349 21.7004 118.349 21.491V16.8051C118.349 15.2284 117.456 13.6848 115.703 13.6848C113.498 13.6848 112.66 16.0443 112.66 17.8745V21.491C112.66 21.7004 112.473 21.8548 112.296 21.8548C112.087 21.8548 111.932 21.7004 111.932 21.491V16.8051C111.932 15.2284 111.039 13.6848 109.286 13.6848C107.059 13.6848 106.144 15.4379 106.221 17.7753C106.221 17.8304 106.243 17.9297 106.221 17.9628V21.4799C106.221 21.6674 106.078 21.8438 105.89 21.8658C105.659 21.8879 105.482 21.7225 105.482 21.502V13.5084C105.482 13.321 105.626 13.1445 105.813 13.1225C106.045 13.1004 106.221 13.2658 106.221 13.4863V14.8204C106.85 13.6958 107.974 12.9571 109.286 12.9571C110.775 12.9571 111.932 13.9053 112.407 15.2835C113.013 13.9163 114.193 12.9571 115.703 12.9571C117.853 12.9571 119.077 14.8204 119.077 16.8051Z"/>
</mask>
<path d="M33.7607 17.4666C33.7607 17.6761 33.5842 17.8525 33.3637 17.8525H26.0537C26.2412 19.6607 27.5973 21.3145 29.5158 21.3145C30.8278 21.3145 31.7981 20.8184 32.5258 19.771C32.603 19.6607 32.7132 19.5835 32.8455 19.5835C33.055 19.5835 33.2094 19.7379 33.2094 19.9474C33.2094 20.0245 33.1873 20.0797 33.1542 20.1348C32.4155 21.4138 30.9491 22.0422 29.5158 22.0422C27.0571 22.0422 25.293 19.8371 25.293 17.4886C25.293 15.1292 27.046 12.9351 29.5158 12.9351C31.9745 12.9351 33.7496 15.1181 33.7607 17.4666ZM32.9778 17.1248C32.8235 15.3166 31.4343 13.6628 29.5158 13.6628C27.5973 13.6628 26.2412 15.3166 26.0537 17.1248H32.9778ZM42.6363 13.1115C42.8458 13.1115 43.0001 13.2989 43.0001 13.4753C43.0001 13.6848 42.8458 13.8392 42.6363 13.8392H40.6737V21.5461C40.6737 21.7335 40.5194 21.9099 40.3099 21.9099C40.1004 21.9099 39.946 21.7225 39.946 21.5461V13.8392H38.0607C37.8512 13.8392 37.6968 13.6848 37.6968 13.4753C37.6968 13.2879 37.8512 13.1115 38.0607 13.1115H39.946V10.2999C39.946 10.1125 40.0894 9.93609 40.2768 9.91404C40.5083 9.89198 40.6848 10.0574 40.6848 10.2779V13.1115H42.6363ZM54.6101 16.8381V21.502C54.6101 21.7115 54.4227 21.8658 54.2463 21.8658C54.0368 21.8658 53.8824 21.7115 53.8824 21.502V16.8381C53.8824 15.2615 52.9894 13.6958 51.2363 13.6958C48.9871 13.6958 48.0168 15.6584 48.1491 17.6761C48.1491 17.7312 48.1712 17.9628 48.1712 17.9958V21.491C48.1712 21.6784 48.0278 21.8548 47.8404 21.8769C47.6089 21.8989 47.4324 21.7335 47.4324 21.513V6.17635C47.4324 5.98891 47.5868 5.8125 47.7963 5.8125C48.0058 5.8125 48.1601 5.99994 48.1601 6.17635V14.8425C48.7886 13.7179 49.9132 12.9571 51.2253 12.9571C53.3863 12.9571 54.6101 14.8425 54.6101 16.8381ZM67.7417 17.4666C67.7417 17.6761 67.5653 17.8525 67.3447 17.8525H60.0348C60.2222 19.6607 61.5783 21.3145 63.4968 21.3145C64.8089 21.3145 65.7791 20.8184 66.5068 19.771C66.584 19.6607 66.6942 19.5835 66.8265 19.5835C67.036 19.5835 67.1904 19.7379 67.1904 19.9474C67.1904 20.0245 67.1683 20.0797 67.1353 20.1348C66.3965 21.4138 64.9301 22.0422 63.4968 22.0422C61.0381 22.0422 59.274 19.8371 59.274 17.4886C59.274 15.1292 61.0271 12.9351 63.4968 12.9351C65.9445 12.9351 67.7196 15.1181 67.7417 17.4666ZM66.9478 17.1248C66.7935 15.3166 65.4042 13.6628 63.4858 13.6628C61.5783 13.6628 60.2112 15.3166 60.0237 17.1248H66.9478ZM76.7165 13.4533C76.7165 13.6848 76.5842 13.8171 76.3747 13.8502C74.2247 14.1699 73.2545 15.923 73.2545 17.9628V21.4579C73.2545 21.6453 73.1112 21.8217 72.9237 21.8438C72.6922 21.8658 72.5158 21.7004 72.5158 21.4799V13.5084C72.5158 13.321 72.6591 13.1445 72.8465 13.1225C73.0781 13.1004 73.2545 13.2658 73.2545 13.4863V15.1071C73.8609 14.0817 75.0627 13.1115 76.3196 13.1115C76.5071 13.1115 76.7165 13.2438 76.7165 13.4533ZM88.7455 17.4666C88.7455 17.6761 88.5691 17.8525 88.3486 17.8525H81.0386C81.226 19.6607 82.5822 21.3145 84.5006 21.3145C85.8127 21.3145 86.7829 20.8184 87.5106 19.771C87.5878 19.6607 87.6981 19.5835 87.8304 19.5835C88.0399 19.5835 88.1942 19.7379 88.1942 19.9474C88.1942 20.0245 88.1722 20.0797 88.1391 20.1348C87.4004 21.4138 85.934 22.0422 84.5006 22.0422C82.0419 22.0422 80.2778 19.8371 80.2778 17.4886C80.2778 15.1292 82.0309 12.9351 84.5006 12.9351C86.9594 12.9351 88.7345 15.1181 88.7455 17.4666ZM87.9627 17.1248C87.8083 15.3166 86.4191 13.6628 84.5006 13.6628C82.5822 13.6628 81.226 15.3166 81.0386 17.1248H87.9627ZM100.565 13.5415V21.5461C100.565 21.7556 100.378 21.9099 100.201 21.9099C99.9917 21.9099 99.8373 21.7556 99.8373 21.5461V20.0245C99.2309 21.2263 98.1614 22.0974 96.7942 22.0974C94.6222 22.0974 93.4204 20.212 93.4204 18.2163V13.5304C93.4204 13.343 93.5747 13.1666 93.7842 13.1666C93.9937 13.1666 94.1481 13.354 94.1481 13.5304V18.2163C94.1481 19.793 95.0411 21.3586 96.7942 21.3586C99.2529 21.3586 99.8373 19.0543 99.8373 16.5074V13.5194C99.8373 13.2989 100.069 13.0784 100.333 13.1776C100.466 13.2438 100.565 13.3871 100.565 13.5415ZM119.077 16.8051V21.491C119.077 21.7004 118.89 21.8548 118.713 21.8548C118.504 21.8548 118.349 21.7004 118.349 21.491V16.8051C118.349 15.2284 117.456 13.6848 115.703 13.6848C113.498 13.6848 112.66 16.0443 112.66 17.8745V21.491C112.66 21.7004 112.473 21.8548 112.296 21.8548C112.087 21.8548 111.932 21.7004 111.932 21.491V16.8051C111.932 15.2284 111.039 13.6848 109.286 13.6848C107.059 13.6848 106.144 15.4379 106.221 17.7753C106.221 17.8304 106.243 17.9297 106.221 17.9628V21.4799C106.221 21.6674 106.078 21.8438 105.89 21.8658C105.659 21.8879 105.482 21.7225 105.482 21.502V13.5084C105.482 13.321 105.626 13.1445 105.813 13.1225C106.045 13.1004 106.221 13.2658 106.221 13.4863V14.8204C106.85 13.6958 107.974 12.9571 109.286 12.9571C110.775 12.9571 111.932 13.9053 112.407 15.2835C113.013 13.9163 114.193 12.9571 115.703 12.9571C117.853 12.9571 119.077 14.8204 119.077 16.8051Z" fill="white"/>
<path d="M33.7607 17.4666C33.7607 17.6761 33.5842 17.8525 33.3637 17.8525H26.0537C26.2412 19.6607 27.5973 21.3145 29.5158 21.3145C30.8278 21.3145 31.7981 20.8184 32.5258 19.771C32.603 19.6607 32.7132 19.5835 32.8455 19.5835C33.055 19.5835 33.2094 19.7379 33.2094 19.9474C33.2094 20.0245 33.1873 20.0797 33.1542 20.1348C32.4155 21.4138 30.9491 22.0422 29.5158 22.0422C27.0571 22.0422 25.293 19.8371 25.293 17.4886C25.293 15.1292 27.046 12.9351 29.5158 12.9351C31.9745 12.9351 33.7496 15.1181 33.7607 17.4666ZM32.9778 17.1248C32.8235 15.3166 31.4343 13.6628 29.5158 13.6628C27.5973 13.6628 26.2412 15.3166 26.0537 17.1248H32.9778ZM42.6363 13.1115C42.8458 13.1115 43.0001 13.2989 43.0001 13.4753C43.0001 13.6848 42.8458 13.8392 42.6363 13.8392H40.6737V21.5461C40.6737 21.7335 40.5194 21.9099 40.3099 21.9099C40.1004 21.9099 39.946 21.7225 39.946 21.5461V13.8392H38.0607C37.8512 13.8392 37.6968 13.6848 37.6968 13.4753C37.6968 13.2879 37.8512 13.1115 38.0607 13.1115H39.946V10.2999C39.946 10.1125 40.0894 9.93609 40.2768 9.91404C40.5083 9.89198 40.6848 10.0574 40.6848 10.2779V13.1115H42.6363ZM54.6101 16.8381V21.502C54.6101 21.7115 54.4227 21.8658 54.2463 21.8658C54.0368 21.8658 53.8824 21.7115 53.8824 21.502V16.8381C53.8824 15.2615 52.9894 13.6958 51.2363 13.6958C48.9871 13.6958 48.0168 15.6584 48.1491 17.6761C48.1491 17.7312 48.1712 17.9628 48.1712 17.9958V21.491C48.1712 21.6784 48.0278 21.8548 47.8404 21.8769C47.6089 21.8989 47.4324 21.7335 47.4324 21.513V6.17635C47.4324 5.98891 47.5868 5.8125 47.7963 5.8125C48.0058 5.8125 48.1601 5.99994 48.1601 6.17635V14.8425C48.7886 13.7179 49.9132 12.9571 51.2253 12.9571C53.3863 12.9571 54.6101 14.8425 54.6101 16.8381ZM67.7417 17.4666C67.7417 17.6761 67.5653 17.8525 67.3447 17.8525H60.0348C60.2222 19.6607 61.5783 21.3145 63.4968 21.3145C64.8089 21.3145 65.7791 20.8184 66.5068 19.771C66.584 19.6607 66.6942 19.5835 66.8265 19.5835C67.036 19.5835 67.1904 19.7379 67.1904 19.9474C67.1904 20.0245 67.1683 20.0797 67.1353 20.1348C66.3965 21.4138 64.9301 22.0422 63.4968 22.0422C61.0381 22.0422 59.274 19.8371 59.274 17.4886C59.274 15.1292 61.0271 12.9351 63.4968 12.9351C65.9445 12.9351 67.7196 15.1181 67.7417 17.4666ZM66.9478 17.1248C66.7935 15.3166 65.4042 13.6628 63.4858 13.6628C61.5783 13.6628 60.2112 15.3166 60.0237 17.1248H66.9478ZM76.7165 13.4533C76.7165 13.6848 76.5842 13.8171 76.3747 13.8502C74.2247 14.1699 73.2545 15.923 73.2545 17.9628V21.4579C73.2545 21.6453 73.1112 21.8217 72.9237 21.8438C72.6922 21.8658 72.5158 21.7004 72.5158 21.4799V13.5084C72.5158 13.321 72.6591 13.1445 72.8465 13.1225C73.0781 13.1004 73.2545 13.2658 73.2545 13.4863V15.1071C73.8609 14.0817 75.0627 13.1115 76.3196 13.1115C76.5071 13.1115 76.7165 13.2438 76.7165 13.4533ZM88.7455 17.4666C88.7455 17.6761 88.5691 17.8525 88.3486 17.8525H81.0386C81.226 19.6607 82.5822 21.3145 84.5006 21.3145C85.8127 21.3145 86.7829 20.8184 87.5106 19.771C87.5878 19.6607 87.6981 19.5835 87.8304 19.5835C88.0399 19.5835 88.1942 19.7379 88.1942 19.9474C88.1942 20.0245 88.1722 20.0797 88.1391 20.1348C87.4004 21.4138 85.934 22.0422 84.5006 22.0422C82.0419 22.0422 80.2778 19.8371 80.2778 17.4886C80.2778 15.1292 82.0309 12.9351 84.5006 12.9351C86.9594 12.9351 88.7345 15.1181 88.7455 17.4666ZM87.9627 17.1248C87.8083 15.3166 86.4191 13.6628 84.5006 13.6628C82.5822 13.6628 81.226 15.3166 81.0386 17.1248H87.9627ZM100.565 13.5415V21.5461C100.565 21.7556 100.378 21.9099 100.201 21.9099C99.9917 21.9099 99.8373 21.7556 99.8373 21.5461V20.0245C99.2309 21.2263 98.1614 22.0974 96.7942 22.0974C94.6222 22.0974 93.4204 20.212 93.4204 18.2163V13.5304C93.4204 13.343 93.5747 13.1666 93.7842 13.1666C93.9937 13.1666 94.1481 13.354 94.1481 13.5304V18.2163C94.1481 19.793 95.0411 21.3586 96.7942 21.3586C99.2529 21.3586 99.8373 19.0543 99.8373 16.5074V13.5194C99.8373 13.2989 100.069 13.0784 100.333 13.1776C100.466 13.2438 100.565 13.3871 100.565 13.5415ZM119.077 16.8051V21.491C119.077 21.7004 118.89 21.8548 118.713 21.8548C118.504 21.8548 118.349 21.7004 118.349 21.491V16.8051C118.349 15.2284 117.456 13.6848 115.703 13.6848C113.498 13.6848 112.66 16.0443 112.66 17.8745V21.491C112.66 21.7004 112.473 21.8548 112.296 21.8548C112.087 21.8548 111.932 21.7004 111.932 21.491V16.8051C111.932 15.2284 111.039 13.6848 109.286 13.6848C107.059 13.6848 106.144 15.4379 106.221 17.7753C106.221 17.8304 106.243 17.9297 106.221 17.9628V21.4799C106.221 21.6674 106.078 21.8438 105.89 21.8658C105.659 21.8879 105.482 21.7225 105.482 21.502V13.5084C105.482 13.321 105.626 13.1445 105.813 13.1225C106.045 13.1004 106.221 13.2658 106.221 13.4863V14.8204C106.85 13.6958 107.974 12.9571 109.286 12.9571C110.775 12.9571 111.932 13.9053 112.407 15.2835C113.013 13.9163 114.193 12.9571 115.703 12.9571C117.853 12.9571 119.077 14.8204 119.077 16.8051Z" stroke="white" stroke-width="1.4" mask="url(#path-1-outside-1_10149_1074)"/>
<path opacity="0.6" d="M9.15128 20.9062L18.3136 15.4926L9.15128 11.3359L0 15.4926L9.15128 20.9062Z" fill="black"/>
<path opacity="0.45" d="M9.15128 11.3365V0.299805L0 15.4931L9.15128 20.9067V11.3365Z" fill="#5B5B5B"/>
<path opacity="0.8" d="M9.15137 20.9067L18.3137 15.4931L9.15137 0.299805V11.3365V20.9067Z" fill="#5B5B5B"/>
<path opacity="0.45" d="M9.15128 22.6374L0 17.2349L9.15128 30.1349V22.6374Z" fill="#5B5B5B"/>
<path opacity="0.8" d="M18.3137 17.2349L9.15137 22.6374V30.1349L18.3137 17.2349Z" fill="#5B5B5B"/>
</svg>
