<svg width="124" height="23" viewBox="0 0 124 23" fill="none" xmlns="http://www.w3.org/2000/svg">
<path d="M41.7049 12.5999H46.3454C46.9979 12.5999 47.5266 13.1343 47.5266 13.7868C47.5266 14.4393 46.9979 14.9736 46.3454 14.9736H40.7487C40.6587 14.9736 40.5743 15.0074 40.5124 15.0636L38.8249 16.5205C38.5662 16.7455 38.7237 17.1673 39.0612 17.1673H46.0641C46.0641 17.1673 46.0698 17.1673 46.0698 17.1617C46.0698 17.1561 46.0754 17.1561 46.0754 17.1561C46.1654 17.1617 46.2498 17.1673 46.3454 17.1673C48.2016 17.1673 49.709 15.6542 49.709 13.7868C49.709 12.015 48.3535 10.5581 46.621 10.4175C46.621 10.4175 46.6154 10.4175 46.6154 10.4119C46.6154 10.4063 46.6154 10.4063 46.6098 10.4063H41.6149C40.9624 10.4063 40.4337 9.87189 40.4337 9.21941C40.4337 8.5613 40.9624 8.03256 41.6149 8.03256H47.2004C47.2904 8.03256 47.3804 7.99881 47.4479 7.93694L49.0172 6.4801C49.2647 6.25511 49.1016 5.83887 48.7697 5.83887H41.7105C41.6824 5.83887 41.6486 5.83887 41.6205 5.83887C39.7643 5.83887 38.2568 7.35196 38.2568 9.21941C38.2568 11.0869 39.7643 12.5999 41.6205 12.5999C41.6486 12.5999 41.6768 12.5999 41.7049 12.5999Z" fill="white"/>
<path d="M68.7211 5.83252C68.5186 5.83252 68.3555 5.99564 68.3555 6.20376V16.801C68.3555 17.0035 68.5186 17.1722 68.7211 17.1722H77.2146C77.3159 17.1722 77.4115 17.1272 77.4846 17.0541L78.5477 15.9123C78.7671 15.676 78.604 15.2935 78.2777 15.2935H70.8642C70.6617 15.2935 70.4985 15.1304 70.4985 14.9223V6.20376C70.4985 6.00126 70.3354 5.83252 70.1329 5.83252H68.7211Z" fill="white"/>
<path fill-rule="evenodd" clip-rule="evenodd" d="M55.1199 5.83252C55.1143 5.83814 55.1199 5.83814 55.1199 5.83252C54.0343 5.88314 53.1624 6.755 53.1118 7.8406V14.9673C53.1118 14.9954 53.1118 15.0292 53.1118 15.0573C53.1118 16.1879 54.0005 17.1104 55.1199 17.1554H62.826C63.9397 17.1047 64.834 16.1823 64.834 15.0573C64.834 15.0292 64.834 14.9954 64.834 14.9673V7.84622C64.789 6.76062 63.9172 5.88314 62.8316 5.83814H55.1199V5.83252ZM56.5542 7.84622C55.8736 7.87434 55.328 8.42558 55.2999 9.11181V13.5948C55.2999 13.6117 55.2999 13.6342 55.2999 13.6511C55.2999 14.3598 55.8568 14.9448 56.5542 14.9729H61.386C62.0835 14.9448 62.6403 14.3598 62.6403 13.6511C62.6403 13.6342 62.6403 13.6117 62.6403 13.5948V9.11181C62.6122 8.42558 62.0666 7.87997 61.386 7.84622H56.5542Z" fill="white"/>
<path fill-rule="evenodd" clip-rule="evenodd" d="M90.8942 16.801C90.8942 17.0035 91.0573 17.1722 91.2598 17.1722H92.6998C92.9023 17.1722 93.0654 17.0091 93.0654 16.801V8.03182C93.0654 8.00369 93.0654 7.96995 93.0654 7.94182C93.0654 6.81123 92.1823 5.88875 91.0798 5.84375H83.6831C83.655 5.84375 83.6213 5.84375 83.5932 5.84375C82.4457 5.84375 81.5176 6.7831 81.5176 7.94745C81.5176 7.97557 81.5176 8.00932 81.5176 8.03745V16.8066C81.5176 17.0091 81.6807 17.1778 81.8832 17.1778H83.3232C83.5257 17.1778 83.6888 17.0147 83.6888 16.8066V13.1561C83.6888 12.9536 83.8519 12.7848 84.0544 12.7848H90.5455C90.748 12.7848 90.9111 12.9479 90.9111 13.1561V16.801H90.8942ZM83.6719 10.7655V8.94305C83.6719 8.23431 84.24 7.66058 84.9375 7.66058H89.6286C90.3261 7.66058 90.8942 8.23431 90.8942 8.94305V10.7655C90.8942 10.968 90.7311 11.1367 90.5286 11.1367H84.0375C83.835 11.1367 83.6719 10.9736 83.6719 10.7655Z" fill="white"/>
<path fill-rule="evenodd" clip-rule="evenodd" d="M121.297 17.173C121.094 17.173 120.931 17.0098 120.931 16.8017V13.1512C120.931 12.9487 120.768 12.7799 120.565 12.7799H114.001C113.799 12.7799 113.636 12.9431 113.636 13.1512V16.8017C113.636 17.0042 113.472 17.173 113.27 17.173H111.819C111.616 17.173 111.453 17.0098 111.453 16.8017V8.03256C111.453 8.00444 111.453 7.97069 111.453 7.94257C111.453 6.78385 112.392 5.83887 113.551 5.83887C113.579 5.83887 113.613 5.83887 113.641 5.83887H121.122C122.236 5.88949 123.13 6.81197 123.13 7.93694C123.13 7.96506 123.13 7.99881 123.13 8.02694V16.7961C123.13 16.9986 122.967 17.1673 122.765 17.1673H121.297V17.173ZM113.63 8.94379V10.7662C113.63 10.9687 113.793 11.1375 113.996 11.1375H120.56C120.762 11.1375 120.925 10.9744 120.925 10.7662V8.94379C120.925 8.23506 120.352 7.66132 119.649 7.66132H114.907C114.204 7.66132 113.63 8.23506 113.63 8.94379Z" fill="white"/>
<path d="M98.4822 5.83252C98.5891 5.83252 98.6903 5.87752 98.7578 5.96189L105.215 13.6623C105.435 13.9211 105.856 13.7636 105.856 13.4205V6.20376C105.856 6.00126 106.02 5.83252 106.222 5.83252H107.662C107.864 5.83252 108.028 5.99564 108.028 6.20376V16.801C108.028 17.0035 107.864 17.1722 107.662 17.1722H105.873C105.868 17.1722 105.862 17.1666 105.862 17.161C105.862 17.1554 105.862 17.1554 105.856 17.1497L99.2866 9.50555C99.0672 9.24681 98.6453 9.40993 98.6453 9.74742V16.8066C98.6453 17.0091 98.4822 17.1779 98.2797 17.1779H96.8285C96.626 17.1779 96.4629 17.0147 96.4629 16.8066V6.20376C96.4629 6.00126 96.626 5.83252 96.8285 5.83252H98.4822Z" fill="white"/>
<path d="M4.76623 17.5605C4.94623 17.3805 5.1881 17.2793 5.44122 17.2793H28.8688C29.2962 17.2793 29.51 17.7968 29.2062 18.0949L24.577 22.7185C24.397 22.8985 24.1551 22.9998 23.902 22.9998H0.480089C0.0525998 22.9998 -0.161145 22.4823 0.142598 22.1842L4.76623 17.5605Z" fill="url(#paint0_linear_10149_927)"/>
<path d="M4.76623 0.281243C4.94623 0.101247 5.1881 0 5.44122 0H28.8688C29.2962 0 29.51 0.517487 29.2062 0.815605L24.577 5.43924C24.397 5.61924 24.1551 5.72048 23.902 5.72048H0.480089C0.0525998 5.72048 -0.161145 5.203 0.142598 4.90488L4.76623 0.281243Z" fill="url(#paint1_linear_10149_927)"/>
<path d="M24.577 8.86425C24.397 8.68426 24.1551 8.58301 23.902 8.58301H0.480089C0.0525998 8.58301 -0.161145 9.10049 0.142598 9.39861L4.77186 14.0222C4.95185 14.2022 5.19372 14.3035 5.44684 14.3035H28.8744C29.3019 14.3035 29.5156 13.786 29.2119 13.4879L24.577 8.86425Z" fill="url(#paint2_linear_10149_927)"/>
<defs>
<linearGradient id="paint0_linear_10149_927" x1="26.6319" y1="-2.76304" x2="10.4196" y2="28.29" gradientUnits="userSpaceOnUse">
<stop stop-color="#00FFA3"/>
<stop offset="1" stop-color="#DC1FFF"/>
</linearGradient>
<linearGradient id="paint1_linear_10149_927" x1="19.543" y1="-6.46377" x2="3.33071" y2="24.5893" gradientUnits="userSpaceOnUse">
<stop stop-color="#00FFA3"/>
<stop offset="1" stop-color="#DC1FFF"/>
</linearGradient>
<linearGradient id="paint2_linear_10149_927" x1="23.0649" y1="-4.62557" x2="6.85261" y2="26.4275" gradientUnits="userSpaceOnUse">
<stop stop-color="#00FFA3"/>
<stop offset="1" stop-color="#DC1FFF"/>
</linearGradient>
</defs>
</svg>
