<svg width="64" height="67" viewBox="0 0 64 67" fill="none" xmlns="http://www.w3.org/2000/svg">
<g clip-path="url(#clip0_8102_1620)">
<g clip-path="url(#clip1_8102_1620)">
<path d="M56.0781 7.85156H35.1406C34.2734 7.85156 33.5703 8.55462 33.5703 9.42188V26.1719C33.5703 27.0391 34.2734 27.7422 35.1406 27.7422H56.0781C56.9454 27.7422 57.6484 27.0391 57.6484 26.1719V9.42188C57.6484 8.55462 56.9454 7.85156 56.0781 7.85156Z" fill="#FF6CFB" stroke="#4D4E50" stroke-width="1.04688"/>
<path d="M28.8594 7.85156H7.92188C7.05462 7.85156 6.35156 8.55462 6.35156 9.42188V26.1719C6.35156 27.0391 7.05462 27.7422 7.92188 27.7422H28.8594C29.7266 27.7422 30.4297 27.0391 30.4297 26.1719V9.42188C30.4297 8.55462 29.7266 7.85156 28.8594 7.85156Z" fill="#9708D5" stroke="#4D4E50" stroke-width="1.04688"/>
<path d="M16.8969 13.7996C17.6358 13.7996 17.6222 13.8036 17.845 14.5546C18.4873 16.7203 19.1419 18.882 19.7916 21.0458C19.823 21.1495 19.8599 21.2532 19.8784 21.3596C19.9276 21.6405 19.8298 21.7679 19.5609 21.7889C19.5406 21.7902 19.5197 21.7895 19.4994 21.7902C18.7808 21.8138 18.7808 21.8138 18.5568 21.0891C18.3476 20.4123 18.3476 20.4123 17.6825 20.4123C17.0168 20.4123 16.3505 20.4188 15.6854 20.4083C15.4879 20.405 15.3809 20.4805 15.3279 20.6795C15.2578 20.942 15.1692 21.1987 15.1009 21.462C15.0431 21.6825 14.9231 21.7909 14.7047 21.7909C13.9319 21.7922 13.716 21.8775 14.0285 20.8613C14.7115 18.6405 15.3735 16.4124 16.038 14.185C16.1186 13.9152 16.2613 13.7813 16.5289 13.7983C16.6507 13.8062 16.7738 13.7996 16.8969 13.7996ZM16.9159 15.6699C16.8649 15.7192 16.8421 15.7303 16.8366 15.748C16.5105 16.8155 16.1844 17.8835 15.8608 18.9523C15.814 19.1059 15.878 19.1801 16.0263 19.1801C16.5991 19.1801 17.1719 19.1788 17.7441 19.182C17.9151 19.1827 17.9606 19.1098 17.9077 18.9378C17.5792 17.8612 17.2537 16.7826 16.9159 15.6699Z" fill="white"/>
<path d="M22.8902 17.8302C22.8902 18.9798 22.8912 20.1294 22.8902 21.2791C22.8896 21.7418 22.848 21.7924 22.4805 21.7964C22.4271 21.797 22.3738 21.797 22.3204 21.7964C21.93 21.7938 21.891 21.7484 21.891 21.2712C21.8905 18.9607 21.8905 16.6503 21.891 14.3405C21.891 13.8567 21.9396 13.8002 22.3407 13.7975C22.4031 13.7969 22.465 13.7962 22.5274 13.7982C22.8203 13.8087 22.8891 13.8876 22.8896 14.2498C22.8912 15.4434 22.8896 16.6365 22.8902 17.8302Z" fill="white"/>
<path d="M59.2188 2.09375H4.78125C3.67066 2.09375 2.60555 2.53493 1.82024 3.32024C1.03493 4.10555 0.59375 5.17066 0.59375 6.28125V46.0625C0.59375 47.1731 1.03493 48.2382 1.82024 49.0235C2.60555 49.8088 3.67066 50.25 4.78125 50.25H59.2188C60.3293 50.25 61.3945 49.8088 62.1798 49.0235C62.9651 48.2382 63.4062 47.1731 63.4062 46.0625V6.28125C63.4062 5.17066 62.9651 4.10555 62.1798 3.32024C61.3945 2.53493 60.3293 2.09375 59.2188 2.09375Z" stroke="#4D4E50" stroke-width="1.04688"/>
<path d="M32 64.9062C40.6723 64.9062 47.7031 57.8754 47.7031 49.2031C47.7031 40.5308 40.6723 33.5 32 33.5C23.3277 33.5 16.2969 40.5308 16.2969 49.2031C16.2969 57.8754 23.3277 64.9062 32 64.9062Z" fill="#010205" stroke="#4D4E50" stroke-width="1.04688"/>
<path d="M32 62.8125C39.5166 62.8125 45.6094 56.7197 45.6094 49.2031C45.6094 41.6866 39.5166 35.5938 32 35.5938C24.4834 35.5938 18.3906 41.6866 18.3906 49.2031C18.3906 56.7197 24.4834 62.8125 32 62.8125Z" fill="#010205"/>
<path d="M48.0003 17.6444C48.1963 17.7169 48.3957 17.7783 48.5728 17.8905C48.9682 18.1404 49.204 18.4906 49.2539 18.9611C49.3097 19.4879 49.2497 19.9939 48.9864 20.4625C48.7312 20.9163 48.3124 21.1496 47.8367 21.3038C47.4576 21.4267 47.0651 21.4729 46.6701 21.4997C46.4906 21.512 46.4822 21.5183 46.482 21.7001C46.4817 22.0957 46.4786 22.4915 46.4838 22.8871C46.4853 23.0056 46.4467 23.0486 46.3264 23.0442C46.1138 23.0364 45.9001 23.0361 45.6874 23.0442C45.5642 23.0489 45.5196 23.0108 45.522 22.8832C45.529 22.4876 45.5212 22.0918 45.5264 21.6962C45.528 21.5853 45.4967 21.5363 45.3795 21.5428C45.2496 21.5501 45.1183 21.5496 44.9884 21.5423C44.8704 21.5357 44.8271 21.5783 44.8289 21.6991C44.8347 22.0861 44.8315 22.473 44.8308 22.86C44.8305 23.04 44.8284 23.0416 44.6484 23.0419C44.4441 23.0421 44.2397 23.0424 44.0354 23.0419C43.8614 23.0416 43.8585 23.0393 43.8582 22.8694C43.8575 22.4738 43.8538 22.078 43.8603 21.6824C43.8624 21.5566 43.8209 21.517 43.6965 21.5183C43.201 21.5232 42.7052 21.5193 42.2094 21.5185C42.0035 21.5183 42.0001 21.5175 42.0304 21.3215C42.0721 21.0509 42.122 20.7816 42.164 20.5113C42.1802 20.4077 42.2271 20.3623 42.337 20.367C42.5063 20.3746 42.676 20.3707 42.8456 20.3681C43.089 20.3647 43.2033 20.2501 43.2038 20.0051C43.2051 19.1965 43.2043 18.3876 43.2043 17.5789C43.2043 17.0615 43.2051 16.544 43.2041 16.0266C43.2036 15.7448 43.0694 15.5916 42.7934 15.546C42.5771 15.5102 42.3594 15.529 42.1426 15.529C42.0346 15.529 41.9975 15.4919 42.0001 15.3852C42.0056 15.1506 42.0014 14.9158 42.002 14.681C42.0022 14.5098 42.0155 14.4926 42.1875 14.5025C42.6697 14.5307 43.1524 14.5137 43.6346 14.5158C43.853 14.5168 43.8577 14.509 43.8577 14.2872C43.8577 13.9089 43.8606 13.5305 43.8562 13.1524C43.8549 13.0412 43.8893 12.9966 44.0057 13.0003C44.2316 13.0073 44.4579 13.0076 44.6839 13.0003C44.8026 12.9964 44.8328 13.0472 44.8318 13.155C44.8281 13.5506 44.8341 13.9464 44.8284 14.342C44.8268 14.4586 44.8602 14.4936 44.9784 14.4785C45.1071 14.4623 45.2391 14.4644 45.3691 14.4706C45.4857 14.4761 45.529 14.4393 45.5267 14.3159C45.5194 13.9292 45.528 13.542 45.5217 13.155C45.5196 13.0334 45.5622 12.9964 45.6798 13.0003C45.8969 13.0076 46.1148 13.0073 46.3319 13.0003C46.4454 12.9966 46.4846 13.0355 46.4833 13.1498C46.4783 13.554 46.4843 13.9584 46.4796 14.3629C46.4783 14.4696 46.5083 14.5142 46.6221 14.5283C47.0758 14.5849 47.5234 14.6653 47.9346 14.8858C48.421 15.1465 48.6707 15.5551 48.7237 16.096C48.761 16.4778 48.7145 16.8405 48.4993 17.17C48.3925 17.3334 48.2527 17.4604 48.0914 17.5672C48.0606 17.588 48.0194 17.5977 48.0003 17.6444ZM44.8381 19.3924C44.8381 19.6706 44.8415 19.949 44.8362 20.2271C44.8341 20.3333 44.8686 20.3756 44.9779 20.373C45.2822 20.3654 45.588 20.3829 45.8904 20.3576C46.2664 20.3263 46.6422 20.2728 46.9796 20.0774C47.5113 19.7692 47.5367 19.03 47.0226 18.6884C46.7899 18.5337 46.524 18.4614 46.2523 18.4225C45.8471 18.3646 45.4382 18.3617 45.0293 18.3703C44.8574 18.374 44.8388 18.392 44.8383 18.5707C44.8375 18.8444 44.8381 19.1184 44.8381 19.3924ZM45.3505 15.6008C45.2159 15.6008 45.081 15.6026 44.9464 15.6C44.8691 15.5987 44.8349 15.6302 44.8378 15.7085C44.8409 15.7954 44.8381 15.8823 44.8381 15.9692C44.8381 16.395 44.8373 16.8209 44.8394 17.2467C44.8396 17.3175 44.8255 17.4111 44.9359 17.4127C45.4403 17.4197 45.9452 17.4237 46.4285 17.2454C46.5725 17.1922 46.6993 17.1051 46.7998 16.9876C47.1484 16.5808 46.949 15.9462 46.4146 15.7479C46.0702 15.6203 45.7127 15.5942 45.3505 15.6008Z" fill="white"/>
<path d="M34.9913 49.9004C34.8584 49.8393 34.7858 49.8555 34.7161 49.8555C31.7593 49.8544 28.8021 49.8547 25.8453 49.854C25.4297 49.854 25.1218 49.655 25.0511 49.2961C24.9803 48.9376 24.9868 48.5673 25.0478 48.2073C25.0978 47.9138 25.3945 47.6915 25.6948 47.6746C25.7904 47.6692 25.8863 47.671 25.9822 47.671C28.8794 47.671 31.7766 47.671 34.6737 47.671C34.7449 47.671 34.8156 47.671 34.9378 47.671C34.7689 47.4903 34.6335 47.3376 34.4898 47.1928C33.7171 46.4162 32.9423 45.6424 32.1688 44.8665C31.7485 44.4447 31.75 44.0252 32.1696 43.6027C32.2709 43.5007 32.3722 43.399 32.4742 43.2977C32.8762 42.8997 33.3108 42.9 33.715 43.3031C34.4988 44.0851 35.2812 44.869 36.064 45.6521C36.8891 46.4776 37.7042 47.3135 38.5444 48.1232C38.9216 48.4868 38.9173 49.0343 38.5437 49.4025C36.9283 50.9953 35.3311 52.6061 33.7268 54.21C33.3072 54.6296 32.8816 54.6307 32.4605 54.2147C32.3161 54.0717 32.1545 53.9467 32.0313 53.7822C31.7999 53.4736 31.797 53.1291 32.0323 52.8216C32.083 52.7555 32.1423 52.6955 32.2015 52.6363C33.0662 51.7741 33.9312 50.9123 34.7977 50.052C34.8476 50.002 34.9094 49.9639 34.9913 49.9004Z" fill="white"/>
</g>
</g>
<defs>
<clipPath id="clip0_8102_1620">
<rect width="64" height="67" fill="white"/>
</clipPath>
<clipPath id="clip1_8102_1620">
<rect width="64" height="67" fill="white"/>
</clipPath>
</defs>
</svg>
