<svg width="18" height="17" viewBox="0 0 18 17" fill="none" xmlns="http://www.w3.org/2000/svg">
<path d="M8.98165 0.132861C10.1196 0.132861 11.2575 0.132861 12.4015 0.132861C13.2004 0.132861 13.8178 0.453659 14.2234 1.16184C15.3916 3.18952 16.5719 5.2051 17.74 7.23278C18.1274 7.90464 18.0608 8.5765 17.6795 9.24231C16.6808 10.9613 15.6942 12.6803 14.6955 14.3993C14.52 14.7019 14.3444 15.0106 14.1628 15.3133C13.7936 15.9306 13.2307 16.2333 12.5286 16.2393C10.168 16.2514 7.80741 16.2575 5.45288 16.2393C4.70233 16.2333 4.13942 15.8701 3.7581 15.2043C2.6928 13.3522 1.61541 11.5121 0.544064 9.65995C0.314058 9.26047 0.0356297 8.88519 0.00536574 8.39492C-0.0188454 8.00149 0.0356297 7.63227 0.235372 7.28726C1.42777 5.2172 2.62017 3.14715 3.81862 1.08315C4.18784 0.441553 4.77496 0.144966 5.5013 0.138914C6.66343 0.126808 7.81952 0.132861 8.98165 0.132861ZM8.98165 11.1913C10.7491 11.1247 11.9778 9.84154 11.9838 8.14675C11.9959 6.54277 10.6038 5.19299 9.01797 5.18694C7.36556 5.18089 5.9492 6.56698 5.99763 8.21334C6.0521 9.93233 7.31713 11.1187 8.98165 11.1913Z" fill="white"/>
</svg>
