<svg width="18" height="21" viewBox="0 0 18 21" fill="none" xmlns="http://www.w3.org/2000/svg">
<path d="M8.42768 0.0539722C7.97311 0.208784 7.57255 0.584085 7.34301 1.06729C7.23049 1.30185 7.22149 1.37222 7.22149 1.86481C7.22149 2.35739 7.23049 2.42776 7.34301 2.66232C7.57255 3.15021 7.98661 3.5349 8.42768 3.67094L8.61671 3.72724L8.63021 4.47784L8.63921 5.22845L7.61755 5.25659C4.93514 5.33635 3.09885 5.78671 2.02769 6.63114C0.952022 7.48026 0.416439 8.57332 0.128394 10.5014C0.0068756 11.3036 -0.0426321 13.8463 0.0428812 14.8784C0.384934 19.1052 2.06819 20.6111 6.85244 20.963C7.87859 21.038 11.2271 20.9911 12.0462 20.8926C14.2876 20.6205 15.5163 20.1373 16.4614 19.1662C17.3211 18.2796 17.7846 16.9613 17.9602 14.9159C18.0412 13.9354 17.9917 11.252 17.8746 10.4733C17.6136 8.72814 17.195 7.75704 16.3444 6.92669C15.2507 5.85708 13.428 5.34104 10.4035 5.25659L9.35932 5.22845L9.36832 4.47784L9.38183 3.72724L9.57086 3.67094C10.0119 3.5349 10.426 3.15021 10.6555 2.66232C10.768 2.42776 10.777 2.35739 10.777 1.86481C10.777 1.36284 10.768 1.30654 10.6465 1.04383C10.4755 0.682604 10.1334 0.326067 9.78689 0.152489C9.55285 0.0305157 9.46284 0.0117512 9.06678 0.00236702C8.77873 -0.00701523 8.5492 0.0117512 8.42768 0.0539722ZM5.70476 10.3326C5.9703 10.4827 6.15933 10.6844 6.30785 10.9799C6.39336 11.1441 6.41137 11.252 6.41137 11.6227C6.41137 11.9933 6.39336 12.1012 6.30785 12.2654C6.15933 12.5609 5.9748 12.7626 5.70476 12.9174C5.48872 13.0394 5.42571 13.0535 5.03865 13.0535C4.6831 13.0535 4.57958 13.0347 4.42206 12.9456C3.94499 12.6829 3.68845 12.2794 3.65244 11.7446C3.62994 11.3412 3.68845 11.0925 3.88198 10.7923C4.0305 10.5577 4.36355 10.295 4.60659 10.2153C4.6831 10.1918 4.90813 10.1777 5.10616 10.1824C5.40321 10.1965 5.50673 10.22 5.70476 10.3326ZM13.626 10.3326C13.8915 10.4827 14.0806 10.6844 14.2291 10.9799C14.3146 11.1441 14.3326 11.252 14.3326 11.6227C14.3326 11.9933 14.3146 12.1012 14.2291 12.2654C14.0806 12.5609 13.896 12.7626 13.626 12.9174C13.41 13.0394 13.3469 13.0535 12.9599 13.0535C12.6043 13.0535 12.5008 13.0347 12.3433 12.9456C11.8662 12.6829 11.6097 12.2794 11.5737 11.7446C11.5512 11.3412 11.6097 11.0925 11.8032 10.7923C11.9517 10.5577 12.2848 10.295 12.5278 10.2153C12.6043 10.1918 12.8294 10.1777 13.0274 10.1824C13.3244 10.1965 13.428 10.22 13.626 10.3326ZM12.3523 16.1919C12.6268 16.3139 12.6268 16.6892 12.3523 16.8112C12.1228 16.9097 5.87578 16.9097 5.64625 16.8112C5.37621 16.6939 5.37171 16.3139 5.63725 16.1966C5.85328 16.0981 12.1273 16.0934 12.3523 16.1919Z" fill="white"/>
</svg>
