<svg width="44" height="44" viewBox="0 0 44 44" fill="none" xmlns="http://www.w3.org/2000/svg">
<circle cx="22" cy="22" r="22" fill="#E84142"/>
<path d="M28.4727 22.113C29.1084 21.0218 30.1342 21.0218 30.7699 22.113L34.7287 29.0187C35.3644 30.1099 34.8443 31 33.5728 31H25.5975C24.3406 31 23.8204 30.1099 24.4417 29.0187L28.4727 22.113ZM20.8153 8.81835C21.451 7.72722 22.4623 7.72722 23.098 8.81835L23.9794 10.3976L26.0599 14.03C26.5656 15.0637 26.5656 16.284 26.0599 17.3177L19.0815 29.3346C18.4458 30.3109 17.3911 30.9282 16.2208 31H10.4272C9.15573 31 8.63561 30.1242 9.27132 29.0187L20.8153 8.81835Z" fill="white"/>
</svg>
