<svg width="16" height="20" viewBox="0 0 16 20" fill="none" xmlns="http://www.w3.org/2000/svg">
<path d="M15.464 11.1723C15.464 12.985 15.4706 14.7977 15.464 16.6104C15.4574 17.7376 14.8114 18.6472 13.7699 18.9966C13.4535 19.1021 13.1239 19.1284 12.7943 19.1284C9.41944 19.1284 6.05111 19.135 2.6762 19.1284C1.02829 19.1284 0 18.0935 0 16.4522C0 11.8842 0 7.31622 0 2.74163C0 1.54855 0.613021 0.652086 1.66768 0.276363C1.99067 0.164306 2.33344 0.137939 2.6762 0.131348C5.036 0.131348 7.4024 0.137939 9.7622 0.131348C10.3686 0.131348 10.863 0.329097 11.2915 0.764144C12.4648 1.95723 13.6447 3.13713 14.8312 4.30385C15.2662 4.7323 15.4706 5.22008 15.464 5.83311C15.4574 7.61284 15.464 9.39258 15.464 11.1723ZM7.73198 9.35963C8.47024 9.35963 9.20191 9.35963 9.94018 9.35963C10.3818 9.35963 10.8169 9.36622 11.2585 9.35303C11.6276 9.33985 11.8649 9.08937 11.8649 8.7532C11.8649 8.41702 11.621 8.16654 11.2651 8.14018C11.186 8.13358 11.1135 8.13358 11.0344 8.13358C8.83937 8.13358 6.64436 8.13358 4.44935 8.13358C4.3307 8.13358 4.20546 8.12699 4.08681 8.15336C3.67813 8.24564 3.48038 8.70046 3.69131 9.05641C3.83633 9.30689 4.07363 9.35963 4.34388 9.35963C5.47105 9.35963 6.59822 9.35963 7.73198 9.35963ZM7.77153 11.2185C6.78278 11.2185 5.79404 11.2185 4.81189 11.2185C4.60096 11.2185 4.39662 11.2119 4.18568 11.2251C3.84292 11.2514 3.61221 11.4953 3.61221 11.8249C3.61221 12.1347 3.82974 12.3852 4.14613 12.4313C4.24501 12.4445 4.34388 12.4445 4.44276 12.4445C6.63777 12.4445 8.83278 12.4445 11.0278 12.4445C11.1596 12.4445 11.2915 12.4445 11.4167 12.4116C11.7001 12.339 11.8781 12.082 11.8649 11.7985C11.8517 11.4953 11.6342 11.2646 11.331 11.2316C11.2124 11.2185 11.0871 11.2185 10.9685 11.2185C9.89403 11.2185 8.83278 11.2185 7.77153 11.2185ZM13.5919 5.64854C12.3989 4.45546 11.1794 3.236 9.97972 2.02974C9.97972 2.89324 9.97313 3.82266 9.97972 4.75208C9.98632 5.27941 10.2763 5.62217 10.7971 5.63536C11.7661 5.66831 12.7284 5.64854 13.5919 5.64854ZM6.18295 15.5426C6.80915 15.5426 7.43536 15.5492 8.06156 15.5426C8.56252 15.536 8.85915 15.1866 8.76027 14.7648C8.68777 14.4615 8.43069 14.277 8.0286 14.277C6.80915 14.2704 5.5897 14.2704 4.37684 14.277C3.90884 14.277 3.61221 14.5341 3.61221 14.9098C3.61221 15.2855 3.91543 15.5426 4.37684 15.5426C4.97668 15.5426 5.58311 15.5426 6.18295 15.5426Z" fill="white"/>
</svg>
