<svg width="106" height="22" viewBox="0 0 106 22" fill="none" xmlns="http://www.w3.org/2000/svg">
<path d="M4.85825 11.0663L2.42807 13.4944L0 11.0663L2.42807 8.63823L4.85825 11.0663ZM10.7499 5.17045L14.9108 9.33347L17.3389 6.90539L10.7499 0.316406L4.16091 6.90539L6.58899 9.33347L10.7499 5.17045ZM19.0738 8.63823L16.6457 11.0663L19.0738 13.4944L21.4998 11.0663L19.0738 8.63823ZM10.7499 16.9622L6.58899 12.8012L4.16091 15.2272L10.7499 21.8162L17.3389 15.2272L14.9108 12.8012L10.7499 16.9622ZM10.7499 13.4944L13.178 11.0663L10.7499 8.63823L8.32183 11.0663L10.7499 13.4944Z" fill="#F0B90B"/>
<path d="M89.9561 4.96826C92.1804 4.96827 93.5102 5.71009 94.6045 6.7876L92.96 8.69092C92.0442 7.86546 91.1217 7.36085 89.9434 7.36084C87.9565 7.36093 86.5244 9.01218 86.5244 11.0327V11.0659C86.5245 13.0906 87.9229 14.7709 89.9434 14.771C91.2918 14.771 92.1177 14.2312 93.0439 13.3911L94.6924 15.0591H94.6846C93.4727 16.355 92.1259 17.164 89.8555 17.1577C86.3857 17.1577 83.8087 14.479 83.8086 11.0933V11.0601C83.8086 7.71413 86.335 4.9683 89.9561 4.96826ZM30.624 5.17041C33.033 5.17051 34.5156 6.36773 34.5156 8.22021V8.25342C34.5156 9.58284 33.8059 10.3248 32.9658 10.7974C34.3331 11.3183 35.1729 12.1102 35.1729 13.6938V13.7271H35.1777C35.1776 15.884 33.4236 16.9623 30.7627 16.9624H25.1543V5.17041H30.624ZM40.624 16.9624H38.0215V5.17041H40.624V16.9624ZM52 12.4312V5.17041H54.5684V16.9624H52.3525L46.6436 9.46533V16.9624H44.083V5.17041H46.4756L52 12.4312ZM68.9375 16.9624H66.2217L65.1436 14.3179H60.1572L59.0762 16.9624H56.4316L61.4834 5.08643H63.875L68.9375 16.9624ZM78.7334 12.4312V5.17041H81.3027V16.9624H79.0869L73.375 9.46533V16.9624H70.8174V5.17041H73.207L78.7334 12.4312ZM105.669 7.479H99.3516V9.86084H104.911V12.1714H99.3516V14.6519H105.762V16.9624L96.7744 16.9595V5.16846H105.669V7.479ZM27.6807 14.6831H30.7578C31.9045 14.6831 32.5956 14.2795 32.5957 13.4038L32.6006 13.3745C32.6006 12.5827 32.0101 12.0934 30.6787 12.0933H27.6807V14.6831ZM61.0801 12.0259H64.2217L62.6465 8.20361L61.0801 12.0259ZM27.6807 9.93408H30.0693C31.2139 9.93405 31.9384 9.56174 31.9385 8.68604L31.9424 8.65674C31.9423 7.88177 31.3354 7.44483 30.2412 7.44482H27.6807V9.93408Z" fill="white"/>
</svg>
