<svg width="25" height="25" viewBox="0 0 25 25" fill="none" xmlns="http://www.w3.org/2000/svg">
<path fill-rule="evenodd" clip-rule="evenodd" d="M17.3601 14.496L20.1886 17.3171L12.5 25L4.81957 17.3171L7.6479 14.496L12.5 19.3495L17.3601 14.496ZM12.5 9.63415L15.3689 12.5041L12.5 15.374L9.63913 12.5122V12.5041L10.143 12L10.3869 11.7561L12.5 9.63415ZM2.82836 9.67481L5.6567 12.5041L2.82836 15.3252L0 12.4959L2.82836 9.67481ZM22.1716 9.67481L25 12.5041L22.1716 15.3252L19.3433 12.4959L22.1716 9.67481ZM12.5 0L20.1803 7.68293L17.3521 10.5122L12.5 5.65041L7.6479 10.5041L4.81957 7.68293L12.5 0Z" fill="#F3BA2F"/>
</svg>
