<svg width="44" height="44" viewBox="0 0 44 44" fill="none" xmlns="http://www.w3.org/2000/svg">
<circle cx="22" cy="22" r="22" fill="#F7931A"/>
<path d="M31.9919 19.1999C32.4298 16.2726 30.201 14.6989 27.1533 13.6491L28.1419 9.68367L25.7282 9.08211L24.7657 12.9431C24.1311 12.785 23.4794 12.6358 22.8318 12.488L23.8011 8.60156L21.3887 8L20.3994 11.9641C19.8742 11.8445 19.3585 11.7262 18.858 11.6018L18.8608 11.5894L15.532 10.7582L14.8898 13.3363C14.8898 13.3363 16.6808 13.7468 16.6429 13.7722C17.6206 14.0163 17.7972 14.6632 17.7677 15.1761L16.6416 19.6936C16.7089 19.7108 16.7963 19.7355 16.8925 19.774C16.8121 19.7541 16.7261 19.7321 16.6374 19.7108L15.059 26.0391C14.9393 26.3361 14.6362 26.7816 13.9528 26.6125C13.9768 26.6476 12.1983 26.1746 12.1983 26.1746L11 28.9376L14.1412 29.7207C14.7255 29.8671 15.2982 30.0204 15.862 30.1648L14.863 34.1756L17.2741 34.7772L18.2634 30.809C18.922 30.9877 19.5613 31.1527 20.187 31.3081L19.2011 35.2577L21.6149 35.8593L22.6138 31.856C26.7298 32.6349 29.8249 32.3208 31.1277 28.598C32.1775 25.6005 31.0755 23.8715 28.9099 22.744C30.487 22.3803 31.675 21.3429 31.9919 19.1999ZM26.4768 26.9336C25.7309 29.931 20.684 28.3106 19.0478 27.9043L20.3733 22.5907C22.0095 22.999 27.2565 23.8075 26.4768 26.9336ZM27.2235 19.1566C26.5428 21.8832 22.3423 20.4979 20.9796 20.1583L22.1814 15.339C23.544 15.6786 27.9323 16.3125 27.2235 19.1566Z" fill="white"/>
</svg>
