<svg width="46" height="53" viewBox="0 0 46 53" fill="none" xmlns="http://www.w3.org/2000/svg">
<path d="M21.5075 0.790443C20.725 1.2143 20.3175 1.67075 20.024 2.42065C19.5024 3.79002 20.1544 5.40393 21.4749 6.0071L22.0781 6.28424V7.49059C22.0781 8.14267 22.0618 8.68064 22.0455 8.68064C22.0129 8.68064 21.589 8.53392 21.1 8.3383C19.4861 7.71882 17.7091 7.94705 16.6495 8.92517C16.242 9.30012 15.8507 9.47944 15.3127 9.54465C14.465 9.67507 13.1446 10.3108 12.6555 10.8651C12.1664 11.3868 11.6448 12.4627 11.6448 12.9192C11.6448 13.2126 11.4328 13.5224 10.8949 13.9625C9.77004 14.908 9.4603 15.7231 9.55811 17.5164C9.62332 18.6412 9.59071 18.9835 9.41139 19.1466C9.02014 19.4563 8.54738 20.5322 8.43327 21.3147C8.36806 21.8853 8.20504 22.1787 7.74858 22.5863C6.50963 23.7111 5.93905 25.0642 5.93905 26.8737C5.93905 27.2487 5.87385 27.6073 5.80864 27.6562C5.74343 27.6888 5.17286 27.7378 4.55338 27.7704C2.59713 27.8356 1.29297 28.6996 0.461562 30.4928C0.102917 31.2916 0.0703125 31.5361 0.0703125 33.9162C0.0703125 36.2637 0.102917 36.5409 0.461562 37.3071C0.966926 38.383 2.25479 39.5078 3.28182 39.7687C3.72197 39.8828 4.48817 39.9806 4.99353 39.9806H5.92275L6.02056 40.5838C6.2977 42.2955 7.74858 44.3496 9.444 45.4418C10.5199 46.1265 11.3024 46.371 12.7044 46.4851L13.8456 46.5829L13.8945 47.6589L13.9434 48.7348L12.6229 48.8489C11.1557 48.963 9.94936 49.3869 9.10165 50.0553C8.46587 50.5606 7.65077 51.7344 7.48775 52.4028C7.38994 52.794 7.43884 52.8592 7.83009 52.957C8.20504 53.0549 8.33546 52.9896 8.61259 52.631C9.55811 51.4083 10.1613 50.8215 10.7482 50.5606C11.3513 50.2835 12.1175 50.2509 22.7302 50.2509C33.408 50.2509 34.0927 50.2835 34.7122 50.5606C35.4295 50.8867 36.049 51.4736 36.6358 52.3702C37.0434 52.9896 37.565 53.169 37.8585 52.8103C38.1519 52.468 37.5161 51.1638 36.6521 50.3161C35.7555 49.4521 34.5655 48.9956 32.8375 48.8489L31.517 48.7348L31.5659 47.6589L31.6148 46.5829L32.8375 46.4688C34.8589 46.3058 36.0816 45.7026 37.5813 44.105C38.3801 43.2736 39.3583 41.4804 39.3583 40.8609C39.3583 40.111 39.505 39.9806 40.4342 39.9806C42.0481 39.9806 42.8632 39.7035 43.825 38.8395C45.1292 37.6331 45.39 36.818 45.39 33.851C45.39 31.8948 45.3411 31.3731 45.064 30.6558C44.363 28.83 43.0262 27.9171 40.907 27.7704L39.6028 27.6725L39.505 26.4499C39.4561 25.7652 39.342 25.0316 39.2768 24.8197C39.0974 24.2165 38.3801 23.1895 37.6955 22.57C37.3042 22.2277 37.076 21.869 37.076 21.6245C37.076 20.9887 36.5869 19.7171 36.1631 19.2607C35.7881 18.8694 35.7718 18.7716 35.9022 17.9076C36.1794 16.1959 35.7555 14.9569 34.5492 13.9462C33.9623 13.4571 33.8156 13.2289 33.8156 12.8214C33.8156 11.5498 31.9082 9.80548 30.2454 9.56095C29.7564 9.49574 29.2673 9.26752 28.8434 8.92517C27.6208 7.93075 25.9906 7.71882 24.3604 8.3383C23.8713 8.53392 23.4475 8.68064 23.4312 8.68064C23.3986 8.68064 23.3823 8.14267 23.3823 7.49059V6.28424L24.0017 6.0071C24.3441 5.84408 24.8331 5.45284 25.094 5.12679C25.5178 4.58883 25.583 4.3932 25.583 3.46398C25.583 2.24133 25.3548 1.78487 24.4256 1.08388C23.692 0.513309 22.2737 0.382893 21.5075 0.790443ZM23.855 2.30653C24.7353 3.12164 24.4582 4.3769 23.2844 4.86596C22.4041 5.24091 21.3771 4.70294 21.1815 3.75742C20.8391 2.22503 22.6976 1.2306 23.855 2.30653ZM20.8554 9.65876C21.6053 10.0174 22.0781 10.7021 22.0781 11.4194C22.0781 11.9248 22.29 12.1693 22.7302 12.1856C23.154 12.2019 23.3823 11.9248 23.3823 11.4194C23.3823 9.39793 26.7405 8.56653 28.2566 10.213C28.7456 10.7347 28.7619 11.4357 28.3055 12.0226C27.8816 12.5605 27.8653 12.8051 28.1914 13.0822C28.7782 13.5713 29.7075 12.7399 29.8542 11.5987C29.9194 11.1096 30.0172 10.9629 30.2617 10.9629C31.0931 10.9629 32.218 11.99 32.4951 13.0007C32.7396 13.8973 32.7722 13.8484 31.8593 14.4027C31.0442 14.908 30.8649 15.283 31.2398 15.6579C31.5496 15.9677 31.9571 15.8862 32.7885 15.3808C33.3754 15.0221 33.6199 14.9406 33.8482 15.0547C34.4024 15.3482 34.6633 15.984 34.6796 16.9947C34.6796 17.8587 34.6307 18.0543 34.2557 18.413C33.8482 18.8368 33.8319 18.8368 33.1798 18.5597C32.3158 18.2337 31.7615 18.2337 31.6311 18.5597C31.4355 19.0651 31.6963 19.3911 32.544 19.7497C33.4895 20.141 33.7993 20.1736 34.4024 19.8965C34.7937 19.7171 34.8752 19.7334 35.2176 20.141C36.4402 21.5593 35.4132 23.8416 33.5547 23.8416C32.8538 23.8416 32.8375 23.8253 32.8375 23.3036C32.8375 22.6352 32.006 21.4452 31.4355 21.2984C30.4737 21.0539 30.2291 21.8527 31.0442 22.6189C31.6474 23.1895 31.7126 23.8416 31.1746 23.8579C30.8486 23.8742 17.3016 23.8579 14.7911 23.8416C13.9923 23.8416 13.9271 23.809 13.9271 23.4503C13.9271 23.2058 14.139 22.8471 14.4324 22.57C14.8563 22.1787 14.9215 21.9994 14.84 21.6571C14.7422 21.2332 14.3998 21.1191 13.8619 21.331C13.4217 21.4941 12.7207 22.5863 12.6229 23.271C12.5414 23.9231 12.5414 23.9231 11.8893 23.8742C10.4873 23.76 9.60702 22.7493 9.73743 21.4126C9.78634 21.0213 9.96566 20.5159 10.145 20.2714C10.4547 19.8476 10.683 19.8149 11.4818 20.0106C12.0034 20.141 13.6988 19.5378 13.8292 19.1629C13.9923 18.739 13.764 18.2989 13.3891 18.2989C13.1935 18.2989 12.7207 18.413 12.3458 18.5597C11.6774 18.8205 11.6285 18.8205 11.3187 18.5434C10.4221 17.7446 10.634 15.5764 11.6448 15.0384C11.8404 14.9406 12.1175 15.0384 12.6392 15.3808C13.4054 15.8862 13.9108 15.9677 14.2205 15.6579C14.5954 15.283 14.4161 14.8917 13.6825 14.4516C13.0141 14.0766 12.9489 13.9625 12.9489 13.4245C12.9489 13.0496 13.0957 12.5768 13.3239 12.2508C14.0575 11.1586 15.5573 10.5228 15.5573 11.3053C15.5573 11.5009 15.7203 11.99 15.9159 12.3812C16.3235 13.1963 16.894 13.4571 17.3179 13.017C17.5787 12.7725 17.5624 12.6909 17.1386 11.9411C16.7147 11.1912 16.6984 11.1096 16.9266 10.6858C17.2038 10.1315 17.6276 9.72397 18.1656 9.51205C18.8503 9.23491 20.1381 9.30012 20.8554 9.65876ZM9.26467 24.0209C10.3243 25.1457 9.34618 25.0642 22.3552 25.1131C29.952 25.1457 34.3698 25.0968 34.7611 24.999C35.1034 24.9012 35.674 24.5262 36.0653 24.135L36.7662 23.4503L37.3205 24.0861C37.6303 24.4447 37.9563 24.999 38.0541 25.3087C38.1845 25.7 38.2171 28.3083 38.1845 33.3131L38.1356 40.7305L37.5813 41.839C36.9456 43.078 35.8696 44.1376 34.6633 44.7408L33.8971 45.1157H22.8117H11.7263L10.8134 44.6919C9.55811 44.105 8.6615 43.241 7.9279 41.9531L7.32473 40.8772L7.27582 33.4598C7.24322 29.3843 7.27582 25.8141 7.32473 25.537C7.40624 25.0642 8.46587 23.5155 8.6941 23.5155C8.74301 23.5155 9.00384 23.7437 9.26467 24.0209ZM5.93905 33.8836V38.7253L4.63489 38.6438C3.49374 38.5786 3.24921 38.5134 2.71125 38.0896C2.3852 37.8124 1.94505 37.2745 1.74942 36.8669C1.42338 36.2311 1.39078 35.8888 1.39078 33.8673C1.37448 31.9926 1.43969 31.4709 1.68422 30.933C2.27109 29.6614 3.26552 29.0745 4.84682 29.0582H5.93905V33.8836ZM42.26 29.368C43.7598 30.1342 44.0859 30.9493 44.0859 33.8999C44.0696 36.4757 43.8413 37.2092 42.7491 38.0896C42.2111 38.5134 41.9666 38.5786 40.8255 38.6438L39.5213 38.7253V33.8836V29.0582H40.5809C41.3145 29.0582 41.8525 29.156 42.26 29.368ZM30.1476 47.6915V48.7837H23.6268C20.0403 48.7837 16.6821 48.7837 16.1767 48.7837H15.2312V47.7567C15.2312 47.1861 15.2801 46.6644 15.3453 46.6155C15.3942 46.5503 18.7525 46.5177 22.7954 46.534L30.1476 46.5829V47.6915Z" fill="white"/>
<path d="M18.5913 16.5393C16.9284 21.2017 16.8958 21.2995 16.9774 21.4299C17.01 21.5114 17.3034 21.5603 17.6131 21.5603C18.1511 21.5603 18.2163 21.5114 18.575 20.6637L18.9825 19.7671H20.5964H22.2103L22.4059 20.2888C22.895 21.6092 22.8461 21.5603 23.5471 21.5603C23.9057 21.5603 24.1992 21.4951 24.1992 21.4299C24.1992 21.2832 23.5308 19.3106 22.031 15.0395L21.493 13.4908L20.5964 13.4419L19.6998 13.393L18.5913 16.5393ZM21.167 16.8979C21.4115 17.5174 21.5745 18.1206 21.5256 18.251C21.4604 18.414 21.1833 18.4629 20.4986 18.4303C19.4227 18.3814 19.4227 18.3977 19.9606 16.9142C20.14 16.3763 20.3356 15.8383 20.3845 15.7079C20.4986 15.3655 20.6779 15.6264 21.167 16.8979Z" fill="white"/>
<path d="M25.8607 17.4337L25.9096 21.4766H26.5617H27.2138L27.2627 17.4337L27.2953 13.407H26.5617H25.8281L25.8607 17.4337Z" fill="white"/>
<path d="M14.124 27.8338C13.0155 28.0946 12.0699 28.7467 11.3363 29.79C10.7984 30.5236 10.7495 30.7029 10.6843 31.893C10.6517 32.594 10.7169 33.458 10.8147 33.784C11.0592 34.6317 12.1841 35.8381 13.1785 36.3435C14.8902 37.2238 17.2703 36.7347 18.5419 35.2512C19.145 34.5339 19.6341 33.1809 19.6341 32.1864C19.6341 30.5562 18.5093 28.8445 16.9932 28.1598C15.8357 27.6545 15.151 27.573 14.124 27.8338ZM16.5367 29.4477C18.4277 30.4095 18.8842 32.8711 17.4659 34.3872C16.7975 35.1045 16.0802 35.4142 15.1184 35.4142C13.1133 35.3979 11.5972 33.6373 11.9558 31.73C12.1514 30.6703 12.7383 29.9041 13.6838 29.4477C14.7109 28.9586 15.5912 28.9586 16.5367 29.4477Z" fill="white"/>
<path d="M29.6113 27.7694C27.9811 28.0791 26.6606 29.204 26.1226 30.769C25.764 31.8123 25.764 32.6274 26.1063 33.736C26.4813 34.926 27.3127 35.8389 28.4864 36.4095C29.3015 36.7844 29.6113 36.8497 30.4264 36.7844C32.3011 36.654 33.7683 35.6433 34.5019 33.9968C34.7627 33.4099 34.8116 32.9861 34.7627 31.9916C34.7138 30.8179 34.6649 30.6386 34.0617 29.7583C33.0347 28.2585 31.2578 27.476 29.6113 27.7694ZM31.7957 29.4648C34.1106 30.6223 34.1269 33.899 31.7957 35.0564C29.0407 36.4421 26.2041 33.6218 27.5246 30.8179C27.8669 30.1169 28.1767 29.8072 29.0244 29.3833C29.9047 28.9432 30.8176 28.9758 31.7957 29.4648Z" fill="white"/>
<path d="M17.4808 41.0389C17.3504 41.3487 17.3504 41.4954 17.5134 41.691C17.6927 41.9029 18.4263 41.9355 22.7301 41.9355C27.0338 41.9355 27.7674 41.9029 27.9467 41.691C28.1097 41.4954 28.1097 41.3487 27.9793 41.0389L27.7837 40.6314H22.7301H17.6764L17.4808 41.0389Z" fill="white"/>
<circle cx="15.0687" cy="32.182" r="1.46719" fill="white"/>
<circle cx="30.391" cy="32.182" r="1.46719" fill="white"/>
</svg>
