<svg width="28" height="10" viewBox="0 0 28 10" fill="none" xmlns="http://www.w3.org/2000/svg">
<path d="M19.8887 7.16962V0H21.3309V7.16962H19.8887Z" fill="white"/>
<path d="M3.0895 9.29852H0V2.12891H2.96425C4.40653 2.12891 5.24532 2.91457 5.24532 4.14429C5.24532 4.94134 4.70637 5.45373 4.33441 5.62452C4.77848 5.82568 5.35159 6.27734 5.35159 7.23759C5.35159 8.57359 4.40653 9.29852 3.0895 9.29852ZM2.85418 3.37761H1.44607V5.02864H2.85418C3.46525 5.02864 3.80684 4.69464 3.80684 4.20123C3.80684 3.70782 3.46525 3.37761 2.85418 3.37761ZM2.94527 6.28493H1.44227V8.04602H2.94527C3.59809 8.04602 3.90932 7.6437 3.90932 7.15789C3.90932 6.67207 3.59809 6.28493 2.94527 6.28493Z" fill="#14192C"/>
<path d="M9.74693 6.35705V9.29852H8.31605V6.35705L6.0957 2.12891H7.65943L9.03718 5.01725L10.396 2.12891H11.9597L9.74693 6.35705Z" fill="#14192C"/>
<path d="M16.0504 9.29852H12.9609V2.12891H15.9252C17.3675 2.12891 18.2063 2.91457 18.2063 4.14429C18.2063 4.94134 17.6673 5.45373 17.2953 5.62452C17.7394 5.82568 18.3125 6.27734 18.3125 7.23759C18.3087 8.57359 17.3675 9.29852 16.0504 9.29852ZM15.8113 3.37761H14.4032V5.02864H15.8113C16.4224 5.02864 16.764 4.69464 16.764 4.20123C16.764 3.70782 16.4224 3.37761 15.8113 3.37761ZM15.9024 6.28493H14.3994V8.04602H15.9024C16.5552 8.04602 16.8665 7.6437 16.8665 7.15789C16.8665 6.67207 16.559 6.28493 15.9024 6.28493Z" fill="#14192C"/>
<path d="M25.972 3.37761V9.29852H24.5298V3.37761H22.6055V2.12891H27.9001V3.37761H25.972Z" fill="#14192C"/>
</svg>
