<svg width="15" height="17" viewBox="0 0 15 17" fill="none" xmlns="http://www.w3.org/2000/svg">
<path d="M7.15143 6.75977C9.1897 6.75977 11.228 6.75977 13.2603 6.75977C13.9516 6.75977 14.2411 7.04926 14.2411 7.74641C14.2411 9.40065 14.2411 11.0549 14.2411 12.7032C14.2411 13.4063 14.0934 14.0739 13.7507 14.6883C13.1304 15.799 12.1201 16.2953 10.903 16.3603C8.58118 16.4844 6.25932 16.3958 3.93747 16.4076C3.58298 16.4076 3.2285 16.3662 2.87993 16.3012C1.06616 15.9704 0.126788 14.7356 0.0440751 12.9986C-0.0386373 11.179 0.020443 9.3593 0.020443 7.53963C0.020443 7.0788 0.380833 6.76567 0.883015 6.76567C2.1237 6.75977 3.36439 6.76567 4.60507 6.76567C5.45583 6.75977 6.30068 6.75977 7.15143 6.75977ZM5.11316 10.0801C5.11316 9.64288 4.80595 9.33567 4.36875 9.33567C3.9611 9.33567 3.63025 9.64879 3.61252 10.0564C3.60071 10.4582 3.97882 10.8422 4.38648 10.8304C4.79413 10.8186 5.11316 10.4877 5.11316 10.0801ZM9.15425 10.0446C9.14244 10.47 9.45557 10.8127 9.87504 10.8245C10.2709 10.8363 10.6372 10.4877 10.649 10.0801C10.6608 9.68424 10.3359 9.34157 9.92821 9.32976C9.48511 9.31794 9.16607 9.61334 9.15425 10.0446ZM4.39238 13.5658C4.81776 13.5599 5.12498 13.2409 5.11316 12.7978C5.10135 12.3901 4.7705 12.0652 4.36875 12.0711C3.96701 12.077 3.61252 12.4374 3.61252 12.8332C3.61843 13.2468 3.9611 13.5717 4.39238 13.5658ZM9.90458 12.1006C9.44966 12.0947 9.14835 12.3842 9.14835 12.8214C9.14835 13.2527 9.45556 13.5658 9.89276 13.5658C10.3122 13.5658 10.6549 13.2291 10.649 12.8214C10.6372 12.4137 10.324 12.1065 9.90458 12.1006ZM6.3893 10.0742C6.39521 10.4877 6.74378 10.8304 7.14553 10.8245C7.54727 10.8186 7.88994 10.4582 7.87812 10.0505C7.87221 9.63698 7.55318 9.32976 7.13962 9.32976C6.70242 9.33567 6.38339 9.6547 6.3893 10.0742ZM7.1278 12.1006C6.69652 12.1006 6.37748 12.4137 6.3893 12.8391C6.39521 13.2468 6.71424 13.5599 7.1278 13.5599C7.55318 13.5658 7.88403 13.2468 7.88403 12.8273C7.87812 12.4019 7.5709 12.1006 7.1278 12.1006Z" fill="white"/>
<path d="M7.1265 5.65494C5.02915 5.65494 2.9318 5.65494 0.834452 5.65494C0.704475 5.65494 0.574498 5.65494 0.45043 5.63721C0.160936 5.59586 0.0132356 5.41271 0.0427758 5.12321C0.202293 3.58713 0.917164 2.32281 2.76047 1.90925C3.39854 1.76745 3.34536 1.93288 3.34536 1.18256C3.34536 0.987595 3.33946 0.786722 3.36309 0.591757C3.41035 0.213643 3.67621 -0.01677 4.01297 0.00095413C4.36155 0.0186782 4.59787 0.278631 4.60968 0.680377C4.61559 0.946239 4.6215 1.2121 4.60968 1.47796C4.60377 1.67883 4.68058 1.76155 4.88145 1.75564C6.37618 1.74973 7.87682 1.74973 9.37155 1.75564C9.59015 1.75564 9.66695 1.67293 9.66105 1.46024C9.64923 1.20619 9.65514 0.946239 9.66105 0.692193C9.67286 0.278631 9.91509 0.0127702 10.2755 0.00095413C10.6181 -0.0049539 10.8781 0.243183 10.9135 0.639021C10.9372 0.893066 10.9372 1.15302 10.9195 1.40706C10.8958 1.69656 10.9963 1.82063 11.2976 1.8738C12.2133 2.0215 13.005 2.39961 13.5603 3.17947C13.9798 3.76437 14.163 4.43788 14.228 5.14094C14.2575 5.43043 14.098 5.60177 13.8085 5.64312C13.6844 5.66085 13.5544 5.65494 13.4245 5.65494C11.3153 5.65494 9.22385 5.65494 7.1265 5.65494Z" fill="white"/>
</svg>
