<svg width="43" height="44" viewBox="0 0 43 44" fill="none" xmlns="http://www.w3.org/2000/svg">
<path d="M19.8747 22.0908C19.8747 18.0362 19.8697 13.9817 19.8771 9.92707C19.8796 9.09033 19.748 8.29828 19.4575 7.50375C18.7797 5.66143 17.6152 4.47708 15.5618 4.42991C12.7139 4.36535 11.3583 5.04567 10.5091 8.0624C10.2509 8.98108 10.2137 9.93451 10.2186 10.8929C10.236 13.6241 10.241 16.3528 10.2161 19.084C10.2087 19.9158 10.4148 20.4397 11.2888 20.7774C16.0112 22.5998 17.9355 28.4148 14.3899 32.8766C12.0436 35.8263 7.29375 36.4743 4.0908 34.2273C0.244776 31.5309 -0.338708 25.989 2.84686 22.5775C3.60415 21.7656 4.52779 21.2169 5.53337 20.8419C6.46694 20.4943 6.76738 19.9059 6.75993 18.9549C6.73262 15.6874 6.72765 12.4174 6.77979 9.14992C6.84435 5.15988 8.88033 2.08108 12.7164 1.10529C17.9852 -0.232994 22.7648 2.71422 23.1571 8.15427C23.4972 12.847 23.1198 17.5645 23.2812 22.2572C23.4302 26.5824 22.8641 30.9126 23.6015 35.2428C24.2967 39.3173 27.7653 40.0497 30.6008 39.1906C32.2594 38.6891 32.9546 37.2118 33.3146 35.6078C33.8187 33.3583 33.4437 31.069 33.5778 28.8046C33.6126 28.2286 33.5282 27.6401 33.5952 27.0691C33.841 24.899 33.3941 23.4242 31.0875 22.2944C28.2917 20.9288 27.2886 18.0437 27.666 15.0071C27.9838 12.4596 29.3693 10.4882 31.7454 9.1524C35.5344 7.01958 40.5945 9.07046 42.34 12.7601C44.1153 16.5117 42.1637 21.6141 38.2382 23.0617C37.26 23.4217 37.0365 23.9927 37.044 24.9288C37.0762 28.0722 37.1209 31.2205 37.0216 34.3614C36.9347 37.0851 36.0806 39.4786 33.9031 41.383C30.715 44.1713 22.8293 43.9106 20.617 37.8772C20.1453 36.5885 19.8523 35.2776 19.8672 33.8822C19.9094 29.9517 19.8821 26.0213 19.8821 22.0908C19.8796 22.0908 19.8771 22.0908 19.8747 22.0908ZM39.502 16.0201C39.5244 13.8376 37.5033 11.8017 35.3134 11.7992C33.0986 11.7967 31.1098 13.793 31.1222 16.0052C31.1346 18.148 33.0812 20.1244 35.2364 20.1815C37.399 20.2386 39.4772 18.2125 39.502 16.0201ZM12.6866 27.8884C12.6717 25.6985 10.6209 23.6824 8.44582 23.7171C6.20624 23.7544 4.25716 25.7556 4.30681 27.9704C4.35399 30.1255 6.32045 32.0796 8.46569 32.0994C10.6407 32.1218 12.7015 30.0659 12.6866 27.8884Z" fill="#FF6CFB"/>
</svg>
