<svg width="46" height="45" viewBox="0 0 46 45" fill="none" xmlns="http://www.w3.org/2000/svg">
<path d="M45.0209 19.4454C45.0209 25.1643 45.0035 30.8821 45.036 36.601C45.0419 37.6376 44.6301 38.2518 43.7274 38.6974C39.7133 40.6785 35.7119 42.6853 31.714 44.7001C30.9998 45.0596 30.3298 45.0817 29.6005 44.7548C25.392 42.8702 21.1743 41.0089 16.9682 39.1196C16.4668 38.894 16.0458 38.8928 15.5433 39.1196C11.3209 41.0205 7.08452 42.8888 2.86213 44.7886C1.45932 45.4191 0.241454 44.5954 0.246107 43.125C0.284492 31.5917 0.274024 20.0573 0.255413 8.52406C0.254249 7.57362 0.656714 6.99312 1.48491 6.6255C6.08883 4.57688 10.6893 2.52709 15.2908 0.478467C15.9481 0.185307 16.5878 0.188797 17.2543 0.48661C21.5337 2.40261 25.8212 4.30001 30.0995 6.21718C30.4822 6.38818 30.7892 6.32536 31.1405 6.14854C34.8802 4.26743 38.6245 2.39796 42.3688 0.526163C43.3133 0.053851 44.1171 0.177164 44.6871 0.855386C45 1.22881 45.0209 1.6639 45.0209 2.11527C45.0186 7.36887 45.0198 12.6213 45.0198 17.8749C45.0209 18.3984 45.0209 18.9219 45.0209 19.4454ZM14.5894 20.2551C14.5894 15.2167 14.5906 10.1783 14.5883 5.13993C14.5883 4.49312 14.5778 4.48381 13.9869 4.74556C10.6927 6.20089 7.40207 7.66785 4.10326 9.11503C3.69847 9.29302 3.58564 9.55244 3.58564 9.97008C3.59378 20.0282 3.59494 30.0852 3.58564 40.1434C3.58564 40.6413 3.68567 40.7495 4.17305 40.5308C7.45907 39.0545 10.7532 37.5957 14.0532 36.1508C14.4801 35.9635 14.5988 35.6971 14.5976 35.2551C14.5848 30.2551 14.5894 25.2551 14.5894 20.2551ZM28.9246 25.0492C28.9246 20.0689 28.9177 15.0876 28.9351 10.1074C28.9374 9.5664 28.7699 9.26277 28.2663 9.0429C25.0547 7.63644 21.8559 6.20321 18.6513 4.78279C18.0011 4.49545 17.986 4.50824 17.9848 5.21322C17.9836 15.2132 17.9871 25.2132 17.9743 35.2132C17.9732 35.7437 18.1767 36.0194 18.6432 36.2253C21.835 37.6294 25.0175 39.051 28.2046 40.4645C28.9177 40.7809 28.9235 40.7727 28.9235 39.9921C28.9246 35.0108 28.9246 30.0305 28.9246 25.0492ZM41.6953 20.3214C41.6953 15.3388 41.6953 10.3551 41.6953 5.3726C41.6953 4.6269 41.6674 4.61411 41.0172 4.93984C38.3337 6.28581 35.6526 7.63993 32.9574 8.9638C32.4956 9.19065 32.3049 9.45356 32.306 9.98055C32.32 19.9654 32.3165 29.9503 32.3177 39.9363C32.3177 40.625 32.334 40.6331 32.9365 40.3318C35.6409 38.98 38.3395 37.6155 41.0556 36.2869C41.5476 36.0461 41.7081 35.7483 41.707 35.212C41.6872 30.2481 41.6953 25.2853 41.6953 20.3214Z" fill="#FF6CFB"/>
</svg>
