<svg width="46" height="37" viewBox="0 0 46 37" fill="none" xmlns="http://www.w3.org/2000/svg">
<path d="M22.8965 36.6088C18.0652 36.6088 13.2338 36.5469 8.40387 36.6341C5.77357 36.682 3.98767 35.656 2.85195 33.279C0.584743 28.5307 -0.223064 23.598 0.935168 18.4402C2.76188 10.31 7.61858 4.68211 15.4067 1.79849C22.0634 -0.667153 28.5428 0.105471 34.6815 3.66883C35.3275 4.04459 35.319 4.11495 34.6745 4.54841C33.664 5.22956 32.6381 5.8896 31.6445 6.59467C31.2279 6.89161 30.8817 6.8888 30.4201 6.68755C25.3172 4.45412 20.2043 4.47241 15.1745 6.85502C8.23639 10.1411 4.26491 17.5592 5.21345 25.1982C5.47943 27.3415 6.12962 29.3512 7.08661 31.2792C7.33289 31.7746 7.64109 31.928 8.18292 31.9266C18.0328 31.9111 27.8813 31.9111 37.7312 31.9266C38.2998 31.928 38.6192 31.7605 38.874 31.2412C41.3973 26.089 41.5437 20.8777 39.2905 15.6086C39.0597 15.0682 39.0597 14.6826 39.4087 14.1985C40.1082 13.2302 40.7344 12.2099 41.3973 11.2149C41.8012 10.6098 41.9349 10.6098 42.3092 11.2346C43.9798 14.0296 45.0127 17.0342 45.4124 20.2753C46.0035 25.0701 45.0493 29.5454 42.83 33.7927C41.842 35.6828 40.2897 36.6074 38.1675 36.6074C33.0744 36.6074 27.9855 36.6074 22.8965 36.6088Z" fill="#9708D5"/>
<path d="M38.8729 7.20699C38.5549 7.69674 38.2706 8.14709 37.9751 8.5904C34.1922 14.2662 30.4078 19.9419 26.6249 25.6177C25.6567 27.07 23.9384 27.8033 22.2369 27.4852C20.306 27.1249 18.8677 25.7443 18.4638 23.8627C18.0951 22.1388 18.7833 20.3346 20.23 19.3663C26.2478 15.3385 32.2726 11.3234 38.2959 7.3041C38.4296 7.21543 38.5563 7.09581 38.8729 7.20699Z" fill="#9708D5"/>
</svg>
