<svg width="16" height="16" viewBox="0 0 16 16" fill="none" xmlns="http://www.w3.org/2000/svg">
<path d="M7.8042 0.197574C7.58739 0.230929 7.258 0.431067 7.14125 0.602015C7.09539 0.672897 6.57003 1.76114 5.98213 3.02033C5.39006 4.27535 4.86053 5.36359 4.80633 5.43448C4.65622 5.63878 4.3727 5.75553 4.10168 5.73468C3.88903 5.718 3.80147 5.66797 2.73825 4.95915C2.11282 4.5422 1.52909 4.17528 1.4457 4.13776C1.23306 4.0502 0.807768 4.05854 0.599293 4.15444C0.382478 4.25034 0.169833 4.46298 0.0739345 4.67979C-0.0803372 5.01752 -0.0636592 5.12176 0.828615 8.56995C1.29143 10.3462 1.70421 11.8722 1.75008 11.9598C1.85848 12.1766 2.11699 12.4226 2.36299 12.5435C2.4918 12.6093 2.63437 12.6436 2.779 12.6436H8.00017H13.2213C13.366 12.6436 13.5085 12.6093 13.6373 12.5435C13.8833 12.4226 14.1419 12.1766 14.2503 11.9598C14.2961 11.8722 14.7089 10.3462 15.1717 8.56995C16.064 5.12176 16.0807 5.01752 15.9264 4.67979C15.8305 4.46298 15.6179 4.25034 15.401 4.15444C15.1926 4.05854 14.7673 4.0502 14.5546 4.13776C14.4712 4.17528 13.8875 4.5422 13.2621 4.95915C12.1989 5.66797 12.1113 5.718 11.8987 5.73468C11.6276 5.75553 11.3441 5.63878 11.194 5.43448C11.1398 5.36359 10.6061 4.26701 10.0099 2.99948C9.41363 1.73195 8.87576 0.631203 8.81739 0.551982C8.70065 0.39771 8.35041 0.214252 8.12525 0.189235C8.04603 0.176726 7.9001 0.180896 7.8042 0.197574Z" fill="url(#paint0_linear_10303_2071)"/>
<path d="M1.91403 14.7158C1.65969 14.8492 1.56796 14.991 1.54711 15.2787C1.53461 15.483 1.54711 15.5455 1.6305 15.6664C1.68471 15.7457 1.79312 15.8541 1.86817 15.9041C1.96055 15.9666 2.06954 16 2.18108 16H8.00151H13.8219C13.9335 16 14.0425 15.9666 14.1349 15.9041C14.2099 15.8541 14.3183 15.7457 14.3725 15.6664C14.4559 15.5455 14.4684 15.483 14.4559 15.2787C14.4351 14.991 14.3433 14.8492 14.089 14.7158C13.9683 14.6555 13.8353 14.6241 13.7004 14.6241H8.00151H2.3026C2.16771 14.6241 2.03468 14.6555 1.91403 14.7158Z" fill="url(#paint1_linear_10303_2071)"/>
<defs>
<linearGradient id="paint0_linear_10303_2071" x1="8.00017" y1="2.00813" x2="8.20492" y2="15.7917" gradientUnits="userSpaceOnUse">
<stop stop-color="#C4A502"/>
<stop offset="1" stop-color="#FFF3B6"/>
</linearGradient>
<linearGradient id="paint1_linear_10303_2071" x1="8.00151" y1="14.8257" x2="8.00461" y2="16.3479" gradientUnits="userSpaceOnUse">
<stop stop-color="#C4A502"/>
<stop offset="1" stop-color="#FFF3B6"/>
</linearGradient>
</defs>
</svg>
