<svg width="20" height="19" viewBox="0 0 20 19" fill="none" xmlns="http://www.w3.org/2000/svg">
<path d="M10.0444 18.6521C8.12065 18.6521 6.20375 18.659 4.28004 18.6521C2.85431 18.6453 1.79695 18.0109 1.17617 16.708C0.964701 16.2577 0.903306 15.7734 0.896484 15.2822C0.896484 12.8332 0.896484 10.3911 0.896484 7.94892C0.896484 6.68009 1.41493 5.70459 2.47229 4.98831C4.34826 3.7263 6.20375 2.437 8.07289 1.16135C9.40994 0.247241 10.7402 0.274528 12.0704 1.18863C13.9191 2.47111 15.7746 3.73994 17.6437 5.00195C18.667 5.69777 19.1854 6.64598 19.1922 7.87388C19.1991 10.3502 19.2059 12.8332 19.1922 15.3095C19.1786 16.8853 18.2713 18.0996 16.8251 18.5225C16.4772 18.6249 16.1088 18.6521 15.7473 18.6521C13.844 18.659 11.9408 18.659 10.0444 18.6521ZM10.058 15.3641C10.7743 15.3641 11.4906 15.3709 12.2 15.3641C12.5343 15.3641 12.7457 15.2004 12.7185 14.9616C12.6912 14.6478 12.4729 14.566 12.1864 14.566C10.7538 14.566 9.32808 14.566 7.89553 14.566C7.61584 14.566 7.39073 14.6478 7.35662 14.9548C7.32933 15.2072 7.54762 15.3641 7.90235 15.3641C8.62545 15.3709 9.34173 15.3709 10.058 15.3641Z" fill="black"/>
</svg>
