<svg width="39" height="34" viewBox="0 0 39 34" fill="none" xmlns="http://www.w3.org/2000/svg">
<path d="M7.66465 1.12006C7.77562 1.30165 8.60285 2.72408 9.5007 4.27766C10.4086 5.83124 11.1955 7.16287 11.256 7.2234C11.3468 7.32429 12.1236 6.59794 14.6457 4.07589L17.9243 0.797236H12.6987H7.46289L7.66465 1.12006Z" fill="url(#paint0_linear_10535_2648)"/>
<path d="M24.9349 4.07589C27.4569 6.59794 28.2337 7.32429 28.3245 7.2234C28.3851 7.16287 29.1719 5.83124 30.0799 4.27766C30.9777 2.72408 31.805 1.30165 31.9159 1.12006L32.1177 0.797236H26.8819H21.6562L24.9349 4.07589Z" fill="url(#paint1_linear_10535_2648)"/>
<path d="M16.3792 4.48992L13.0098 7.85938H19.789H26.5683L23.1887 4.47984C21.3224 2.62361 19.789 1.1003 19.7688 1.11039C19.7487 1.11039 18.2254 2.6337 16.3792 4.48992Z" fill="url(#paint2_linear_10535_2648)"/>
<path d="M3.32571 4.60468L0.652344 7.81272L5.19202 7.84298C7.69389 7.85307 9.75188 7.85307 9.77205 7.83289C9.80232 7.79254 6.22102 1.61858 6.07978 1.47735C6.02934 1.42691 4.81876 2.7989 3.32571 4.60468Z" fill="url(#paint3_linear_10535_2648)"/>
<path d="M33.378 1.61858C32.8332 2.49625 29.7866 7.80263 29.8067 7.83289C29.8269 7.85307 31.8849 7.85307 34.3868 7.84298L38.9264 7.81272L36.3842 4.74591C34.982 3.06119 33.7613 1.61858 33.6806 1.53787C33.5495 1.39664 33.5091 1.40673 33.378 1.61858Z" fill="url(#paint4_linear_10535_2648)"/>
<path d="M0.580544 9.4949C0.630985 9.56551 1.11522 10.2112 1.67007 10.9375C2.22492 11.6538 3.81885 13.742 5.21102 15.5781C6.60318 17.404 8.58047 19.9967 9.59937 21.3283C10.6183 22.66 12.2425 24.7886 13.2109 26.0698C15.6119 29.2173 17.5892 31.7998 17.68 31.9108C17.7204 31.9613 17.6396 31.6384 17.5085 31.2046C17.2361 30.3673 16.8931 29.2677 16.3685 27.583C16.1869 27.0281 15.9146 26.1606 15.7632 25.6662C15.6018 25.1618 15.3295 24.3043 15.158 23.7495C14.9764 23.1946 14.704 22.317 14.5426 21.8025C14.3812 21.2981 14.1088 20.4406 13.9373 19.916C13.7759 19.3914 13.5035 18.5339 13.3421 18.0194C12.9688 16.8391 12.5249 15.4469 12.1315 14.1859C11.96 13.6512 11.6876 12.7635 11.5161 12.2187C11.3446 11.684 11.0823 10.8265 10.9209 10.3322L10.6485 9.42428L5.57419 9.39401C1.57927 9.37384 0.520015 9.39401 0.580544 9.4949Z" fill="url(#paint5_linear_10535_2648)"/>
<path d="M12.2227 9.47316C12.2227 9.5236 12.263 9.66483 12.3235 9.79598C12.374 9.92713 12.6262 10.7039 12.8784 11.5412C13.1306 12.3685 13.403 13.236 13.4837 13.458C13.6148 13.8615 14.4421 16.4643 14.9162 17.9977C15.0473 18.4415 15.2188 18.9863 15.2995 19.2082C15.4408 19.6118 16.268 22.2549 16.7321 23.7479C16.8632 24.1918 17.0347 24.7366 17.1154 24.9585C17.186 25.1804 17.4887 26.1086 17.7712 27.0266C18.0536 27.9446 18.326 28.8021 18.3764 28.9433C18.4571 29.1754 19.2945 31.8487 19.6072 32.8575C19.6778 33.0896 19.7585 33.2812 19.7888 33.2812C19.8191 33.2812 19.8998 33.0896 19.9704 32.8575C20.2831 31.8487 21.1204 29.1754 21.2011 28.9433C21.2516 28.8021 21.524 27.9446 21.8064 27.0266C22.0889 26.1086 22.3915 25.1804 22.4622 24.9585C22.5429 24.7366 22.7144 24.1918 22.8455 23.7479C23.3096 22.2549 24.1368 19.6118 24.278 19.2082C24.3587 18.9863 24.5302 18.4415 24.6614 17.9977C25.1355 16.4643 25.9627 13.8615 26.0939 13.458C26.1746 13.236 26.447 12.3685 26.6992 11.5412C26.9514 10.7039 27.2036 9.92713 27.254 9.79598C27.3146 9.66483 27.3549 9.5236 27.3549 9.47316C27.3549 9.41263 24.5201 9.37228 19.7888 9.37228C15.0574 9.37228 12.2227 9.41263 12.2227 9.47316Z" fill="url(#paint6_linear_10535_2648)"/>
<path d="M28.9205 9.4949C28.8902 9.56551 28.7591 9.98922 28.6279 10.4331C28.3959 11.1897 28.174 11.8858 27.4577 14.1355C27.1853 15.0131 27.0441 15.457 26.237 18.0194C25.8436 19.2804 25.3997 20.6726 25.0264 21.8529C24.0983 24.7886 24.1891 24.5162 23.2106 27.6032C23.0391 28.1479 22.7667 28.9953 22.6154 29.4997C22.454 29.9941 22.2118 30.7608 22.0706 31.2046C21.9395 31.6384 21.8588 31.9613 21.8991 31.9108C21.9899 31.7998 23.9672 29.2173 26.3682 26.0698C27.3366 24.7886 28.9608 22.66 29.9797 21.3283C30.9986 19.9967 32.9759 17.404 34.3681 15.5781C35.7603 13.742 37.3542 11.6538 37.909 10.9375C38.4639 10.2112 38.9481 9.56551 38.9986 9.4949C39.0591 9.4041 37.9797 9.37384 34.015 9.37384C30.0705 9.37384 28.9507 9.4041 28.9205 9.4949Z" fill="url(#paint7_linear_10535_2648)"/>
<defs>
<linearGradient id="paint0_linear_10535_2648" x1="8.48027" y1="1.5376" x2="15.7445" y2="5.48963" gradientUnits="userSpaceOnUse">
<stop stop-color="#00AAF0"/>
<stop offset="1" stop-color="#87DAFF"/>
</linearGradient>
<linearGradient id="paint1_linear_10535_2648" x1="22.6736" y1="1.5376" x2="29.9379" y2="5.48963" gradientUnits="userSpaceOnUse">
<stop stop-color="#00AAF0"/>
<stop offset="1" stop-color="#87DAFF"/>
</linearGradient>
<linearGradient id="paint2_linear_10535_2648" x1="14.3283" y1="1.88681" x2="22.7315" y2="7.53633" gradientUnits="userSpaceOnUse">
<stop stop-color="#00AAF0"/>
<stop offset="1" stop-color="#87DAFF"/>
</linearGradient>
<linearGradient id="paint3_linear_10535_2648" x1="1.53926" y1="2.20928" x2="8.21543" y2="5.4062" gradientUnits="userSpaceOnUse">
<stop stop-color="#00AAF0"/>
<stop offset="1" stop-color="#87DAFF"/>
</linearGradient>
<linearGradient id="paint4_linear_10535_2648" x1="30.6935" y1="2.18062" x2="37.3823" y2="5.36733" gradientUnits="userSpaceOnUse">
<stop stop-color="#00AAF0"/>
<stop offset="1" stop-color="#87DAFF"/>
</linearGradient>
<linearGradient id="paint5_linear_10535_2648" x1="2.24231" y1="11.9789" x2="16.7071" y2="15.6558" gradientUnits="userSpaceOnUse">
<stop stop-color="#00AAF0"/>
<stop offset="1" stop-color="#87DAFF"/>
</linearGradient>
<linearGradient id="paint6_linear_10535_2648" x1="13.6943" y1="12.123" x2="26.7272" y2="14.8835" gradientUnits="userSpaceOnUse">
<stop stop-color="#00AAF0"/>
<stop offset="1" stop-color="#87DAFF"/>
</linearGradient>
<linearGradient id="paint7_linear_10535_2648" x1="23.5528" y1="11.9673" x2="38.0187" y2="15.6423" gradientUnits="userSpaceOnUse">
<stop stop-color="#00AAF0"/>
<stop offset="1" stop-color="#87DAFF"/>
</linearGradient>
</defs>
</svg>
