<svg width="20" height="20" viewBox="0 0 20 20" fill="none" xmlns="http://www.w3.org/2000/svg">
<path d="M11.144 11.5126C11.2932 11.5002 11.3492 11.3882 11.4238 11.3136C12.1204 10.617 12.817 9.92044 13.5135 9.23009C14.036 8.71388 14.7139 8.68279 15.199 9.15546C15.653 9.60325 15.653 10.3185 15.1554 10.8223C13.725 12.2714 12.2821 13.7205 10.8268 15.1509C10.3043 15.6671 9.6513 15.6734 9.13509 15.1696C7.66732 13.7205 6.21199 12.2651 4.76287 10.7974C4.37105 10.4056 4.30886 9.90178 4.52654 9.45399C4.73178 9.03107 5.17957 8.79473 5.68334 8.83205C5.98187 8.85693 6.20577 9.00619 6.41101 9.21143C7.12002 9.92044 7.82903 10.6357 8.54425 11.3447C8.61267 11.4131 8.67486 11.5561 8.78059 11.5002C8.8801 11.4504 8.83035 11.3136 8.83035 11.2141C8.83035 7.88049 8.83035 4.54068 8.83657 1.2071C8.83657 0.448335 9.30302 -0.0181185 10.0245 0.000539594C10.6215 0.0129783 11.088 0.460773 11.1129 1.05783C11.1253 1.44965 11.1191 1.84769 11.1191 2.23951C11.1191 5.21238 11.1191 8.18524 11.1191 11.1581C11.1129 11.27 11.0942 11.3944 11.144 11.5126Z" fill="white" fill-opacity="0.5"/>
<path d="M9.951 19.9337C8.09763 19.9337 6.24425 19.94 4.38466 19.9337C1.95288 19.9275 0.0124387 17.9746 0 15.5429C0 15.1697 0 14.7965 0 14.4234C0.00621937 13.7455 0.460234 13.2541 1.09461 13.2417C1.74764 13.2293 2.25141 13.7144 2.27629 14.3923C2.28873 14.753 2.27629 15.1199 2.28251 15.4807C2.30739 16.7245 3.2092 17.6512 4.45307 17.6574C8.12872 17.6699 11.8106 17.6699 15.4862 17.6574C16.7426 17.6512 17.6506 16.7245 17.6692 15.462C17.6755 15.1013 17.663 14.7343 17.6755 14.3736C17.7003 13.8139 18.0673 13.3785 18.5959 13.2666C19.0997 13.1608 19.6035 13.4034 19.8398 13.8761C19.8771 13.9507 19.9207 14.0315 19.9269 14.1062C20.045 15.6859 19.9953 17.2283 18.826 18.4846C17.974 19.3926 16.9354 19.9275 15.6728 19.9337C13.7635 19.9462 11.8541 19.9337 9.951 19.9337Z" fill="white" fill-opacity="0.5"/>
</svg>
