<svg width="25" height="24" viewBox="0 0 25 24" fill="none" xmlns="http://www.w3.org/2000/svg">
<path d="M13.415 13.8574C13.5947 13.8424 13.662 13.7077 13.7519 13.6179C14.5903 12.7794 15.4287 11.941 16.2672 11.11C16.896 10.4887 17.712 10.4512 18.2959 11.0202C18.8424 11.5592 18.8424 12.4201 18.2435 13.0265C16.5217 14.7707 14.7849 16.515 13.0332 18.2368C12.4044 18.8581 11.6183 18.8656 10.997 18.2592C9.23026 16.515 7.47851 14.7632 5.73425 12.9965C5.26263 12.5249 5.18777 11.9185 5.44978 11.3795C5.69682 10.8705 6.23582 10.586 6.8422 10.6309C7.20153 10.6608 7.47103 10.8405 7.71807 11.0876C8.57148 11.941 9.4249 12.8019 10.2858 13.6553C10.3681 13.7376 10.443 13.9098 10.5703 13.8424C10.69 13.7825 10.6302 13.6179 10.6302 13.4981C10.6302 9.48553 10.6302 5.4655 10.6376 1.45295C10.6376 0.539648 11.1991 -0.0218088 12.0675 0.000649495C12.7862 0.0156217 13.3476 0.554621 13.3776 1.27329C13.3925 1.74491 13.385 2.22402 13.385 2.69564C13.385 6.274 13.385 9.85235 13.385 13.4307C13.3776 13.5655 13.3551 13.7152 13.415 13.8574Z" fill="white"/>
<path d="M11.9778 23.9936C9.74689 23.9936 7.51604 24.001 5.2777 23.9936C2.35063 23.9861 0.0149722 21.6354 0 18.7084C0 18.2592 0 17.81 0 17.3609C0.00748609 16.5449 0.553971 15.9535 1.31755 15.9385C2.10359 15.9235 2.70997 16.5075 2.73991 17.3234C2.75488 17.7576 2.73991 18.1993 2.7474 18.6335C2.77734 20.1307 3.86282 21.2462 5.36004 21.2536C9.78433 21.2686 14.2161 21.2686 18.6404 21.2536C20.1526 21.2462 21.2455 20.1307 21.268 18.611C21.2755 18.1769 21.2605 17.7352 21.2755 17.301C21.3054 16.6272 21.7471 16.1032 22.3834 15.9685C22.9898 15.8412 23.5962 16.1332 23.8806 16.7021C23.9256 16.7919 23.978 16.8892 23.9854 16.9791C24.1277 18.8805 24.0678 20.7371 22.6604 22.2493C21.6348 23.3423 20.3846 23.9861 18.865 23.9936C16.5667 24.0085 14.2685 23.9936 11.9778 23.9936Z" fill="white"/>
</svg>
