<svg width="20" height="20" viewBox="0 0 20 20" fill="none" xmlns="http://www.w3.org/2000/svg">
<path d="M2.4211 10.3924C2.4211 11.8985 2.41409 13.4047 2.4211 14.9108C2.4281 16.6411 3.56297 17.79 5.29329 17.79C8.32661 17.797 11.3669 17.797 14.4003 17.79C16.1096 17.79 17.2514 16.6411 17.2584 14.9318C17.2654 12.9003 17.2584 10.8687 17.2584 8.83716C17.2584 8.64101 17.2654 8.43786 17.3145 8.24871C17.4266 7.82139 17.7838 7.54818 18.2462 7.54818C18.7085 7.54818 19.0728 7.81438 19.1779 8.24871C19.2199 8.41684 19.2339 8.59198 19.2339 8.76711C19.2409 10.8127 19.2409 12.8512 19.2339 14.8968C19.2199 17.2366 17.8119 19.065 15.6122 19.6254C15.2059 19.7305 14.7785 19.7655 14.3652 19.7655C11.3529 19.7725 8.34062 19.7795 5.32832 19.7655C2.93949 19.7585 1.08308 18.3014 0.56468 16.0387C0.480616 15.6814 0.445589 15.2961 0.445589 14.9318C0.438584 11.8985 0.431578 8.85818 0.445589 5.82486C0.4596 3.45005 1.93072 1.60063 4.20046 1.09625C4.56474 1.01919 4.94303 0.984163 5.31431 0.984163C7.35987 0.970153 9.39843 0.977158 11.444 0.984163C11.6191 0.984163 11.7943 0.998174 11.9624 1.04021C12.3967 1.14529 12.6629 1.50256 12.6629 1.96491C12.6629 2.42727 12.3967 2.78454 11.9694 2.89662C11.7732 2.94566 11.5771 2.95267 11.3809 2.95267C9.31436 2.95267 7.24779 2.94566 5.18121 2.95267C3.81516 2.96668 2.73634 3.84935 2.47014 5.14534C2.4211 5.38352 2.4211 5.63572 2.4211 5.8739C2.41409 7.38005 2.4211 8.8862 2.4211 10.3924Z" fill="white" fill-opacity="0.21"/>
<path d="M19.2117 3.22567C19.1977 3.82814 19.0016 4.36054 18.5672 4.79487C16.921 6.44814 15.2257 8.05937 13.6425 9.76867C12.6197 10.8685 11.4778 11.6531 10.0137 11.9754C9.71949 12.0384 9.43928 12.1715 9.14505 12.2346C8.4235 12.4027 7.772 11.7862 7.97516 11.0787C8.24837 10.1259 8.59163 9.19424 8.89986 8.25552C8.9489 8.10841 9.05398 7.99632 9.16607 7.89124C11.2326 5.81766 13.2922 3.73707 15.3798 1.67749C16.3395 0.717759 17.7756 0.773802 18.6513 1.74755C19.0226 2.16787 19.1977 2.66525 19.2117 3.22567Z" fill="white" fill-opacity="0.21"/>
</svg>
