<svg width="22" height="17" viewBox="0 0 22 17" fill="none" xmlns="http://www.w3.org/2000/svg">
<path d="M10.9395 16.8514C6.28702 16.8554 2.17103 14.0569 0.453562 9.72513C0.121946 8.88966 0.0853203 8.04428 0.428815 7.21772C2.08788 3.23141 5.03283 0.803189 9.3072 0.133028C14.4903 -0.679677 19.4002 2.30783 21.3245 7.00489C21.7106 7.94827 21.7512 8.88174 21.3394 9.81818C19.5784 13.8223 16.5532 16.1723 12.2036 16.788C11.7819 16.8464 11.3612 16.8435 10.9395 16.8514ZM10.8891 12.9007C13.3786 12.9116 15.397 10.9417 15.4119 8.48677C15.4267 6.07142 13.3955 4.03124 10.9603 4.01639C8.47767 4.00155 6.42759 6.01203 6.41769 8.46895C6.40878 10.8902 8.4252 12.8898 10.8891 12.9007Z" fill="white" fill-opacity="0.2"/>
</svg>
