<svg width="14" height="14" viewBox="0 0 14 14" fill="none" xmlns="http://www.w3.org/2000/svg">
<path d="M1.46912 7.63478C1.46912 8.91956 1.46783 10.2043 1.46955 11.4891C1.47041 12.1167 1.76157 12.4057 2.39384 12.4061C4.9634 12.4069 7.53339 12.3957 10.103 12.4134C10.8046 12.4181 11.0583 11.9276 11.0574 11.4486C11.0548 9.84815 11.0557 8.24723 11.0578 6.64675C11.0583 6.31769 11.2658 6.04937 11.5734 5.96021C11.8658 5.87536 12.1768 5.99897 12.3607 6.26816C12.449 6.3978 12.4899 6.54166 12.4899 6.69456C12.4916 8.33811 12.5201 9.98253 12.4813 11.6257C12.4503 12.9397 11.4437 13.8683 10.1249 13.8713C7.54072 13.8774 4.95694 13.8774 2.37273 13.8713C1.00526 13.8679 0.00732192 12.8665 0.00430701 11.4973C-0.0012921 8.9131 -0.0017228 6.32932 0.00473771 3.74512C0.00818332 2.38841 1.00698 1.39133 2.3624 1.38444C3.7191 1.37755 5.07581 1.38272 6.43209 1.38272C6.61385 1.38272 6.78914 1.4021 6.94721 1.50633C7.22716 1.6911 7.35594 2.01025 7.2655 2.30787C7.1716 2.61668 6.90758 2.81695 6.57465 2.81782C5.21794 2.81997 3.86124 2.81868 2.50496 2.8204C2.39771 2.8204 2.28918 2.82471 2.18409 2.84409C1.71419 2.93238 1.47127 3.21837 1.47041 3.69429C1.4674 5.0075 1.46955 6.32114 1.46912 7.63478Z" fill="#939393"/>
<path d="M11.3118 1.49758C11.2382 1.44503 11.1572 1.46829 11.0814 1.46829C10.4285 1.46614 9.77553 1.47045 9.12259 1.46571C8.69619 1.46269 8.43562 1.28654 8.32234 0.941114C8.21036 0.60086 8.38049 0.223996 8.70998 0.084449C8.85038 0.0245815 8.99725 3.15639e-05 9.15058 3.15639e-05C10.4276 0.000892966 11.7051 -0.00126054 12.9821 0.00132367C13.5756 0.00261577 13.8702 0.297215 13.8711 0.891152C13.8737 2.16818 13.8732 3.44564 13.8711 4.72267C13.8702 5.16801 13.6996 5.4316 13.3512 5.54789C13.0015 5.66461 12.6233 5.48975 12.4833 5.14734C12.4226 4.99832 12.4045 4.8437 12.405 4.68391C12.4067 4.0525 12.4067 3.42109 12.4045 2.78968C12.4041 2.71431 12.4286 2.63291 12.3744 2.56055C12.2852 2.57261 12.2452 2.64755 12.1922 2.70053C10.4255 4.46511 8.66001 6.23099 6.89457 7.99643C6.84892 8.04208 6.80412 8.0886 6.75675 8.13253C6.43975 8.4267 6.02499 8.42842 5.73426 8.13727C5.44354 7.84611 5.43923 7.42403 5.74245 7.11651C6.38677 6.46227 7.03929 5.81579 7.68878 5.16629C8.85081 4.00426 10.0128 2.84266 11.1736 1.67977C11.2261 1.62679 11.3024 1.5876 11.3118 1.49758Z" fill="#939393"/>
</svg>
