<svg width="28" height="28" viewBox="0 0 28 28" fill="none" xmlns="http://www.w3.org/2000/svg">
<path d="M27.44 14.3182C27.44 13.3255 27.3509 12.371 27.1855 11.4546H14V16.8764H21.5345C21.2036 18.62 20.2109 20.0964 18.7218 21.0891V24.6146H23.2655C25.9127 22.171 27.44 18.5819 27.44 14.3182Z" fill="#4285F4"/>
<path d="M14.0001 27.9999C17.7801 27.9999 20.9492 26.7526 23.2656 24.6144L18.722 21.089C17.4747 21.929 15.8838 22.4381 14.0001 22.4381C10.3601 22.4381 7.26741 19.9817 6.16014 16.6726H1.50195V20.2872C3.80559 24.8562 8.52741 27.9999 14.0001 27.9999Z" fill="#34A853"/>
<path d="M6.16 16.6599C5.88 15.8199 5.71455 14.929 5.71455 13.9999C5.71455 13.0708 5.88 12.1799 6.16 11.3399V7.72534H1.50182C0.547273 9.60898 0 11.7344 0 13.9999C0 16.2653 0.547273 18.3908 1.50182 20.2744L5.12909 17.449L6.16 16.6599Z" fill="#FBBC05"/>
<path d="M14.0001 5.57455C16.062 5.57455 17.8947 6.28727 19.3583 7.66182L23.3674 3.65273C20.9365 1.38727 17.7801 0 14.0001 0C8.52741 0 3.80559 3.14364 1.50195 7.72546L6.16014 11.34C7.26741 8.03091 10.3601 5.57455 14.0001 5.57455Z" fill="#EA4335"/>
</svg>
