<svg width="18" height="20" viewBox="0 0 18 20" fill="none" xmlns="http://www.w3.org/2000/svg">
<path d="M13.4819 19.1314C12.8444 19.0199 12.2478 18.8114 11.7063 18.4447C9.66199 17.0592 9.36589 14.0922 11.1012 12.3331C11.882 11.5413 12.836 11.1193 13.9393 11.1133C16.1712 11.1019 17.7711 12.7944 17.9777 14.7093C18.1981 16.7482 16.7808 18.7806 14.5603 19.1085C14.5364 19.112 14.5135 19.1235 14.4902 19.1314C14.1537 19.1314 13.8178 19.1314 13.4819 19.1314ZM14.3643 13.62C14.3453 13.3219 14.4006 12.9596 14.3379 12.6018C14.2956 12.3609 14.108 12.2236 13.8721 12.2375C13.6442 12.251 13.4585 12.4246 13.457 12.661C13.4506 13.5319 13.4511 14.4028 13.4565 15.2732C13.458 15.4996 13.6352 15.6817 13.8586 15.6847C14.4434 15.6927 15.0281 15.6932 15.6123 15.6842C15.8348 15.6807 16.0025 15.4891 16.0115 15.2677C16.0229 14.9776 15.8363 14.7934 15.4979 14.7825C15.1809 14.772 14.8634 14.7745 14.5464 14.781C14.4085 14.7835 14.3598 14.7322 14.3628 14.5959C14.3687 14.2913 14.3643 13.9862 14.3643 13.62Z" fill="white"/>
<path d="M0.0015119 9.44668C-0.00744573 8.35833 0.023906 7.27047 0.0821306 6.18361C0.123933 5.40878 0.146327 4.62797 0.3001 3.86607C0.630039 2.22683 1.59398 1.09767 3.14863 0.488551C3.71395 0.267098 4.32257 0.232263 4.92124 0.160105C6.67495 -0.0508973 8.43562 -0.00113276 10.1943 0.0227542C11.2314 0.0366883 12.2715 0.116809 13.2842 0.354187C15.013 0.759768 16.3631 2.23778 16.6139 3.98651C16.7055 4.62449 16.7299 5.27242 16.7722 5.91638C16.8722 7.43768 16.8568 8.96197 16.8528 10.4853C16.8523 10.7455 16.8513 10.7455 16.6323 10.6206C14.5114 9.41085 11.9112 9.74775 10.2351 11.4845C9.10545 12.655 8.61875 14.0718 8.78496 15.6976C8.9039 16.8636 9.37667 17.8708 10.1794 18.7243C10.2202 18.7676 10.2973 18.8044 10.2749 18.8716C10.2505 18.9452 10.1674 18.9144 10.1097 18.9164C9.2642 18.9452 8.4187 18.9572 7.5727 18.9467C6.34749 18.9313 5.12478 18.8582 3.916 18.6566C1.98413 18.3346 0.486717 16.7437 0.256307 14.7889C0.119952 13.6339 0.0572483 12.4744 0.0293801 11.3119C0.0139531 10.6898 0.00549307 10.0682 0.0015119 9.44668ZM8.43213 6.73948C8.43213 6.73898 8.43213 6.73849 8.43213 6.73799C9.80016 6.73799 11.1682 6.74147 12.5362 6.7355C12.9428 6.73351 13.2941 6.42796 13.3558 6.05273C13.4275 5.61978 13.213 5.22863 12.8204 5.07187C12.6711 5.01215 12.5148 5.02161 12.3601 5.02161C9.74244 5.02061 7.12432 5.02111 4.5067 5.02111C4.42608 5.02111 4.34497 5.02161 4.26435 5.02758C3.7667 5.0649 3.40093 5.56255 3.51141 6.05024C3.61044 6.48618 3.92844 6.73749 4.40269 6.73849C5.74584 6.74147 7.08899 6.73948 8.43213 6.73948ZM6.70829 10.5435C7.48561 10.5435 8.26293 10.5435 9.03976 10.5435C9.36821 10.5435 9.61454 10.3937 9.77379 10.113C10.1192 9.5054 9.69765 8.82064 8.95118 8.81317C7.44679 8.79824 5.94191 8.8067 4.43703 8.81019C4.15288 8.81069 3.89559 8.89877 3.71097 9.13017C3.48902 9.40836 3.4502 9.72337 3.59253 10.0419C3.73585 10.3623 3.99612 10.5415 4.35741 10.5425C5.1417 10.545 5.92499 10.5435 6.70829 10.5435Z" fill="white"/>
</svg>
