<svg width="12" height="12" viewBox="0 0 12 12" fill="none" xmlns="http://www.w3.org/2000/svg">
<path d="M5.99742 11.9966C4.73622 11.9966 3.47949 12.0011 2.21828 11.9966C1.28356 11.9921 0.59035 11.5731 0.183366 10.7125C0.0447235 10.4151 0.00447235 10.0952 0 9.77079C0 8.15323 0 6.54018 0 4.92712C0 4.08906 0.339898 3.44474 1.03311 2.97163C2.26301 2.13807 3.47949 1.28649 4.70491 0.443916C5.58149 -0.159853 6.4536 -0.14183 7.3257 0.461939C8.53771 1.30902 9.75419 2.14708 10.9796 2.98064C11.6505 3.44023 11.9904 4.06653 11.9948 4.87756C11.9993 6.51314 12.0038 8.15323 11.9948 9.78881C11.9859 10.8296 11.3911 11.6317 10.4429 11.911C10.2148 11.9786 9.97333 11.9966 9.7363 11.9966C8.48851 12.0011 7.24073 12.0011 5.99742 11.9966ZM6.00636 9.82486C6.47596 9.82486 6.94555 9.82936 7.41068 9.82486C7.62982 9.82486 7.76847 9.71672 7.75058 9.55902C7.73269 9.35175 7.58957 9.29769 7.40173 9.29769C6.46254 9.29769 5.52782 9.29769 4.58863 9.29769C4.40526 9.29769 4.25767 9.35175 4.23531 9.55451C4.21742 9.72122 4.36054 9.82486 4.5931 9.82486C5.06717 9.82936 5.53677 9.82936 6.00636 9.82486Z" fill="white" fill-opacity="0.27"/>
</svg>
