<svg width="126" height="56" viewBox="0 0 126 56" fill="none" xmlns="http://www.w3.org/2000/svg">
<rect y="0.299805" width="126" height="55" rx="16" fill="white" fill-opacity="0.05"/>
<path d="M28.8066 40.6133C35.8795 40.6133 41.6133 34.8795 41.6133 27.8066C41.6133 20.7337 35.8795 15 28.8066 15C21.7337 15 16 20.7337 16 27.8066C16 34.8795 21.7337 40.6133 28.8066 40.6133Z" fill="#26A17B"/>
<path d="M30.1749 28.9936C30.0924 28.9936 29.6309 29.0265 28.609 29.0265C27.8014 29.0265 27.2245 29.01 27.0268 28.9936C23.8952 28.8617 21.5712 28.3178 21.5712 27.6585C21.5712 26.9992 23.9116 26.4553 27.0268 26.3234V28.4496C27.2245 28.4661 27.8179 28.4991 28.6255 28.4991C29.598 28.4991 30.076 28.4661 30.1749 28.4496V26.3234C33.29 26.4553 35.6304 26.9992 35.6304 27.6585C35.6304 28.3013 33.29 28.8452 30.1749 28.9936ZM30.1749 26.0927V24.1972H34.5261V21.2964H22.659V24.1972H27.0103V26.0927C23.4666 26.2575 20.813 26.9498 20.813 27.7904C20.813 28.6309 23.4831 29.3232 27.0103 29.488V35.5864H30.1584V29.488C33.7185 29.3397 36.3721 28.6474 36.3721 27.8068C36.3721 26.9662 33.7185 26.2575 30.1749 26.0927Z" fill="white"/>
<path d="M52.5082 22.0874V25.1696H55.4915V27.4771H52.4752V32.158C52.4752 33.1964 53.0521 33.6909 53.8762 33.6909C54.2883 33.6909 54.7827 33.559 55.1783 33.3612L55.92 35.6522C55.1454 35.9654 54.519 36.0972 53.6949 36.1137C51.338 36.1961 49.8051 34.8611 49.8051 32.158V27.4771H47.7778V25.1696H49.8051V22.3676L52.5082 22.0874ZM104.081 25.0212L104.279 26.2739C105.119 24.9388 106.24 24.741 107.328 24.741C108.449 24.741 109.52 25.1861 110.113 25.7794L108.91 28.1034C108.366 27.6419 107.855 27.3947 106.982 27.3947C105.581 27.3947 104.279 28.1364 104.279 30.1472V35.8665H101.592V25.0212H104.081ZM97.5045 29.1747C97.3232 27.7738 96.2354 27.065 94.686 27.065C93.2356 27.065 92.0489 27.7738 91.6533 29.1747H97.5045ZM91.6204 31.3998C91.8017 32.7349 92.9554 33.7073 94.8509 33.7073C95.8398 33.7073 97.1419 33.3282 97.7517 32.7019L99.4659 34.3996C98.3286 35.5863 96.4496 36.1632 94.8014 36.1632C91.06 36.1632 88.8349 33.8557 88.8349 30.3779C88.8349 27.0815 91.0764 24.7081 94.6036 24.7081C98.2297 24.7081 100.504 26.9497 100.076 31.4163H91.6204V31.3998ZM79.7862 20.4722V26.4882C80.7586 25.2355 81.9453 24.8564 83.165 24.8564C86.2472 24.8564 87.5987 26.9497 87.5987 30.1307V35.85H84.9121V30.1637C84.9121 28.1858 83.8737 27.3452 82.4563 27.3452C80.874 27.3452 79.7697 28.6803 79.7697 30.312V35.85H77.0831V20.4722H79.7862ZM72.6659 21.9556V25.0377H75.6492V27.3452H72.6329V32.0262C72.6329 33.0645 73.2098 33.559 74.0339 33.559C74.446 33.559 74.9404 33.4271 75.336 33.2294L76.0777 35.5204C75.303 35.8335 74.6767 35.9654 73.8526 35.9819C71.4957 36.0643 69.9628 34.7292 69.9628 32.0262V27.3452H67.9355V25.0377H69.9628V22.2522L72.6659 21.9556ZM65.2489 29.1747C65.0676 27.7738 63.9798 27.065 62.4305 27.065C60.98 27.065 59.7933 27.7738 59.3977 29.1747H65.2489ZM59.3648 31.3998C59.5461 32.7349 60.6998 33.7073 62.5953 33.7073C63.5842 33.7073 64.8863 33.3282 65.4961 32.7019L67.2103 34.3996C66.073 35.5863 64.1941 36.1632 62.5458 36.1632C58.8044 36.1632 56.5793 33.8557 56.5793 30.3779C56.5793 27.0815 58.8209 24.7081 62.3316 24.7081C65.9576 24.7081 68.2157 26.9497 67.8037 31.4163H59.3648V31.3998Z" fill="white"/>
</svg>
