<svg width="28" height="33" viewBox="0 0 28 33" fill="none" xmlns="http://www.w3.org/2000/svg">
<path d="M14.9901 0.0927238C14.736 0.232788 0.25221 17.5123 0.0982087 17.8588C-0.148193 18.4264 0.0828085 19.0973 0.637213 19.4069L0.968316 19.5912H6.17356C9.03798 19.5912 11.3942 19.6133 11.4096 19.6428C11.425 19.6796 10.8552 22.3556 10.1468 25.5992C9.19199 29.9338 8.85318 31.5999 8.86858 31.88C8.89938 32.3076 9.16119 32.713 9.53849 32.8973C9.83879 33.0447 10.5164 33.03 10.8244 32.8752C11.1478 32.713 27.6644 13.8559 27.88 13.4062C28.1726 12.7944 27.9108 12.0645 27.3025 11.7623C26.9868 11.6075 26.956 11.6075 21.2272 11.6444C17.1539 11.6665 15.4675 11.6517 15.4675 11.6001C15.4675 11.5559 15.8217 9.1748 16.2452 6.30716L17.0306 1.09529L16.8997 0.756187C16.6918 0.254902 16.3453 0.0263748 15.7062 0.00426102C15.3597 -0.0104828 15.1287 0.011631 14.9901 0.0927238Z" fill="white"/>
</svg>
