<svg width="25" height="29" viewBox="0 0 25 29" fill="none" xmlns="http://www.w3.org/2000/svg">
<path d="M9.93517 0.864389C8.6288 1.11227 7.45641 1.73531 6.46491 2.70671C5.527 3.62452 5.00445 4.48204 4.61589 5.75492L4.435 6.35786L4.40821 8.84332L4.38811 11.3288L4.05984 11.4427C3.57079 11.6168 2.78696 12.1662 2.33811 12.6419C1.56768 13.4659 1.10543 14.4708 0.971439 15.5896C0.931243 15.9647 0.911145 17.2979 0.924544 19.0196C0.944642 21.7731 0.944642 21.8401 1.09203 22.108C1.43369 22.7512 1.90265 23.0325 2.75347 23.1062C4.01964 23.2201 4.94416 23.7628 5.57389 24.7543C5.84187 25.1763 6.00265 25.719 6.06965 26.4023C6.15674 27.3402 6.5185 27.8963 7.20184 28.1375C7.38942 28.2044 8.51491 28.2245 12.2665 28.2245C16.802 28.2312 17.1236 28.2245 17.626 28.104C19.5621 27.635 20.9958 26.1812 21.4514 24.225C21.5317 23.87 21.5451 23.1062 21.5317 19.435L21.5117 15.067L21.3509 14.6316C20.7278 12.883 19.4683 11.6838 17.7466 11.2015C17.2375 11.0541 17.1169 11.0541 12.5546 11.0273L7.87847 11.0072V9.0845C7.87847 7.63074 7.90527 7.07469 7.97896 6.80002C8.45462 5.01799 10.317 3.8925 12.0656 4.34805C13.5126 4.72992 14.6448 6.12338 14.6448 7.53024C14.6448 8.57534 15.3683 9.35917 16.3465 9.36587C16.9159 9.37257 17.3246 9.19838 17.6796 8.80312C18.0749 8.36766 18.1553 8.04609 18.1084 7.17518C17.9543 4.22746 15.9177 1.7621 12.97 0.958181C12.3 0.770599 10.6855 0.723703 9.93517 0.864389ZM11.7775 16.3466C12.2063 16.4873 12.5881 16.8423 12.7757 17.2577C12.9365 17.6061 12.9365 17.6463 12.9365 19.6561C12.9365 21.5855 12.9298 21.7128 12.7958 22.0008C12.3201 23.0325 11.0942 23.334 10.1897 22.644C10.0759 22.5569 9.89498 22.3224 9.78779 22.1281L9.58681 21.7664L9.56671 19.8035C9.53991 17.5793 9.57341 17.3448 9.99547 16.8557C10.4711 16.2997 11.1076 16.1188 11.7775 16.3466Z" fill="white"/>
<path d="M22.5503 0.904685C22.1818 1.06547 20.1988 3.00828 19.9911 3.40354C19.8236 3.73181 19.7633 4.32135 19.8638 4.69652C20.1318 5.69472 21.3444 6.22397 22.3158 5.76171C22.7847 5.54064 24.7678 3.52413 24.9017 3.14227C25.0223 2.7671 25.0156 2.19096 24.8749 1.8225C24.7276 1.43393 24.2184 0.95828 23.8365 0.844391C23.4346 0.723803 22.8919 0.7506 22.5503 0.904685Z" fill="white"/>
<path d="M21.0761 7.65744C20.3459 7.88522 19.8099 8.58195 19.8032 9.31218C19.8032 10.0223 20.1516 10.6052 20.7545 10.9066C21.0895 11.0741 21.1431 11.0808 22.3356 11.0808C23.8161 11.0808 23.997 11.0406 24.4727 10.5784C24.7406 10.3171 24.8411 10.163 24.9282 9.85483C25.1962 8.92362 24.6937 7.96561 23.796 7.69764C23.4343 7.59045 21.3977 7.56365 21.0761 7.65744Z" fill="white"/>
<path d="M2.13046 24.848C1.52082 25.0356 1.09206 25.5381 0.964771 26.1946C0.857582 26.7975 1.01167 27.2866 1.46722 27.7287C1.85578 28.1039 2.17065 28.2312 2.7267 28.2312C3.37654 28.2312 4.05317 27.7823 4.30105 27.1861C4.35464 27.0588 4.39484 26.7573 4.39484 26.5028C4.39484 25.2768 3.30954 24.4796 2.13046 24.848Z" fill="white"/>
</svg>
