<svg width="41" height="35" viewBox="0 0 41 35" fill="none" xmlns="http://www.w3.org/2000/svg">
<path d="M5.23077 7.03325C2.09373 10.6207 0.418531 14.6032 0.102456 19.2337C0.0629469 19.8659 0.0234375 20.4032 0.0234375 20.4348C0.0234375 20.4743 1.69073 20.498 3.72152 20.498H7.42749L7.47491 19.6604C7.64875 16.8237 8.88934 13.9395 10.8016 11.9008L11.1967 11.482L8.58907 8.87439C7.15883 7.44415 5.96565 6.27467 5.94194 6.27467C5.91824 6.27467 5.59426 6.61445 5.23077 7.03325Z" fill="#F26D01"/>
<path d="M0.0474113 21.4695C0.197547 25.2229 1.62779 29.1738 3.95884 32.303C4.75693 33.3776 5.87109 34.6103 6.20297 34.7763C6.53485 34.9422 6.92994 34.9659 7.26973 34.8395C7.53049 34.7446 11.276 31.0387 11.4577 30.7068C11.6079 30.4144 11.6079 29.8692 11.4498 29.5847C11.3866 29.4583 11.0784 29.0711 10.7624 28.7234C8.89751 26.6452 7.70433 23.8243 7.55419 21.1139L7.50678 20.3079H3.75339H0L0.0474113 21.4695Z" fill="#FE1E25"/>
<path d="M18.0787 0.0946865C15.8583 0.315939 13.3217 1.06662 11.2198 2.12547C9.33919 3.06579 7.80764 4.22832 6.29048 5.60325L5.66623 6.16428L8.33707 8.83511L11 11.498L11.6401 10.9449C13.1572 9.6253 15.4237 8.30474 17.3122 7.85433C17.976 7.7042 19.3825 7.50665 19.8803 7.50665H20.2517V3.75326V-0.000135422L19.5247 0.00776672C19.1217 0.0156689 18.4738 0.0551767 18.0787 0.0946865Z" fill="#C3A40A"/>
<path d="M33.0236 20.8769C32.9209 22.1965 32.6048 23.8401 32.4152 24.0693C32.3757 24.1167 32.3599 24.172 32.3836 24.1957C32.4942 24.2984 31.3801 26.6769 31.064 27.0167C30.9929 27.1036 30.9455 27.1826 30.9613 27.1984C30.9771 27.2142 30.8348 27.4276 30.6452 27.6804L30.3054 28.1387L29.364 29.147C27.9087 30.1107 28.7678 29.7151 28.7656 29.7452C28.734 30.1324 28.9404 29.4538 28.7113 29.6908C28.4398 29.854 28.9515 29.8558 28.5485 29.7452C28.2767 29.7996 29.7365 31.4101 31.2852 32.9747C32.2335 33.9387 33.0315 34.7368 33.0553 34.7368C33.079 34.7368 33.237 34.7842 33.4108 34.8316C34.1141 35.0371 34.5961 34.6736 36.0738 32.8324C36.4293 32.3978 36.7454 32.0185 36.7849 31.9948C36.8244 31.9711 36.8481 31.9316 36.8402 31.9158C36.7928 31.8684 37.3381 31.0545 37.4171 31.0545C37.4487 31.0545 37.4724 31.0308 37.4645 30.9992C37.4487 30.9597 37.6462 30.5804 37.8991 30.1458C38.9816 28.2335 39.7481 26.1 40.1669 23.7848C40.3487 22.7813 40.3645 22.6548 40.4435 21.2878L40.4676 20.0455L38.5 19.998C37.4174 19.9664 35.7422 19.9427 34.7861 19.9427L33.079 20.2289L33.0236 20.8769Z" fill="#00AC4D"/>
<path d="M20.2539 3.7381V7.39666L21.3049 7.49148C23.6043 7.70484 25.6161 8.4616 27.4414 9.68639C28.1526 10.1605 29.2668 11.085 29.33 11.251C29.3458 11.2905 30.539 10.1447 31.985 8.69866L34.6084 6.07523L34 5.4984C31.7875 3.43601 28.8195 1.70731 25.9275 0.877613C24.2839 0.403501 22.2215 0.079524 20.8307 0.079524H20.2539V3.7381Z" fill="#FBC009"/>
<path d="M31.9103 8.61276L29.3105 11.2125L29.4607 11.41C29.5476 11.5206 29.8321 11.8683 30.0928 12.1844C30.8198 13.0615 31.1438 13.5672 31.7522 14.7762C32.3923 16.0405 32.8664 17.8659 32.9533 19.3593L33.0007 20.2285H36.7541H40.5075L40.4601 19.059C40.2863 14.7841 38.4451 10.2484 35.553 6.96127C35.0394 6.38443 34.6601 6.00514 34.5811 6.00514C34.5495 6.00514 33.3484 7.17462 31.9103 8.61276Z" fill="#77BC45"/>
<path d="M11.0266 28.0157C18.2388 26.7382 21.4864 26.092 22.3693 25.7516C23.7353 25.2132 24.3665 23.8274 23.8539 22.4981C23.4978 21.5747 22.6493 20.9461 21.6584 20.8853C20.7947 20.822 20.065 21.1967 15.4184 24.0492C11.9908 26.1635 8.60936 28.3067 8.63284 28.3676C8.64458 28.398 9.72511 28.2378 11.0266 28.0157Z" fill="white"/>
<circle cx="21.4328" cy="23.4263" r="1.63135" transform="rotate(118.815 21.4328 23.4263)" fill="#202020"/>
</svg>
