<svg width="41" height="35" viewBox="0 0 41 35" fill="none" xmlns="http://www.w3.org/2000/svg">
<path d="M5.23077 7.03325C2.09373 10.6207 0.418531 14.6032 0.102456 19.2337C0.0629469 19.8659 0.0234375 20.4032 0.0234375 20.4348C0.0234375 20.4743 1.69073 20.498 3.72152 20.498H7.42749L7.47491 19.6604C7.64875 16.8237 8.88934 13.9395 10.8016 11.9008L11.1967 11.482L8.58907 8.87439C7.15883 7.44415 5.96565 6.27467 5.94194 6.27467C5.91824 6.27467 5.59426 6.61445 5.23077 7.03325Z" fill="#F26D01"/>
<path d="M0.0474113 21.4705C0.197547 25.2239 1.62779 29.1748 3.95884 32.3039C4.75693 33.3786 5.87109 34.6113 6.20297 34.7772C6.53485 34.9432 6.92994 34.9669 7.26973 34.8404C7.53049 34.7456 11.276 31.0396 11.4577 30.7078C11.6079 30.4154 11.6079 29.8702 11.4498 29.5857C11.3866 29.4593 11.0784 29.0721 10.7624 28.7244C8.89751 26.6462 7.70433 23.8252 7.55419 21.1149L7.50678 20.3089H3.75339H0L0.0474113 21.4705Z" fill="#FE1E25"/>
<path d="M18.0787 0.0946865C15.8583 0.315939 13.3217 1.06662 11.2198 2.12547C9.33919 3.06579 7.80764 4.22832 6.29048 5.60325L5.66623 6.16428L8.33707 8.83511L11 11.498L11.6401 10.9449C13.1572 9.6253 15.4237 8.30474 17.3122 7.85433C17.976 7.7042 19.3825 7.50665 19.8803 7.50665H20.2517V3.75326V-0.000135422L19.5247 0.00776672C19.1217 0.0156689 18.4738 0.0551767 18.0787 0.0946865Z" fill="#C3A40A"/>
<path d="M33.0236 20.8779C32.9209 22.1975 32.6048 23.8411 32.4152 24.0702C32.3757 24.1176 32.3599 24.173 32.3836 24.1967C32.4942 24.2994 31.3801 26.6779 31.064 27.0176C30.9929 27.1046 30.9455 27.1836 30.9613 27.1994C30.9771 27.2152 30.8348 27.4285 30.6452 27.6814L30.3054 28.1397L29.364 29.148C27.9087 30.1117 28.7678 29.7161 28.7656 29.7462C28.734 30.1334 28.9404 29.4548 28.7113 29.6918C28.4398 29.8549 28.9515 29.8568 28.5485 29.7462C28.2767 29.8006 29.7365 31.4111 31.2852 32.9756C32.2335 33.9397 33.0315 34.7378 33.0553 34.7378C33.079 34.7378 33.237 34.7852 33.4108 34.8326C34.1141 35.038 34.5961 34.6746 36.0738 32.8334C36.4293 32.3988 36.7454 32.0195 36.7849 31.9958C36.8244 31.9721 36.8481 31.9326 36.8402 31.9168C36.7928 31.8694 37.3381 31.0555 37.4171 31.0555C37.4487 31.0555 37.4724 31.0318 37.4645 31.0002C37.4487 30.9607 37.6462 30.5814 37.8991 30.1468C38.9816 28.2345 39.7481 26.101 40.1669 23.7858C40.3487 22.7822 40.3645 22.6558 40.4435 21.2888L40.4676 20.0464L38.5 19.999C37.4174 19.9674 35.7422 19.9437 34.7861 19.9437L33.079 20.2299L33.0236 20.8779Z" fill="#00AC4D"/>
<path d="M20.2539 3.73712V7.39569L21.3049 7.49051C23.6043 7.70386 25.6161 8.46062 27.4414 9.68541C28.1526 10.1595 29.2668 11.084 29.33 11.25C29.3458 11.2895 30.539 10.1437 31.985 8.69768L34.6084 6.07426L34 5.49742C31.7875 3.43503 28.8195 1.70633 25.9275 0.876637C24.2839 0.402524 22.2215 0.0785475 20.8307 0.0785475H20.2539V3.73712Z" fill="#FBC009"/>
<path d="M31.9103 8.61374L29.3105 11.2135L29.4607 11.411C29.5476 11.5216 29.8321 11.8693 30.0928 12.1854C30.8198 13.0625 31.1438 13.5682 31.7522 14.7772C32.3923 16.0415 32.8664 17.8668 32.9533 19.3603L33.0007 20.2295H36.7541H40.5075L40.4601 19.06C40.2863 14.7851 38.4451 10.2494 35.553 6.96224C35.0394 6.38541 34.6601 6.00612 34.5811 6.00612C34.5495 6.00612 33.3484 7.17559 31.9103 8.61374Z" fill="#77BC45"/>
<path d="M27.5038 12.0729C21.7952 16.6619 19.2586 18.7905 18.6484 19.5136C17.7098 20.6427 17.8228 22.1612 18.9116 23.0801C19.668 23.7184 20.7142 23.8614 21.6123 23.4381C22.3999 23.0782 22.8595 22.3987 25.5612 17.6629C27.5493 14.1606 29.4831 10.6551 29.4332 10.6131C29.4083 10.592 28.538 11.2522 27.5038 12.0729Z" fill="white"/>
<circle cx="20.5902" cy="21.101" r="1.63135" transform="rotate(-89.935 20.5902 21.101)" fill="#202020"/>
</svg>
