<svg width="52" height="71" viewBox="0 0 52 71" fill="none" xmlns="http://www.w3.org/2000/svg">
<g filter="url(#filter0_i_10142_2698)">
<path d="M8.30548 0.14436C6.04675 0.875122 5.05025 1.9602 3.23441 5.59188C1.9279 8.20492 1.17499 10.4194 0.510655 13.3867C-0.131533 16.3983 -0.175821 22.7316 0.422077 25.9647C2.61437 37.7455 10.0327 46.4261 21.0385 50.1242C27.1946 52.1837 34.768 52.3387 40.9685 50.545C44.733 49.4599 48.6083 47.4891 50.2027 45.8947C51.7306 44.3667 52.2178 41.3772 51.3099 39.2956C50.402 37.2584 43.1607 28.2234 37.7797 22.4216L35.1223 19.5428L37.4696 17.1955L39.8169 14.8261L41.1013 14.9368C44.733 15.269 47.6118 12.6559 47.6118 9.02426C47.6118 5.39258 44.733 2.77954 41.1235 3.11171C37.8461 3.39959 35.6759 5.92404 35.7867 9.26785L35.831 10.818L33.5279 13.1431C32.2657 14.4053 31.1585 15.4461 31.0478 15.4461C30.9592 15.4461 30.0513 14.6711 29.0548 13.7189C24.2716 9.22356 14.8824 1.60589 12.7344 0.498669C11.8707 0.0557823 9.2134 -0.165661 8.30548 0.14436ZM9.76701 6.94268C10.4535 7.60701 10.3871 8.02776 9.39056 9.73288C9.0141 10.3529 8.4162 11.7702 8.03975 12.8774C7.46399 14.5825 7.35327 15.3354 7.24255 17.8377C7.13183 20.6501 7.10968 20.8051 6.57822 21.2037C5.89174 21.7573 5.62601 21.7573 4.91739 21.2037C3.43371 20.03 4.20877 13.431 6.37892 9.06855C7.70758 6.38907 8.63765 5.79118 9.76701 6.94268Z" fill="url(#paint0_linear_10142_2698)"/>
<path d="M14.816 56.9004L12.8009 61.6172L9.94424 61.7279C6.82188 61.8607 6.29042 62.0158 5.05033 63.3223C3.9874 64.4295 3.54451 65.6917 3.63309 67.419C3.65524 67.6847 3.89882 68.194 4.20885 68.5484C4.69602 69.1463 4.96176 69.2348 6.79974 69.4563C13.9524 70.342 34.6795 70.342 41.7436 69.4563C43.5594 69.2348 43.9137 69.102 44.4452 68.5705C45.5746 67.4633 45.1981 64.8945 43.6701 63.3223C42.4301 62.0158 41.8986 61.8607 38.7541 61.7279L35.8975 61.6172L34.5245 58.4062L33.1294 55.1953L30.2949 55.0624C26.1096 54.8631 21.1936 53.8445 18.182 52.5601C17.7169 52.3608 17.2076 52.2058 17.0747 52.2058C16.9419 52.2058 15.9232 54.3317 14.816 56.9004Z" fill="url(#paint1_linear_10142_2698)"/>
</g>
<defs>
<filter id="filter0_i_10142_2698" x="0" y="-0.000244141" width="51.7661" height="74.1208" filterUnits="userSpaceOnUse" color-interpolation-filters="sRGB">
<feFlood flood-opacity="0" result="BackgroundImageFix"/>
<feBlend mode="normal" in="SourceGraphic" in2="BackgroundImageFix" result="shape"/>
<feColorMatrix in="SourceAlpha" type="matrix" values="0 0 0 0 0 0 0 0 0 0 0 0 0 0 0 0 0 0 127 0" result="hardAlpha"/>
<feOffset dy="4"/>
<feGaussianBlur stdDeviation="2"/>
<feComposite in2="hardAlpha" operator="arithmetic" k2="-1" k3="1"/>
<feColorMatrix type="matrix" values="0 0 0 0 1 0 0 0 0 1 0 0 0 0 1 0 0 0 0.41 0"/>
<feBlend mode="normal" in2="shape" result="effect1_innerShadow_10142_2698"/>
</filter>
<linearGradient id="paint0_linear_10142_2698" x1="25.883" y1="-0.000164032" x2="25.883" y2="51.7876" gradientUnits="userSpaceOnUse">
<stop offset="0.0467916" stop-color="#FF12F9"/>
<stop offset="0.122288" stop-color="#FF12F9"/>
<stop offset="1" stop-color="#08088F"/>
</linearGradient>
<linearGradient id="paint1_linear_10142_2698" x1="24.3613" y1="52.2058" x2="24.3613" y2="70.1206" gradientUnits="userSpaceOnUse">
<stop offset="0.0467916" stop-color="#FF12F9"/>
<stop offset="0.122288" stop-color="#FF12F9"/>
<stop offset="1" stop-color="#08088F"/>
</linearGradient>
</defs>
</svg>
