<svg width="25" height="8" viewBox="0 0 25 8" fill="none" xmlns="http://www.w3.org/2000/svg">
<path d="M7.33234 0H0.167008C0.122006 0 0.0800037 0.0180008 0.0490023 0.0490023C0.0180008 0.0800037 0 0.123006 0 0.167008V7.33334C0 7.37734 0.0180008 7.42034 0.0490023 7.45134C0.0800037 7.48234 0.123006 7.50034 0.167008 7.50034H7.33334C7.37734 7.50034 7.42034 7.48234 7.45134 7.45134C7.48234 7.42034 7.50034 7.37734 7.50034 7.33334V0.167008C7.50034 0.123006 7.48234 0.0800037 7.45134 0.0490023C7.41934 0.0180008 7.37734 0 7.33234 0ZM4.99923 4.83322C4.99923 4.87722 4.98123 4.92023 4.95023 4.95123C4.91923 4.98223 4.87622 5.00023 4.83222 5.00023H2.66612C2.62212 5.00023 2.57912 4.98223 2.54812 4.95123C2.51712 4.92023 2.49911 4.87722 2.49911 4.83322V2.66712C2.49911 2.62312 2.51712 2.58012 2.54812 2.54912C2.57912 2.51812 2.62212 2.50011 2.66612 2.50011H4.83222C4.87622 2.50011 4.91923 2.51812 4.95023 2.54912C4.98123 2.58012 4.99923 2.62312 4.99923 2.66712V4.83322Z" fill="white"/>
<path d="M22.3351 2.5H20.169C20.077 2.5 20.002 2.575 20.002 2.66701V4.83311C20.002 4.92511 20.077 5.00012 20.169 5.00012H22.3351C22.4271 5.00012 22.5021 4.92511 22.5021 4.83311V2.66701C22.5011 2.575 22.4271 2.5 22.3351 2.5Z" fill="white"/>
<path d="M19.8331 0H17.667C17.575 0 17.5 0.0750034 17.5 0.167008V2.33311C17.5 2.42511 17.575 2.50012 17.667 2.50012H19.8331C19.9251 2.50012 20.0001 2.42511 20.0001 2.33311V0.166008C20.0001 0.0740034 19.9251 0 19.8331 0Z" fill="white"/>
<path d="M24.8331 0H22.667C22.575 0 22.5 0.0750034 22.5 0.167008V2.33311C22.5 2.42511 22.575 2.50012 22.667 2.50012H24.8331C24.9251 2.50012 25.0001 2.42511 25.0001 2.33311V0.166008C25.0001 0.0740034 24.9251 0 24.8331 0Z" fill="white"/>
<path d="M19.8331 5H17.667C17.575 5 17.5 5.075 17.5 5.16701V7.33311C17.5 7.42511 17.575 7.50012 17.667 7.50012H19.8331C19.9251 7.50012 20.0001 7.42511 20.0001 7.33311V5.16701C20.0001 5.074 19.9251 5 19.8331 5Z" fill="white"/>
<path d="M24.8331 5H22.667C22.575 5 22.5 5.075 22.5 5.16701V7.33311C22.5 7.42511 22.575 7.50012 22.667 7.50012H24.8331C24.9251 7.50012 25.0001 7.42511 25.0001 7.33311V5.16701C25.0001 5.074 24.9251 5 24.8331 5Z" fill="white"/>
<path d="M16.0812 0H13.9151C13.823 0 13.748 0.0750034 13.748 0.167008V2.33311C13.748 2.42511 13.823 2.50012 13.9151 2.50012H16.0812C16.1732 2.50012 16.2482 2.42511 16.2482 2.33311V0.166008C16.2482 0.0740034 16.1732 0 16.0812 0Z" fill="white"/>
<path d="M16.0812 5H13.9151C13.823 5 13.748 5.075 13.748 5.16701V7.33311C13.748 7.42511 13.823 7.50012 13.9151 7.50012H16.0812C16.1732 7.50012 16.2482 7.42511 16.2482 7.33311V5.16701C16.2482 5.074 16.1732 5 16.0812 5Z" fill="white"/>
<path d="M13.7492 2.66512C13.7492 2.62112 13.7312 2.57812 13.7002 2.54712C13.6692 2.51612 13.6262 2.49812 13.5822 2.49812H11.2491V0.167008C11.2491 0.123006 11.2311 0.0800037 11.2001 0.0490023C11.1691 0.0180008 11.1261 0 11.0821 0H8.91701C8.87301 0 8.83 0.0180008 8.799 0.0490023C8.768 0.0800037 8.75 0.123006 8.75 0.167008V7.32934C8.75 7.37334 8.768 7.41634 8.799 7.44734C8.83 7.47834 8.87301 7.49635 8.91701 7.49635H11.0831C11.1271 7.49635 11.1701 7.47834 11.2011 7.44734C11.2321 7.41634 11.2501 7.37334 11.2501 7.32934V4.99823H13.5832C13.6272 4.99823 13.6702 4.98023 13.7012 4.94923C13.7322 4.91823 13.7502 4.87522 13.7502 4.83122L13.7492 2.66512Z" fill="white"/>
</svg>
