<svg width="21" height="22" viewBox="0 0 21 22" fill="none" xmlns="http://www.w3.org/2000/svg">
<path d="M20.3007 8.10587C20.2153 8.67278 20.1269 9.23782 19.9569 9.78453C19.6227 10.8592 19.0852 11.7878 18.3702 12.5909C17.4766 13.5946 16.5797 14.5946 15.6803 15.5918C14.9736 16.3752 14.1403 16.8942 13.1449 17.0506C11.9828 17.2333 10.9466 16.8933 10.0485 16.0577C9.29633 15.3578 8.81905 14.4654 8.67806 13.3786C8.51307 12.1029 8.83757 10.9616 9.50846 9.93014C9.78708 9.50225 10.1322 9.14247 10.4647 8.77001C10.8334 8.35715 11.1987 7.94007 11.5742 7.53473C11.8978 7.18528 12.2808 6.96218 12.7434 7.02559C13.301 7.10168 13.6706 7.48494 13.8781 8.04246C14.0767 8.5765 13.9063 9.05934 13.575 9.45293C13.0607 10.0645 12.5169 10.645 11.9883 11.241C11.7686 11.489 11.5586 11.7464 11.4226 12.0672C11.176 12.651 11.2454 13.2043 11.6263 13.6665C11.995 14.1141 12.5514 14.2635 13.0599 14.0535C13.296 13.9563 13.5111 13.8196 13.6895 13.6209C14.6731 12.527 15.6828 11.4604 16.6302 10.3289C18.1378 8.52765 17.9951 5.77575 16.3533 4.12527C15.0974 2.86275 13.4353 2.58328 11.9521 3.3888C11.5826 3.58935 11.2518 3.85473 10.9613 4.17881C8.79801 6.59066 6.62499 8.9917 4.47764 11.4214C3.18848 12.8798 2.9873 14.9891 3.94017 16.7406C4.57781 17.9125 5.52817 18.5766 6.7462 18.7579C7.641 18.8908 8.51139 18.7936 9.34979 18.4033C9.58127 18.2957 9.82412 18.2408 10.0762 18.2507C10.7172 18.276 11.2858 18.9317 11.2913 19.6447C11.2947 20.0557 11.1116 20.3628 10.8532 20.6226C10.3763 21.1017 9.78919 21.3487 9.18943 21.5441C7.37963 22.1336 5.63339 21.9335 4.01888 20.8415C2.23265 19.6334 1.10805 17.8777 0.792389 15.5415C0.508714 13.4401 0.988942 11.5548 2.15731 9.88599C2.33324 9.6347 2.53232 9.40174 2.73434 9.17535C4.80467 6.86073 6.87794 4.54939 8.94953 2.23618C9.95965 1.10846 11.1524 0.367765 12.5679 0.0929982C12.7371 0.06012 12.9062 0.0309994 13.0759 0C13.4837 0 13.8915 0 14.299 0C14.3356 0.0103331 14.3718 0.0248934 14.4092 0.0295903C15.6306 0.193511 16.7371 0.679638 17.7026 1.53353C18.6993 2.41466 19.4573 3.49729 19.9064 4.83966C20.1038 5.42912 20.2031 6.04065 20.3007 6.655C20.3007 7.13878 20.3007 7.62209 20.3007 8.10587Z" fill="white" fill-opacity="0.22"/>
</svg>
