<svg width="24" height="32" viewBox="0 0 24 32" fill="none" xmlns="http://www.w3.org/2000/svg">
<path d="M0.248047 15.999V31.6172H1.14284H2.03763V25.4675C2.03763 19.6433 2.04576 19.3179 2.18405 19.3586C2.25726 19.383 2.65584 19.5375 3.05443 19.7002C4.20953 20.1801 5.18566 20.3998 6.34889 20.4486C8.33369 20.5381 9.71655 20.1069 12.71 18.4638C15.4107 16.9833 16.8586 16.6091 18.6889 16.9345C20.1042 17.1867 21.3976 17.7317 23.0489 18.7892L24.0007 19.4074V11.0289V2.65853L23.5777 2.38196C22.8293 1.91016 22.1948 1.59292 21.3081 1.235C19.543 0.519171 18.095 0.291405 16.5983 0.494766C14.9551 0.714397 14.4183 0.925892 10.8228 2.79682C10.1314 3.16287 9.21221 3.57773 8.78922 3.72415C8.04085 3.98445 7.96764 3.99258 6.71494 3.99258C5.62492 3.99258 5.31581 3.96818 4.84401 3.82176C4.12005 3.61026 3.2822 3.27675 2.59077 2.92697L2.03763 2.65853V1.51971V0.380886H1.14284H0.248047V15.999Z" fill="#D90202"/>
</svg>
