<svg width="18" height="18" viewBox="0 0 18 18" fill="none" xmlns="http://www.w3.org/2000/svg">
<path d="M7.79834 15.597C3.96633 15.597 0.710654 12.8538 0.103664 9.05749C-0.589163 4.77131 2.27411 0.981102 6.20422 0.166727C10.4348 -0.708878 14.5795 1.94855 15.4624 6.16126C15.9345 8.42069 15.493 10.5209 14.1319 12.4007C13.9602 12.6334 13.9847 12.7681 14.1809 12.9579C14.8554 13.607 16.3377 15.4369 16.9999 16.0982C17.2513 16.3493 17.3494 16.6493 17.2329 16.9922C17.1225 17.3228 16.8895 17.5127 16.5462 17.5739C16.2274 17.629 15.9699 17.4943 15.7491 17.2739C15.087 16.6064 13.5985 14.7948 12.9424 14.1213C12.7708 13.9499 12.6543 13.9376 12.4519 14.0846C11.0724 15.0949 9.52121 15.6153 7.79834 15.597ZM7.83512 1.74037C4.47522 1.73424 1.76522 4.42229 1.75296 7.77164C1.7407 11.1761 4.43843 13.9009 7.83512 13.9009C11.1889 13.907 13.9234 11.1822 13.9296 7.83287C13.9296 4.45291 11.2257 1.74649 7.83512 1.74037Z" fill="white"/>
</svg>
