<svg width="56" height="64" viewBox="0 0 56 64" fill="none" xmlns="http://www.w3.org/2000/svg">
<g filter="url(#filter0_i_10142_2708)">
<path d="M26.4331 0.0837517C26.2764 0.141369 25.4341 0.525478 24.5723 0.909592C1.73412 11.2038 2.69387 10.7621 1.65577 11.7608C0.950644 12.4522 0.558909 13.0283 0.284694 13.8158C-0.0678687 14.8721 -0.0678687 15.1409 0.147586 19.3854C0.774363 30.8895 0.970231 32.8101 1.94957 36.6704C4.31957 46.0236 10.4502 54.474 18.7942 59.9476C19.7148 60.543 21.8302 61.7145 23.495 62.5212C26.4722 63.9616 26.5702 64 28 64C29.4102 64 29.5865 63.9424 32.0153 62.79C36.6965 60.5622 39.9871 58.2959 43.3756 54.9734C49.7022 48.77 53.6979 40.9341 54.9122 32.3108C55.2256 30.1789 55.4019 27.567 55.8524 19.3854C56.0679 15.1409 56.0679 14.8721 55.7153 13.8158C55.4411 13.0283 55.0494 12.4522 54.3442 11.7608C53.4236 10.8581 52.5422 10.4164 41.5149 5.44212C29.6649 0.0645447 29.6649 0.0645447 28.1959 0.00692749C27.3928 -0.0122757 26.5898 0.00692749 26.4331 0.0837517ZM39.9871 23.4186C40.6531 23.8795 40.9665 24.8782 40.7118 25.7616C40.5747 26.2226 38.7336 28.3928 34.7379 32.8293C27.6866 40.6076 27.2949 41.0109 26.5898 41.1453C25.4537 41.395 24.9053 41.0685 22.1631 38.591C20.7137 37.2466 18.6375 35.3836 17.5602 34.4234C15.0335 32.1763 14.6614 31.4465 15.3665 30.1021C15.7974 29.2763 16.4046 28.9498 17.4819 28.9498C18.3241 28.9498 18.52 29.0458 19.3426 29.7756C19.8519 30.2365 21.5168 31.7346 23.0641 33.1366L25.865 35.6525L27.3145 34.0777C28.0979 33.2134 30.6246 30.4286 32.9359 27.8935C37.2646 23.1113 37.7346 22.7464 38.949 22.9576C39.2232 23.0152 39.6933 23.2073 39.9871 23.4186Z" fill="url(#paint0_linear_10142_2708)"/>
</g>
<defs>
<filter id="filter0_i_10142_2708" x="0" y="0" width="56" height="68" filterUnits="userSpaceOnUse" color-interpolation-filters="sRGB">
<feFlood flood-opacity="0" result="BackgroundImageFix"/>
<feBlend mode="normal" in="SourceGraphic" in2="BackgroundImageFix" result="shape"/>
<feColorMatrix in="SourceAlpha" type="matrix" values="0 0 0 0 0 0 0 0 0 0 0 0 0 0 0 0 0 0 127 0" result="hardAlpha"/>
<feOffset dy="4"/>
<feGaussianBlur stdDeviation="2"/>
<feComposite in2="hardAlpha" operator="arithmetic" k2="-1" k3="1"/>
<feColorMatrix type="matrix" values="0 0 0 0 1 0 0 0 0 1 0 0 0 0 1 0 0 0 0.41 0"/>
<feBlend mode="normal" in2="shape" result="effect1_innerShadow_10142_2708"/>
</filter>
<linearGradient id="paint0_linear_10142_2708" x1="28" y1="0" x2="28" y2="64" gradientUnits="userSpaceOnUse">
<stop offset="0.0467916" stop-color="#FF12F9"/>
<stop offset="0.122288" stop-color="#FF12F9"/>
<stop offset="1" stop-color="#08088F"/>
</linearGradient>
</defs>
</svg>
