<svg width="44" height="44" viewBox="0 0 44 44" fill="none" xmlns="http://www.w3.org/2000/svg">
<circle cx="22" cy="22" r="22" fill="#0E0F12"/>
<path d="M30.6833 17.2605C30.6182 17.3295 30.5368 17.3831 30.4474 17.4138C30.3579 17.4521 30.2603 17.4674 30.1627 17.4674H11.7391C11.0884 17.4674 10.7549 16.7011 11.2104 16.2414L14.2362 13.2146C14.3013 13.1456 14.3826 13.092 14.4803 13.0536C14.5697 13.0153 14.6673 13 14.7649 13H33.2617C33.9206 13 34.246 13.7739 33.7823 14.2337L30.6833 17.2605ZM30.6833 30.7931C30.545 30.9234 30.3579 31 30.1627 31H11.7391C11.0884 31 10.7549 30.249 11.2104 29.8046L14.2362 26.8467C14.3013 26.7778 14.3908 26.7241 14.4803 26.6935C14.5697 26.6552 14.6673 26.6398 14.7649 26.6398H33.2617C33.9206 26.6398 34.246 27.3985 33.7823 27.8429L30.6833 30.7931ZM30.6833 20.0268C30.545 19.8966 30.3579 19.8199 30.1627 19.8199H11.7391C11.0884 19.8199 10.7549 20.5709 11.2104 21.0153L14.2362 23.9732C14.3013 24.0421 14.3908 24.0958 14.4803 24.1264C14.5697 24.1648 14.6673 24.1801 14.7649 24.1801H33.2617C33.9206 24.1801 34.246 23.4215 33.7823 22.977L30.6833 20.0268Z" fill="url(#paint0_linear_10726_2585)"/>
<defs>
<linearGradient id="paint0_linear_10726_2585" x1="12.4064" y1="31.2246" x2="31.3635" y2="11.6335" gradientUnits="userSpaceOnUse">
<stop stop-color="#CF41E8"/>
<stop offset="1" stop-color="#10F2B0"/>
</linearGradient>
</defs>
</svg>
