<svg width="44" height="44" viewBox="0 0 44 44" fill="none" xmlns="http://www.w3.org/2000/svg">
<circle cx="22" cy="22" r="22" fill="#4DA2FF"/>
<path fill-rule="evenodd" clip-rule="evenodd" d="M28.0026 19.8436L28.0022 19.8447C29.0451 21.1748 29.6683 22.8593 29.6683 24.6916C29.6683 26.551 29.0264 28.2584 27.9554 29.5975L27.8631 29.7128L27.8387 29.5662C27.8179 29.4416 27.7935 29.3158 27.7651 29.189C27.2291 26.7937 25.4827 24.7397 22.6084 23.0766C20.6675 21.9566 19.5565 20.6081 19.2648 19.0758C19.0764 18.085 19.2164 17.0898 19.4871 16.2373C19.7577 15.3852 20.1602 14.6712 20.5022 14.2414L21.6205 12.8505C21.8166 12.6067 22.1835 12.6067 22.3796 12.8505L28.0026 19.8436ZM29.7711 18.4543L22.2771 9.13347C22.1339 8.95551 21.8661 8.95551 21.723 9.13347L14.2286 18.4539L14.2044 18.4852C12.8253 20.2258 12 22.4377 12 24.8457C12 30.4537 16.477 35 22 35C27.5229 35 32 30.4537 32 24.8457C32 22.4378 31.1747 20.2258 29.7956 18.4852L29.7711 18.4543ZM16.0218 19.8136L16.6924 18.9795L16.7127 19.1334C16.7287 19.2553 16.7482 19.3779 16.7712 19.501C17.205 21.8155 18.7543 23.7455 21.3448 25.2402C23.5965 26.5436 24.9075 28.0425 25.2853 29.6864C25.4428 30.3724 25.4709 31.0474 25.4027 31.6375L25.3984 31.674L25.366 31.6902C24.3497 32.1952 23.2072 32.4786 21.9998 32.4786C17.7647 32.4786 14.3313 28.9923 14.3313 24.6916C14.3313 22.8451 14.9642 21.1484 16.0218 19.8136Z" fill="#F7F7F8"/>
</svg>
