<svg width="29" height="25" viewBox="0 0 29 25" fill="none" xmlns="http://www.w3.org/2000/svg">
<path d="M12.927 0.0751915C10.5901 0.457113 8.64816 1.47341 7.01044 3.17587C5.67695 4.55466 4.82249 6.14707 4.36289 8.10199C4.18811 8.83346 4.18164 8.96293 4.18164 10.3352C4.18164 11.7076 4.18811 11.837 4.36289 12.5685C4.84838 14.6464 5.69637 16.1741 7.17874 17.6565C8.69995 19.1712 10.3053 20.0451 12.4479 20.5112C13.0176 20.6341 13.3024 20.6536 14.5323 20.6536C15.8658 20.6536 16.0082 20.6406 16.7332 20.4723C18.8046 19.9868 20.3388 19.1388 21.8212 17.6565C23.3294 16.1417 24.2163 14.5234 24.6759 12.4067C24.7989 11.8176 24.8183 11.5457 24.8183 10.3352C24.8183 9.12476 24.7989 8.85288 24.6759 8.26382C24.2163 6.14707 23.3294 4.52877 21.8212 3.01403C20.3323 1.53167 18.7788 0.670729 16.7332 0.204657C16.0665 0.0492992 15.7881 0.023407 14.7265 0.00398636C13.8721 -0.00895882 13.3218 0.0104599 12.927 0.0751915ZM10.8814 13.1382C11.0044 13.2223 11.2504 13.3971 11.4316 13.5265C12.3055 14.1544 13.3477 14.4781 14.5 14.4781C15.6522 14.4781 16.6944 14.1544 17.5683 13.5265C18.2803 13.0152 18.3321 12.9893 18.6363 12.9893C19.4067 12.9893 19.8921 13.8567 19.4714 14.4781C19.1348 14.9701 17.8078 15.7922 16.8044 16.1288C16.0212 16.3877 15.3868 16.4913 14.5 16.4913C12.8946 16.4913 11.3734 15.9864 10.1176 15.0283C9.55441 14.6011 9.38611 14.3551 9.38611 13.9667C9.38611 13.1899 10.2535 12.7109 10.8814 13.1382Z" fill="white"/>
<path d="M2.12322 5.7974C1.1846 6.10164 0.38192 6.92374 0.103572 7.86883C0.0194197 8.16013 0 8.60031 0 10.3416C0 12.2383 0.0129464 12.5037 0.122991 12.8532C0.420759 13.8048 1.23639 14.6139 2.19442 14.8923C2.43393 14.9635 2.80938 14.9958 3.34666 14.9958C3.78683 14.9958 4.14286 14.9829 4.14286 14.97C4.14286 14.957 4.05871 14.7499 3.96161 14.5039C3.71563 13.9148 3.53438 13.2999 3.3596 12.4713C3.23014 11.8758 3.21072 11.6039 3.21072 10.3351C3.21072 9.06638 3.23014 8.7945 3.3596 8.19897C3.53438 7.37039 3.71563 6.75544 3.96161 6.16637C4.05871 5.92039 4.14286 5.71325 4.14286 5.7003C4.14286 5.68736 3.77389 5.67441 3.32076 5.68088C2.70581 5.68088 2.39509 5.71325 2.12322 5.7974Z" fill="white"/>
<path d="M24.8892 5.78442C25.2905 6.74246 25.653 8.05005 25.763 8.97572C25.7954 9.27349 25.8278 9.88844 25.8278 10.3351C25.8278 10.7817 25.7954 11.3967 25.763 11.6945C25.6724 12.4389 25.3552 13.6882 25.0834 14.3873C24.9604 14.7045 24.8568 14.9699 24.8568 14.9764C24.8568 14.9893 25.2387 14.9958 25.6983 14.9958C26.1644 14.9958 26.5398 15.0088 26.5398 15.0152C26.5398 15.0282 26.4816 15.2289 26.4039 15.4554C25.653 17.7469 24.0541 19.6695 21.7173 21.0806C20.0731 22.071 18.2735 22.6213 16.1762 22.7702C15.0758 22.8414 14.8945 22.9061 14.6485 23.2815C14.4414 23.5793 14.4414 24.149 14.6485 24.4467C14.9139 24.8481 15.1211 24.9193 15.9755 24.9063C18.8432 24.8675 21.8144 23.8123 24.2095 21.9998C24.8827 21.482 26.0284 20.3686 26.5139 19.7536C27.7762 18.1289 28.5918 16.2257 28.9026 14.1672C28.9738 13.6947 28.9997 12.8855 28.9997 10.8724C28.9997 8.43844 28.9867 8.17951 28.8767 7.81701C28.5789 6.86545 27.7633 6.0563 26.8052 5.77795C26.5657 5.70674 26.1903 5.67438 25.6465 5.67438C24.9086 5.67438 24.8438 5.68085 24.8892 5.78442Z" fill="white"/>
<path d="M10.3049 22.8932C9.99422 23.0874 9.83887 23.3787 9.83887 23.7995C9.83887 24.2202 9.99422 24.5115 10.3049 24.7057C10.4991 24.8223 10.6351 24.8352 11.6514 24.8352C12.6677 24.8352 12.8036 24.8223 12.9978 24.7057C13.3085 24.5115 13.4639 24.2202 13.4639 23.7995C13.4639 23.3787 13.3085 23.0874 12.9978 22.8932C12.8036 22.7767 12.6677 22.7638 11.6514 22.7638C10.6351 22.7638 10.4991 22.7767 10.3049 22.8932Z" fill="white"/>
</svg>
