<svg width="95" height="26" viewBox="0 0 95 26" fill="none" xmlns="http://www.w3.org/2000/svg">
<path d="M12.8066 25.6133C19.8795 25.6133 25.6133 19.8795 25.6133 12.8066C25.6133 5.73373 19.8795 0 12.8066 0C5.73372 0 0 5.73373 0 12.8066C0 19.8795 5.73372 25.6133 12.8066 25.6133Z" fill="#26A17B"/>
<path d="M14.1749 13.9936C14.0924 13.9936 13.6309 14.0265 12.609 14.0265C11.8014 14.0265 11.2245 14.01 11.0268 13.9936C7.89515 13.8617 5.57117 13.3178 5.57117 12.6585C5.57117 11.9992 7.91163 11.4553 11.0268 11.3234V13.4496C11.2245 13.4661 11.8179 13.4991 12.6255 13.4991C13.598 13.4991 14.076 13.4661 14.1749 13.4496V11.3234C17.29 11.4553 19.6304 11.9992 19.6304 12.6585C19.6304 13.3013 17.29 13.8452 14.1749 13.9936ZM14.1749 11.0927V9.19725H18.5261V6.29639H6.65899V9.19725H11.0103V11.0927C7.46661 11.2575 4.81299 11.9498 4.81299 12.7904C4.81299 13.6309 7.4831 14.3232 11.0103 14.488V20.5864H14.1584V14.488C17.7185 14.3397 20.3721 13.6474 20.3721 12.8068C20.3721 11.9662 17.7185 11.2575 14.1749 11.0927Z" fill="white"/>
<path d="M36.5082 7.08742V10.1696H39.4915V12.4771H36.4752V17.158C36.4752 18.1964 37.0521 18.6909 37.8762 18.6909C38.2883 18.6909 38.7827 18.559 39.1783 18.3612L39.92 20.6522C39.1454 20.9654 38.519 21.0972 37.6949 21.1137C35.338 21.1961 33.8051 19.8611 33.8051 17.158V12.4771H31.7778V10.1696H33.8051V7.36762L36.5082 7.08742ZM88.0809 10.0212L88.2787 11.2739C89.1192 9.93883 90.24 9.74105 91.3279 9.74105C92.4486 9.74105 93.52 10.1861 94.1133 10.7794L92.9101 13.1034C92.3662 12.6419 91.8553 12.3947 90.9817 12.3947C89.5807 12.3947 88.2787 13.1364 88.2787 15.1472V20.8665H85.5921V10.0212H88.0809ZM81.5045 14.1747C81.3232 12.7738 80.2354 12.065 78.686 12.065C77.2356 12.065 76.0489 12.7738 75.6533 14.1747H81.5045ZM75.6204 16.3998C75.8017 17.7349 76.9554 18.7073 78.8509 18.7073C79.8398 18.7073 81.1419 18.3282 81.7517 17.7019L83.4659 19.3996C82.3286 20.5863 80.4496 21.1632 78.8014 21.1632C75.06 21.1632 72.8349 18.8557 72.8349 15.3779C72.8349 12.0815 75.0764 9.70808 78.6036 9.70808C82.2297 9.70808 84.5042 11.9497 84.0757 16.4163H75.6204V16.3998ZM63.7862 5.47217V11.4882C64.7586 10.2355 65.9453 9.85642 67.165 9.85642C70.2472 9.85642 71.5987 11.9497 71.5987 15.1307V20.85H68.9121V15.1637C68.9121 13.1858 67.8737 12.3452 66.4563 12.3452C64.874 12.3452 63.7697 13.6803 63.7697 15.312V20.85H61.0831V5.47217H63.7862ZM56.6659 6.95556V10.0377H59.6492V12.3452H56.6329V17.0262C56.6329 18.0645 57.2098 18.559 58.0339 18.559C58.446 18.559 58.9404 18.4271 59.336 18.2294L60.0777 20.5204C59.303 20.8335 58.6767 20.9654 57.8526 20.9819C55.4957 21.0643 53.9628 19.7292 53.9628 17.0262V12.3452H51.9355V10.0377H53.9628V7.25224L56.6659 6.95556ZM49.2489 14.1747C49.0676 12.7738 47.9798 12.065 46.4305 12.065C44.98 12.065 43.7933 12.7738 43.3977 14.1747H49.2489ZM43.3648 16.3998C43.5461 17.7349 44.6998 18.7073 46.5953 18.7073C47.5842 18.7073 48.8863 18.3282 49.4961 17.7019L51.2103 19.3996C50.073 20.5863 48.1941 21.1632 46.5458 21.1632C42.8044 21.1632 40.5793 18.8557 40.5793 15.3779C40.5793 12.0815 42.8209 9.70808 46.3316 9.70808C49.9576 9.70808 52.2157 11.9497 51.8037 16.4163H43.3648V16.3998Z" fill="white"/>
</svg>
