<svg width="15" height="13" viewBox="0 0 15 13" fill="none" xmlns="http://www.w3.org/2000/svg">
<path d="M5.13849 12.383C4.8782 12.383 4.69348 12.297 4.53395 12.1437C3.73628 11.3755 2.93862 10.6093 2.14095 9.84311C1.51961 9.24696 0.898272 8.65081 0.276933 8.05676C-0.0694218 7.7251 -0.0946112 7.27799 0.222356 6.91904C0.677865 6.40475 1.13337 5.89257 1.59308 5.38038C1.91634 5.02143 2.42853 5.01094 2.76019 5.36989C3.36474 6.02481 3.95879 6.69023 4.55284 7.35565C4.6431 7.45851 4.68298 7.45221 4.76485 7.34726C6.0684 5.69105 7.52099 4.17759 9.173 2.86354C10.6004 1.72792 12.1307 0.764421 13.8519 0.132586C14.0052 0.0759097 14.1542 0.00663876 14.3242 0.000341399C14.595 -0.00805508 14.8238 0.138883 14.9309 0.390777C15.04 0.642672 15.0002 0.913458 14.7986 1.09818C14.4082 1.45293 14.0073 1.79509 13.6126 2.14564C10.9384 4.53024 8.62303 7.21291 6.77371 10.2839C6.44414 10.8318 6.12088 11.386 5.80811 11.9443C5.65278 12.2214 5.41977 12.3725 5.13849 12.383Z" fill="white"/>
</svg>
