<svg width="44" height="44" viewBox="0 0 44 44" fill="none" xmlns="http://www.w3.org/2000/svg">
<circle cx="22" cy="22" r="22" fill="black"/>
<path d="M25.3263 21.917L34.5205 10.2825L30.2687 10.2876L29.083 10.2893C27.9597 10.3021 26.9874 10.8313 26.1663 11.877L21.6029 17.6857L17.0268 11.8864C16.1911 10.8313 15.218 10.3038 14.1058 10.3047L10.5207 10.3089C9.90948 10.3098 9.60389 10.5659 9.60474 11.0772C9.60474 11.3333 9.72169 11.6055 9.95557 11.8941L17.8889 21.9256L9.49463 32.6587C9.2616 32.9592 9.14551 33.2315 9.14551 33.4765C9.21294 33.9767 9.52451 34.2268 10.0802 34.2259L13.6329 34.2217C14.7443 34.22 15.7114 33.6967 16.5334 32.651L21.6132 26.1577L26.7075 32.6399C27.5312 33.6839 28.4992 34.2054 29.6114 34.2046L35.0002 34.1986L25.3263 21.917Z" fill="#9FF3FF"/>
<path d="M26.644 21.9365L31.4233 27.9937L31.4097 15.8691L26.644 21.9365Z" fill="#9FF3FF"/>
</svg>
