<svg width="64" height="19" viewBox="0 0 64 19" fill="none" xmlns="http://www.w3.org/2000/svg">
<path d="M18.0333 0.415527H21.0833L14.7167 6.84887C12.4167 9.1822 8.68334 9.1822 6.38334 6.84887L0.0333335 0.415527H3.08334L7.91667 5.29886C9.35001 6.74887 11.7 6.76553 13.15 5.34887C13.1667 5.3322 13.1833 5.31553 13.2 5.29886L18.0333 0.415527ZM3.06667 18.2989H0L6.4 11.8322C8.70001 9.49887 12.4333 9.49887 14.7333 11.8322L21.1333 18.2989H18.0833L13.2167 13.3822C11.7833 11.9322 9.43334 11.9155 7.98334 13.3322C7.96667 13.3489 7.95001 13.3655 7.93334 13.3822L3.06667 18.2989Z" fill="white"/>
<path d="M58.2998 0.415527C59.0832 0.432194 59.8165 0.582195 60.4998 0.882195C61.1998 1.14886 61.7998 1.5322 62.3165 2.0322C62.8332 2.51553 63.2498 3.09886 63.5498 3.74886C63.8498 4.39886 63.9998 5.0822 63.9998 5.81553C63.9998 6.54887 63.8498 7.26553 63.5332 7.9322C63.2332 8.5822 62.8165 9.14887 62.2832 9.64887C61.7665 10.1322 61.1332 10.5155 60.4332 10.8155C59.7332 11.0989 58.9832 11.2322 58.1832 11.2322H51.5165V18.2322H49.1665V0.415527H58.2998ZM58.1665 9.0822C58.6332 9.0822 59.0832 8.99887 59.4998 8.8322C59.9332 8.66553 60.2998 8.4322 60.6165 8.1322C60.9332 7.8322 61.1832 7.4822 61.3665 7.09887C61.5498 6.69887 61.6332 6.2822 61.6332 5.8322C61.6332 5.39886 61.5498 4.9822 61.3665 4.5822C61.1832 4.1822 60.9332 3.8322 60.6165 3.54886C60.2998 3.24886 59.9332 3.01553 59.4998 2.84886C59.0832 2.6822 58.6332 2.59886 58.1665 2.59886H51.4998V9.09887H58.1665V9.0822Z" fill="white"/>
<path d="M32.1165 11.2818C33.2998 11.2818 34.3998 11.7818 35.1498 12.6318L39.9998 18.2484H43.0165L36.3832 10.4651C35.6498 9.59844 34.5332 9.09844 33.3332 9.09844H28.7498V2.61511H35.4165C35.8832 2.61511 36.3332 2.69844 36.7498 2.86511C37.1832 3.03177 37.5498 3.26511 37.8665 3.56511C38.1832 3.84844 38.4332 4.18177 38.6165 4.58177C38.7998 4.98177 38.8832 5.39844 38.8832 5.84844C38.8832 6.29844 38.7832 6.71511 38.6165 7.11511C38.4998 7.34844 38.3665 7.56511 38.2165 7.76511L39.7498 9.46511C39.7665 9.44844 39.7832 9.41511 39.7998 9.39845C40.2498 8.91511 40.5998 8.36511 40.8498 7.76511C41.1165 7.16511 41.2498 6.51511 41.2498 5.83177C41.2498 5.09844 41.0998 4.41511 40.7998 3.76511C40.4998 3.09844 40.0998 2.53177 39.5665 2.03177C39.0498 1.54844 38.4332 1.16511 37.7498 0.865105C37.0665 0.565105 36.3332 0.415104 35.5498 0.398438H27.5832C27.2665 0.398438 26.9832 0.515104 26.7498 0.731771C26.5332 0.931771 26.4165 1.19844 26.4165 1.48177V18.1984H28.7665V11.2484H32.1165V11.2818Z" fill="white"/>
</svg>
